# https://github.com/mikedh/trimesh
mtllib material.mtl

o geometry_0
usemtl Tires
v -0.10645243 -0.06418327 0.33643222
v -0.10645243 -0.10583574 0.32572406
v -0.11541230 -0.09560838 0.29425525
v -0.11541230 -0.13175380 0.27996313
v -0.10645243 -0.14582737 0.30990225
v -0.11541230 -0.16580132 0.26125669
v -0.10645243 -0.18350253 0.28918528
v -0.11541230 -0.19722642 0.23839813
v -0.10645243 -0.21833675 0.26387912
v -0.11541230 -0.22554836 0.21178072
v -0.10645243 -0.24967444 0.23446452
v -0.11541230 -0.25033003 0.18188536
v -0.10645243 -0.27707854 0.20129114
v -0.11541230 -0.27113444 0.14906162
v -0.10645243 -0.30015567 0.16497087
v -0.11541230 -0.28769925 0.11387777
v -0.10645243 -0.31846875 0.12607193
v -0.11541230 -0.29971859 0.07694560
v -0.10645243 -0.33175561 0.08516246
v -0.11541230 -0.30697391 0.03878969
v -0.10645243 -0.33979762 0.04289812
v -0.11541230 -0.30942148 -0.00002185
v -0.10645243 -0.34250745 -0.00002185
v -0.11541230 -0.30697391 -0.03878969
v -0.10645243 -0.33979762 -0.04294181
v -0.11541230 -0.29971859 -0.07694564
v -0.10645243 -0.33175561 -0.08520618
v -0.11541230 -0.28769925 -0.11392148
v -0.10645243 -0.31842506 -0.12607193
v -0.11541230 -0.27113444 -0.14906165
v -0.10645243 -0.30011195 -0.16501460
v -0.11541230 -0.25033003 -0.18188538
v -0.10645243 -0.27707854 -0.20133485
v -0.11541230 -0.22554836 -0.21182445
v -0.10645243 -0.24967444 -0.23446451
v -0.11541230 -0.19722642 -0.23844183
v -0.10645243 -0.21829304 -0.26392281
v -0.11541230 -0.16580132 -0.26125673
v -0.10645243 -0.18350253 -0.28918529
v -0.11541230 -0.13175380 -0.27996317
v -0.10645243 -0.14582737 -0.30990225
v -0.11541230 -0.09560838 -0.29429898
v -0.10645243 -0.10583574 -0.32572407
v -0.11541230 -0.05797693 -0.30395815
v -0.10645243 -0.06418327 -0.33643222
v -0.11541230 -0.01942763 -0.30880958
v -0.10645243 -0.02148184 -0.34185183
v -0.11541230 0.01942763 -0.30880958
v -0.10645243 0.02152553 -0.34185183
v -0.11541230 0.05797690 -0.30395815
v -0.10645243 0.06418326 -0.33643222
v -0.11541230 0.09560835 -0.29429898
v -0.10645243 0.10583573 -0.32572407
v -0.11541230 0.13175380 -0.27996317
v -0.10645243 0.14582732 -0.30990225
v -0.11541230 0.16580132 -0.26125673
v -0.10645243 0.18350252 -0.28918529
v -0.11541230 0.19722643 -0.23844183
v -0.10645243 0.21833673 -0.26392281
v -0.11541230 0.22554836 -0.21182445
v -0.10645243 0.24967441 -0.23446451
v -0.11541230 0.25033000 -0.18188538
v -0.10645243 0.27707854 -0.20133485
v -0.11541230 0.27113441 -0.14906165
v -0.10645243 0.30015567 -0.16501460
v -0.11541230 0.28769925 -0.11392148
v -0.10645243 0.31846878 -0.12607193
v -0.11541230 0.29971859 -0.07694564
v -0.10645243 0.33175561 -0.08516249
v -0.11541230 0.30697390 -0.03878969
v -0.10645243 0.33979759 -0.04294181
v -0.11541230 0.30942145 -0.00002185
v -0.10645243 0.34250745 -0.00002185
v -0.11541230 0.30697390 0.03878969
v -0.10645243 0.33979759 0.04294181
v -0.11541230 0.29971859 0.07694560
v -0.10645243 0.33175561 0.08516246
v -0.11541230 0.28769925 0.11392146
v -0.10645243 0.31842503 0.12607193
v -0.11541230 0.27113441 0.14906162
v -0.10645243 0.30011192 0.16501456
v -0.11541230 0.25033000 0.18188536
v -0.10645243 0.27707854 0.20133483
v -0.11541230 0.22554836 0.21182441
v -0.10645243 0.24967441 0.23446452
v -0.11541230 0.19722643 0.23839813
v -0.10645243 0.21829304 0.26392281
v -0.11541230 0.16580132 0.26125669
v -0.10645243 0.18350252 0.28918528
v -0.11541230 0.13175380 0.27996313
v -0.10645243 0.14582732 0.30990225
v -0.11541230 0.09560835 0.29425525
v -0.10645243 0.10583573 0.32572406
v -0.11541230 0.05797690 0.30391442
v -0.10645243 0.06418326 0.33643222
v -0.11541230 0.01942763 0.30880958
v -0.10645243 0.02148184 0.34180814
v -0.11541230 -0.01942763 0.30880958
v -0.10645243 -0.02152556 0.34180814
v -0.11541230 -0.05797693 0.30391442
v -0.11869030 -0.08730412 0.26864314
v -0.11864660 -0.12008412 0.25522518
v -0.11864660 -0.15085364 0.23778623
v -0.11864660 -0.17913185 0.21685069
v -0.11864660 -0.20522475 0.19268089
v -0.11864660 -0.22773369 0.16540795
v -0.11864660 -0.24670239 0.13564369
v -0.11864660 -0.26160637 0.10334444
v -0.11864660 -0.27279529 0.06999623
v -0.11864660 -0.27987576 0.03533685
v -0.11869030 -0.28249818 -0.00002185
v -0.11864660 -0.27987576 -0.03533686
v -0.11864660 -0.27279529 -0.06999627
v -0.11864660 -0.26160637 -0.10334447
v -0.11864660 -0.24670239 -0.13564371
v -0.11864660 -0.22768998 -0.16545166
v -0.11864660 -0.20522475 -0.19268093
v -0.11864660 -0.17913185 -0.21685072
v -0.11864660 -0.15085364 -0.23782993
v -0.11864660 -0.12008412 -0.25522518
v -0.11869030 -0.08730412 -0.26864314
v -0.11864660 -0.05286324 -0.27707854
v -0.11864660 -0.01772308 -0.28105584
v -0.11864660 0.01746082 -0.28074989
v -0.11864660 0.05277580 -0.27655405
v -0.11864660 0.08699813 -0.26768160
v -0.11864660 0.11986557 -0.25474441
v -0.11864660 0.15089729 -0.23739288
v -0.11864660 0.17956892 -0.21698185
v -0.11864660 0.20561811 -0.19311799
v -0.11869030 0.22852036 -0.16606355
v -0.11864660 0.24718317 -0.13590594
v -0.11864660 0.26182487 -0.10373783
v -0.11864660 0.27240190 -0.07017109
v -0.11864660 0.27930757 -0.03524944
v -0.11864660 0.28144917 -0.00002185
v -0.11864660 0.27930757 0.03524944
v -0.11864660 0.27240190 0.07012736
v -0.11864660 0.26182487 0.10373780
v -0.11864660 0.24718317 0.13590592
v -0.11869030 0.22852036 0.16601985
v -0.11864660 0.20561811 0.19307428
v -0.11864660 0.17956892 0.21693813
v -0.11864660 0.15089729 0.23739284
v -0.11864660 0.11982188 0.25474441
v -0.11864660 0.08699813 0.26768160
v -0.11864660 0.05277580 0.27651035
v -0.11864660 0.01746082 0.28070616
v -0.11864660 -0.01772308 0.28105580
v -0.11864660 -0.05286324 0.27707851
v -0.11869030 -0.08730412 0.26864314
v -0.11864660 -0.12008412 0.25522518
v -0.11541230 -0.09560838 0.29425525
v -0.11541230 -0.13175380 0.27996313
v -0.11864660 -0.15085364 0.23778623
v -0.11541230 -0.16580132 0.26125669
v -0.11864660 -0.17913185 0.21685069
v -0.11541230 -0.19722642 0.23839813
v -0.11864660 -0.20522475 0.19268089
v -0.11541230 -0.22554836 0.21178072
v -0.11864660 -0.22773369 0.16540795
v -0.11541230 -0.25033003 0.18188536
v -0.11864660 -0.24670239 0.13564369
v -0.11541230 -0.27113444 0.14906162
v -0.11864660 -0.26160637 0.10334444
v -0.11541230 -0.28769925 0.11387777
v -0.11864660 -0.27279529 0.06999623
v -0.11541230 -0.29971859 0.07694560
v -0.11864660 -0.27987576 0.03533685
v -0.11541230 -0.30697391 0.03878969
v -0.11869030 -0.28249818 -0.00002185
v -0.11541230 -0.30942148 -0.00002185
v -0.11864660 -0.27987576 -0.03533686
v -0.11541230 -0.30697391 -0.03878969
v -0.11864660 -0.27279529 -0.06999627
v -0.11541230 -0.29971859 -0.07694564
v -0.11864660 -0.26160637 -0.10334447
v -0.11541230 -0.28769925 -0.11392148
v -0.11864660 -0.24670239 -0.13564371
v -0.11541230 -0.27113444 -0.14906165
v -0.11864660 -0.22768998 -0.16545166
v -0.11541230 -0.25033003 -0.18188538
v -0.11864660 -0.20522475 -0.19268093
v -0.11541230 -0.22554836 -0.21182445
v -0.11864660 -0.17913185 -0.21685072
v -0.11541230 -0.19722642 -0.23844183
v -0.11864660 -0.15085364 -0.23782993
v -0.11541230 -0.16580132 -0.26125673
v -0.11864660 -0.12008412 -0.25522518
v -0.11541230 -0.13175380 -0.27996317
v -0.11869030 -0.08730412 -0.26864314
v -0.11541230 -0.09560838 -0.29429898
v -0.11864660 -0.05286324 -0.27707854
v -0.11541230 -0.05797693 -0.30395815
v -0.11864660 -0.01772308 -0.28105584
v -0.11541230 -0.01942763 -0.30880958
v -0.11864660 0.01746082 -0.28074989
v -0.11541230 0.01942763 -0.30880958
v -0.11864660 0.05277580 -0.27655405
v -0.11541230 0.05797690 -0.30395815
v -0.11864660 0.08699813 -0.26768160
v -0.11541230 0.09560835 -0.29429898
v -0.11864660 0.11986557 -0.25474441
v -0.11541230 0.13175380 -0.27996317
v -0.11864660 0.15089729 -0.23739288
v -0.11541230 0.16580132 -0.26125673
v -0.11864660 0.17956892 -0.21698185
v -0.11541230 0.19722643 -0.23844183
v -0.11864660 0.20561811 -0.19311799
v -0.11541230 0.22554836 -0.21182445
v -0.11869030 0.22852036 -0.16606355
v -0.11541230 0.25033000 -0.18188538
v -0.11864660 0.24718317 -0.13590594
v -0.11541230 0.27113441 -0.14906165
v -0.11864660 0.26182487 -0.10373783
v -0.11541230 0.28769925 -0.11392148
v -0.11864660 0.27240190 -0.07017109
v -0.11541230 0.29971859 -0.07694564
v -0.11864660 0.27930757 -0.03524944
v -0.11541230 0.30697390 -0.03878969
v -0.11864660 0.28144917 -0.00002185
v -0.11541230 0.30942145 -0.00002185
v -0.11864660 0.27930757 0.03524944
v -0.11541230 0.30697390 0.03878969
v -0.11864660 0.27240190 0.07012736
v -0.11541230 0.29971859 0.07694560
v -0.11864660 0.26182487 0.10373780
v -0.11541230 0.28769925 0.11392146
v -0.11864660 0.24718317 0.13590592
v -0.11541230 0.27113441 0.14906162
v -0.11869030 0.22852036 0.16601985
v -0.11541230 0.25033000 0.18188536
v -0.11864660 0.20561811 0.19307428
v -0.11541230 0.22554836 0.21182441
v -0.11864660 0.17956892 0.21693813
v -0.11541230 0.19722643 0.23839813
v -0.11864660 0.15089729 0.23739284
v -0.11541230 0.16580132 0.26125669
v -0.11864660 0.11982188 0.25474441
v -0.11541230 0.13175380 0.27996313
v -0.11864660 0.08699813 0.26768160
v -0.11541230 0.09560835 0.29425525
v -0.11864660 0.05277580 0.27651035
v -0.11541230 0.05797690 0.30391442
v -0.11864660 0.01746082 0.28070616
v -0.11541230 0.01942763 0.30880958
v -0.11864660 -0.01772308 0.28105580
v -0.11541230 -0.01942763 0.30880958
v -0.11864660 -0.05286324 0.27707851
v -0.11541230 -0.05797693 0.30391442
v -0.10645243 -0.06418327 0.33643222
v -0.10645243 -0.10583574 0.32572406
v -0.10645243 -0.14582737 0.30990225
v -0.10645243 -0.18350253 0.28918528
v -0.10645243 -0.21833675 0.26387912
v -0.10645243 -0.24967444 0.23446452
v -0.10645243 -0.27707854 0.20129114
v -0.10645243 -0.30015567 0.16497087
v -0.10645243 -0.31846875 0.12607193
v -0.10645243 -0.33175561 0.08516246
v -0.10645243 -0.33979762 0.04289812
v -0.10645243 -0.34250745 -0.00002185
v -0.10645243 -0.33979762 -0.04294181
v -0.10645243 -0.33175561 -0.08520618
v -0.10645243 -0.31842506 -0.12607193
v -0.10645243 -0.30011195 -0.16501460
v -0.10645243 -0.27707854 -0.20133485
v -0.10645243 -0.24967444 -0.23446451
v -0.10645243 -0.21829304 -0.26392281
v -0.10645243 -0.18350253 -0.28918529
v -0.10645243 -0.14582737 -0.30990225
v -0.10645243 -0.10583574 -0.32572407
v -0.10645243 -0.06418327 -0.33643222
v -0.10645243 -0.02148184 -0.34185183
v -0.10645243 0.02152553 -0.34185183
v -0.10645243 0.06418326 -0.33643222
v -0.10645243 0.10583573 -0.32572407
v -0.10645243 0.14582732 -0.30990225
v -0.10645243 0.18350252 -0.28918529
v -0.10645243 0.21833673 -0.26392281
v -0.10645243 0.24967441 -0.23446451
v -0.10645243 0.27707854 -0.20133485
v -0.10645243 0.30015567 -0.16501460
v -0.10645243 0.31846878 -0.12607193
v -0.10645243 0.33175561 -0.08516249
v -0.10645243 0.33979759 -0.04294181
v -0.10645243 0.34250745 -0.00002185
v -0.10645243 0.33979759 0.04294181
v -0.10645243 0.33175561 0.08516246
v -0.10645243 0.31842503 0.12607193
v -0.10645243 0.30011192 0.16501456
v -0.10645243 0.27707854 0.20133483
v -0.10645243 0.24967441 0.23446452
v -0.10645243 0.21829304 0.26392281
v -0.10645243 0.18350252 0.28918528
v -0.10645243 0.14582732 0.30990225
v -0.10645243 0.10583573 0.32572406
v -0.10645243 0.06418326 0.33643222
v -0.10645243 0.02148184 0.34180814
v -0.10645243 -0.02152556 0.34180814
v -0.08787709 -0.02248711 0.35732400
v -0.08787709 0.02248707 0.35732400
v -0.10645243 -0.02152556 0.34180814
v -0.10645243 0.02148184 0.34180814
v -0.08787709 0.06706789 0.35168582
v -0.10645243 0.06418326 0.33643222
v -0.08787709 0.11064348 0.34049689
v -0.10645243 0.10583573 0.32572406
v -0.08787709 0.15242705 0.32393211
v -0.10645243 0.14582732 0.30990225
v -0.08787709 0.19185051 0.30229729
v -0.10645243 0.18350252 0.28918528
v -0.08787709 0.22821447 0.27585470
v -0.10645243 0.21829304 0.26392281
v -0.08787709 0.26099446 0.24508524
v -0.10645243 0.24967441 0.23446452
v -0.08787709 0.28962234 0.21042585
v -0.10645243 0.27707854 0.20133483
v -0.08787709 0.31374845 0.17248845
v -0.10645243 0.30011192 0.16501456
v -0.08787709 0.33289197 0.13179749
v -0.10645243 0.31842503 0.12607193
v -0.08787709 0.34679070 0.08905238
v -0.10645243 0.33175561 0.08516246
v -0.08787709 0.35518238 0.04486492
v -0.10645243 0.33979759 0.04294181
v -0.08787709 0.35802331 -0.00002185
v -0.10645243 0.34250745 -0.00002185
v -0.08787709 0.35518238 -0.04486493
v -0.10645243 0.33979759 -0.04294181
v -0.08787709 0.34679070 -0.08905238
v -0.10645243 0.33175561 -0.08516249
v -0.08787709 0.33289197 -0.13179751
v -0.10645243 0.31846878 -0.12607193
v -0.08787709 0.31374845 -0.17248844
v -0.10645243 0.30015567 -0.16501460
v -0.08787709 0.28966603 -0.21042584
v -0.10645243 0.27707854 -0.20133485
v -0.08787709 0.26099446 -0.24508524
v -0.10645243 0.24967441 -0.23446451
v -0.08787709 0.22821447 -0.27585474
v -0.10645243 0.21833673 -0.26392281
v -0.08787709 0.19185051 -0.30229730
v -0.10645243 0.18350252 -0.28918529
v -0.08787709 0.15242705 -0.32397580
v -0.10645243 0.14582732 -0.30990225
v -0.08787709 0.11064348 -0.34049693
v -0.10645243 0.10583573 -0.32572407
v -0.08787709 0.06706789 -0.35168585
v -0.10645243 0.06418326 -0.33643222
v -0.08787709 0.02248707 -0.35732401
v -0.10645243 0.02152553 -0.34185183
v -0.08787709 -0.02248711 -0.35732401
v -0.10645243 -0.02148184 -0.34185183
v -0.08787709 -0.06706792 -0.35168585
v -0.10645243 -0.06418327 -0.33643222
v -0.08787709 -0.11064348 -0.34049693
v -0.10645243 -0.10583574 -0.32572407
v -0.08787709 -0.15242708 -0.32397580
v -0.10645243 -0.14582737 -0.30990225
v -0.08787709 -0.19185050 -0.30229730
v -0.10645243 -0.18350253 -0.28918529
v -0.08787709 -0.22821446 -0.27585474
v -0.10645243 -0.21829304 -0.26392281
v -0.08787709 -0.26099450 -0.24508524
v -0.10645243 -0.24967444 -0.23446451
v -0.08787709 -0.28962237 -0.21046955
v -0.10645243 -0.27707854 -0.20133485
v -0.08787709 -0.31374845 -0.17248844
v -0.10645243 -0.30011195 -0.16501460
v -0.08787709 -0.33289197 -0.13179751
v -0.10645243 -0.31842506 -0.12607193
v -0.08787709 -0.34679070 -0.08905238
v -0.10645243 -0.33175561 -0.08520618
v -0.08787709 -0.35518238 -0.04486493
v -0.10645243 -0.33979762 -0.04294181
v -0.08787709 -0.35802332 -0.00002185
v -0.10645243 -0.34250745 -0.00002185
v -0.08787709 -0.35518238 0.04486492
v -0.10645243 -0.33979762 0.04289812
v -0.08787709 -0.34679070 0.08900866
v -0.10645243 -0.33175561 0.08516246
v -0.08787709 -0.33289197 0.13179749
v -0.10645243 -0.31846875 0.12607193
v -0.08787709 -0.31374845 0.17248845
v -0.10645243 -0.30015567 0.16497087
v -0.08787709 -0.28966606 0.21042585
v -0.10645243 -0.27707854 0.20129114
v -0.08787709 -0.26099450 0.24508524
v -0.10645243 -0.24967444 0.23446452
v -0.08787709 -0.22821446 0.27585470
v -0.10645243 -0.21833675 0.26387912
v -0.08787709 -0.19185050 0.30225354
v -0.10645243 -0.18350253 0.28918528
v -0.08787709 -0.15242708 0.32393211
v -0.10645243 -0.14582737 0.30990225
v -0.08787709 -0.11064348 0.34049689
v -0.10645243 -0.10583574 0.32572406
v -0.08787709 -0.06706792 0.35168582
v -0.10645243 -0.06418327 0.33643222
v -0.08787709 -0.02248711 0.35732400
v -0.08787709 -0.06706792 0.35168582
v -0.10645243 -0.06418327 0.33643222
v -0.10645243 -0.10583574 0.32572406
v -0.08787709 -0.11064348 0.34049689
v -0.10645243 -0.14582737 0.30990225
v -0.08787709 -0.15242708 0.32393211
v -0.10645243 -0.18350253 0.28918528
v -0.08787709 -0.19185050 0.30225354
v -0.10645243 -0.21833675 0.26387912
v -0.08787709 -0.22821446 0.27585470
v -0.10645243 -0.24967444 0.23446452
v -0.08787709 -0.26099450 0.24508524
v -0.10645243 -0.27707854 0.20129114
v -0.08787709 -0.28966606 0.21042585
v -0.10645243 -0.30015567 0.16497087
v -0.08787709 -0.31374845 0.17248845
v -0.10645243 -0.31846875 0.12607193
v -0.08787709 -0.33289197 0.13179749
v -0.10645243 -0.33175561 0.08516246
v -0.08787709 -0.34679070 0.08900866
v -0.10645243 -0.33979762 0.04289812
v -0.08787709 -0.35518238 0.04486492
v -0.10645243 -0.34250745 -0.00002185
v -0.08787709 -0.35802332 -0.00002185
v -0.10645243 -0.33979762 -0.04294181
v -0.08787709 -0.35518238 -0.04486493
v -0.10645243 -0.33175561 -0.08520618
v -0.08787709 -0.34679070 -0.08905238
v -0.10645243 -0.31842506 -0.12607193
v -0.08787709 -0.33289197 -0.13179751
v -0.10645243 -0.30011195 -0.16501460
v -0.08787709 -0.31374845 -0.17248844
v -0.10645243 -0.27707854 -0.20133485
v -0.08787709 -0.28962237 -0.21046955
v -0.10645243 -0.24967444 -0.23446451
v -0.08787709 -0.26099450 -0.24508524
v -0.10645243 -0.21829304 -0.26392281
v -0.08787709 -0.22821446 -0.27585474
v -0.10645243 -0.18350253 -0.28918529
v -0.08787709 -0.19185050 -0.30229730
v -0.10645243 -0.14582737 -0.30990225
v -0.08787709 -0.15242708 -0.32397580
v -0.10645243 -0.10583574 -0.32572407
v -0.08787709 -0.11064348 -0.34049693
v -0.10645243 -0.06418327 -0.33643222
v -0.08787709 -0.06706792 -0.35168585
v -0.10645243 -0.02148184 -0.34185183
v -0.08787709 -0.02248711 -0.35732401
v -0.10645243 0.02152553 -0.34185183
v -0.08787709 0.02248707 -0.35732401
v -0.10645243 0.06418326 -0.33643222
v -0.08787709 0.06706789 -0.35168585
v -0.10645243 0.10583573 -0.32572407
v -0.08787709 0.11064348 -0.34049693
v -0.10645243 0.14582732 -0.30990225
v -0.08787709 0.15242705 -0.32397580
v -0.10645243 0.18350252 -0.28918529
v -0.08787709 0.19185051 -0.30229730
v -0.10645243 0.21833673 -0.26392281
v -0.08787709 0.22821447 -0.27585474
v -0.10645243 0.24967441 -0.23446451
v -0.08787709 0.26099446 -0.24508524
v -0.10645243 0.27707854 -0.20133485
v -0.08787709 0.28966603 -0.21042584
v -0.10645243 0.30015567 -0.16501460
v -0.08787709 0.31374845 -0.17248844
v -0.10645243 0.31846878 -0.12607193
v -0.08787709 0.33289197 -0.13179751
v -0.10645243 0.33175561 -0.08516249
v -0.08787709 0.34679070 -0.08905238
v -0.10645243 0.33979759 -0.04294181
v -0.08787709 0.35518238 -0.04486493
v -0.10645243 0.34250745 -0.00002185
v -0.08787709 0.35802331 -0.00002185
v -0.10645243 0.33979759 0.04294181
v -0.08787709 0.35518238 0.04486492
v -0.10645243 0.33175561 0.08516246
v -0.08787709 0.34679070 0.08905238
v -0.10645243 0.31842503 0.12607193
v -0.08787709 0.33289197 0.13179749
v -0.10645243 0.30011192 0.16501456
v -0.08787709 0.31374845 0.17248845
v -0.10645243 0.27707854 0.20133483
v -0.08787709 0.28962234 0.21042585
v -0.10645243 0.24967441 0.23446452
v -0.08787709 0.26099446 0.24508524
v -0.10645243 0.21829304 0.26392281
v -0.08787709 0.22821447 0.27585470
v -0.10645243 0.18350252 0.28918528
v -0.08787709 0.19185051 0.30229729
v -0.10645243 0.14582732 0.30990225
v -0.08787709 0.15242705 0.32393211
v -0.10645243 0.10583573 0.32572406
v -0.08787709 0.11064348 0.34049689
v -0.10645243 0.06418326 0.33643222
v -0.08787709 0.06706789 0.35168582
v -0.10645243 0.02148184 0.34180814
v -0.08787709 0.02248707 0.35732400
v -0.10645243 -0.02152556 0.34180814
v -0.08787709 -0.02248711 0.35732400
v -0.08787709 0.02248707 0.35732400
v 0.11632055 -0.02248711 0.35732400
v 0.11632055 0.02248707 0.35732400
v -0.08787709 0.06706789 0.35168582
v 0.11632055 0.06706789 0.35168582
v -0.08787709 0.11064348 0.34049689
v 0.11632055 0.11064348 0.34049689
v -0.08787709 0.15242705 0.32393211
v 0.11632055 0.15242705 0.32393211
v -0.08787709 0.19185051 0.30229729
v 0.11632055 0.19180676 0.30229729
v -0.08787709 0.22821447 0.27585470
v 0.11632055 0.22821447 0.27585470
v -0.08787709 0.26099446 0.24508524
v 0.11632055 0.26099446 0.24508524
v -0.08787709 0.28962234 0.21042585
v 0.11632055 0.28966603 0.21042585
v -0.08787709 0.31374845 0.17248845
v 0.11632055 0.31374845 0.17248845
v -0.08787709 0.33289197 0.13179749
v 0.11632055 0.33289197 0.13179749
v -0.08787709 0.34679070 0.08905238
v 0.11632055 0.34679070 0.08905238
v -0.08787709 0.35518238 0.04486492
v 0.11632055 0.35518238 0.04486492
v -0.08787709 0.35802331 -0.00002185
v 0.11632055 0.35802331 -0.00002185
v -0.08787709 0.35518238 -0.04486493
v 0.11632055 0.35518238 -0.04486493
v -0.08787709 0.34679070 -0.08905238
v 0.11632055 0.34679070 -0.08905238
v -0.08787709 0.33289197 -0.13179751
v 0.11632055 0.33289197 -0.13179751
v -0.08787709 0.31374845 -0.17248844
v 0.11632055 0.31374845 -0.17248844
v -0.08787709 0.28966603 -0.21042584
v 0.11632055 0.28966603 -0.21042584
v -0.08787709 0.26099446 -0.24508524
v 0.11632055 0.26099446 -0.24508524
v -0.08787709 0.22821447 -0.27585474
v 0.11632055 0.22821447 -0.27585474
v -0.08787709 0.19185051 -0.30229730
v 0.11632055 0.19185051 -0.30229730
v -0.08787709 0.15242705 -0.32397580
v 0.11632055 0.15242705 -0.32393208
v -0.08787709 0.11064348 -0.34049693
v 0.11632055 0.11064348 -0.34049693
v -0.08787709 0.06706789 -0.35168585
v 0.11632055 0.06706789 -0.35168585
v -0.08787709 0.02248707 -0.35732401
v 0.11632055 0.02248707 -0.35732401
v -0.08787709 -0.02248711 -0.35732401
v 0.11632055 -0.02248711 -0.35732401
v -0.08787709 -0.06706792 -0.35168585
v 0.11632055 -0.06706792 -0.35168585
v -0.08787709 -0.11064348 -0.34049693
v 0.11632055 -0.11064348 -0.34049693
v -0.08787709 -0.15242708 -0.32397580
v 0.11632055 -0.15242708 -0.32393208
v -0.08787709 -0.19185050 -0.30229730
v 0.11632055 -0.19180679 -0.30229730
v -0.08787709 -0.22821446 -0.27585474
v 0.11632055 -0.22821446 -0.27585474
v -0.08787709 -0.26099450 -0.24508524
v 0.11632055 -0.26099450 -0.24508524
v -0.08787709 -0.28962237 -0.21046955
v 0.11632055 -0.28966606 -0.21042584
v -0.08787709 -0.31374845 -0.17248844
v 0.11632055 -0.31374845 -0.17248844
v -0.08787709 -0.33289197 -0.13179751
v 0.11632055 -0.33289197 -0.13179751
v -0.08787709 -0.34679070 -0.08905238
v 0.11632055 -0.34679070 -0.08905238
v -0.08787709 -0.35518238 -0.04486493
v 0.11632055 -0.35518238 -0.04486493
v -0.08787709 -0.35802332 -0.00002185
v 0.11632055 -0.35802332 -0.00002185
v -0.08787709 -0.35518238 0.04486492
v 0.11632055 -0.35518238 0.04486492
v -0.08787709 -0.34679070 0.08900866
v 0.11632055 -0.34679070 0.08900866
v -0.08787709 -0.33289197 0.13179749
v 0.11632055 -0.33289197 0.13179749
v -0.08787709 -0.31374845 0.17248845
v 0.11632055 -0.31374845 0.17244470
v -0.08787709 -0.28966606 0.21042585
v 0.11632055 -0.28966606 0.21042585
v -0.08787709 -0.26099450 0.24508524
v 0.11632055 -0.26099450 0.24508524
v -0.08787709 -0.22821446 0.27585470
v 0.11632055 -0.22821446 0.27585470
v -0.08787709 -0.19185050 0.30225354
v 0.11632055 -0.19185050 0.30225354
v -0.08787709 -0.15242708 0.32393211
v 0.11632055 -0.15242708 0.32393211
v -0.08787709 -0.11064348 0.34049689
v 0.11632055 -0.11064348 0.34049689
v -0.08787709 -0.06706792 0.35168582
v 0.11632055 -0.06706792 0.35168582
v -0.08787709 -0.02248711 0.35732400
v -0.08787709 -0.06706792 0.35168582
v 0.11632055 -0.06706792 0.35168582
v 0.11632055 -0.11064348 0.34049689
v -0.08787709 -0.11064348 0.34049689
v 0.11632055 -0.15242708 0.32393211
v -0.08787709 -0.15242708 0.32393211
v 0.11632055 -0.19185050 0.30225354
v -0.08787709 -0.19185050 0.30225354
v 0.11632055 -0.22821446 0.27585470
v -0.08787709 -0.22821446 0.27585470
v 0.11632055 -0.26099450 0.24508524
v -0.08787709 -0.26099450 0.24508524
v 0.11632055 -0.28966606 0.21042585
v -0.08787709 -0.28966606 0.21042585
v 0.11632055 -0.31374845 0.17244470
v -0.08787709 -0.31374845 0.17248845
v 0.11632055 -0.33289197 0.13179749
v -0.08787709 -0.33289197 0.13179749
v 0.11632055 -0.34679070 0.08900866
v -0.08787709 -0.34679070 0.08900866
v 0.11632055 -0.35518238 0.04486492
v -0.08787709 -0.35518238 0.04486492
v 0.11632055 -0.35802332 -0.00002185
v -0.08787709 -0.35802332 -0.00002185
v 0.11632055 -0.35518238 -0.04486493
v -0.08787709 -0.35518238 -0.04486493
v 0.11632055 -0.34679070 -0.08905238
v -0.08787709 -0.34679070 -0.08905238
v 0.11632055 -0.33289197 -0.13179751
v -0.08787709 -0.33289197 -0.13179751
v 0.11632055 -0.31374845 -0.17248844
v -0.08787709 -0.31374845 -0.17248844
v 0.11632055 -0.28966606 -0.21042584
v -0.08787709 -0.28962237 -0.21046955
v 0.11632055 -0.26099450 -0.24508524
v -0.08787709 -0.26099450 -0.24508524
v 0.11632055 -0.22821446 -0.27585474
v -0.08787709 -0.22821446 -0.27585474
v 0.11632055 -0.19180679 -0.30229730
v -0.08787709 -0.19185050 -0.30229730
v 0.11632055 -0.15242708 -0.32393208
v -0.08787709 -0.15242708 -0.32397580
v 0.11632055 -0.11064348 -0.34049693
v -0.08787709 -0.11064348 -0.34049693
v 0.11632055 -0.06706792 -0.35168585
v -0.08787709 -0.06706792 -0.35168585
v 0.11632055 -0.02248711 -0.35732401
v -0.08787709 -0.02248711 -0.35732401
v 0.11632055 0.02248707 -0.35732401
v -0.08787709 0.02248707 -0.35732401
v 0.11632055 0.06706789 -0.35168585
v -0.08787709 0.06706789 -0.35168585
v 0.11632055 0.11064348 -0.34049693
v -0.08787709 0.11064348 -0.34049693
v 0.11632055 0.15242705 -0.32393208
v -0.08787709 0.15242705 -0.32397580
v 0.11632055 0.19185051 -0.30229730
v -0.08787709 0.19185051 -0.30229730
v 0.11632055 0.22821447 -0.27585474
v -0.08787709 0.22821447 -0.27585474
v 0.11632055 0.26099446 -0.24508524
v -0.08787709 0.26099446 -0.24508524
v 0.11632055 0.28966603 -0.21042584
v -0.08787709 0.28966603 -0.21042584
v 0.11632055 0.31374845 -0.17248844
v -0.08787709 0.31374845 -0.17248844
v 0.11632055 0.33289197 -0.13179751
v -0.08787709 0.33289197 -0.13179751
v 0.11632055 0.34679070 -0.08905238
v -0.08787709 0.34679070 -0.08905238
v 0.11632055 0.35518238 -0.04486493
v -0.08787709 0.35518238 -0.04486493
v 0.11632055 0.35802331 -0.00002185
v -0.08787709 0.35802331 -0.00002185
v 0.11632055 0.35518238 0.04486492
v -0.08787709 0.35518238 0.04486492
v 0.11632055 0.34679070 0.08905238
v -0.08787709 0.34679070 0.08905238
v 0.11632055 0.33289197 0.13179749
v -0.08787709 0.33289197 0.13179749
v 0.11632055 0.31374845 0.17248845
v -0.08787709 0.31374845 0.17248845
v 0.11632055 0.28966603 0.21042585
v -0.08787709 0.28962234 0.21042585
v 0.11632055 0.26099446 0.24508524
v -0.08787709 0.26099446 0.24508524
v 0.11632055 0.22821447 0.27585470
v -0.08787709 0.22821447 0.27585470
v 0.11632055 0.19180676 0.30229729
v -0.08787709 0.19185051 0.30229729
v 0.11632055 0.15242705 0.32393211
v -0.08787709 0.15242705 0.32393211
v 0.11632055 0.11064348 0.34049689
v -0.08787709 0.11064348 0.34049689
v 0.11632055 0.06706789 0.35168582
v -0.08787709 0.06706789 0.35168582
v 0.11632055 0.02248707 0.35732400
v -0.08787709 0.02248707 0.35732400
v 0.11632055 -0.02248711 0.35732400
v 0.11632055 -0.02248711 0.35732400
v 0.11632055 0.02248707 0.35732400
v 0.12637308 -0.02012694 0.31916809
v 0.12637308 0.01995209 0.31903696
v 0.11632055 0.06706789 0.35168582
v 0.12637308 0.05994370 0.31409806
v 0.11632055 0.11064348 0.34049689
v 0.12637308 0.09879896 0.30408925
v 0.11632055 0.15242705 0.32393211
v 0.12637308 0.13612446 0.28931641
v 0.11632055 0.19180676 0.30229729
v 0.12637308 0.17135206 0.26982319
v 0.11632055 0.22821447 0.27585470
v 0.12637308 0.20386985 0.24639642
v 0.11632055 0.26099446 0.24508524
v 0.12637308 0.23328444 0.21907973
v 0.11632055 0.28966603 0.21042585
v 0.12637308 0.25907138 0.18822282
v 0.11632055 0.31374845 0.17248845
v 0.12637308 0.28044394 0.15417534
v 0.11632055 0.33289197 0.13179749
v 0.12637308 0.29735842 0.11776766
v 0.11632055 0.34679070 0.08905238
v 0.12637308 0.30959627 0.07956803
v 0.11632055 0.35518238 0.04486492
v 0.12637308 0.31724498 0.04005718
v 0.11632055 0.35802331 -0.00002185
v 0.12637308 0.31973627 -0.00002185
v 0.11632055 0.35518238 -0.04486493
v 0.12637308 0.31724498 -0.04005719
v 0.11632055 0.34679070 -0.08905238
v 0.12637308 0.30959627 -0.07961172
v 0.11632055 0.33289197 -0.13179751
v 0.12637308 0.29735842 -0.11776766
v 0.11632055 0.31374845 -0.17248844
v 0.12637308 0.28044394 -0.15417534
v 0.11632055 0.28966603 -0.21042584
v 0.12637308 0.25907138 -0.18822284
v 0.11632055 0.26099446 -0.24508524
v 0.12637308 0.23332813 -0.21907977
v 0.11632055 0.22821447 -0.27585474
v 0.12637308 0.20386985 -0.24639644
v 0.11632055 0.19185051 -0.30229730
v 0.12637308 0.17135206 -0.26986692
v 0.11632055 0.15242705 -0.32393208
v 0.12637308 0.13612446 -0.28936011
v 0.11632055 0.11064348 -0.34049693
v 0.12637308 0.09879896 -0.30408928
v 0.11632055 0.06706789 -0.35168585
v 0.12637308 0.05994370 -0.31409809
v 0.11632055 0.02248707 -0.35732401
v 0.12637308 0.01995209 -0.31903696
v 0.11632055 -0.02248711 -0.35732401
v 0.12637308 -0.02012694 -0.31921178
v 0.11632055 -0.06706792 -0.35168585
v 0.12637308 -0.05998743 -0.31436032
v 0.11632055 -0.11064348 -0.34049693
v 0.12637308 -0.09897378 -0.30457005
v 0.11632055 -0.15242708 -0.32393208
v 0.12637308 -0.13625559 -0.28957865
v 0.11632055 -0.19180679 -0.30229730
v 0.12637308 -0.17135206 -0.27004177
v 0.11632055 -0.22821446 -0.27585474
v 0.12637308 -0.20365131 -0.24639644
v 0.11632055 -0.26099450 -0.24508524
v 0.12637308 -0.23310961 -0.21890493
v 0.11632055 -0.28966606 -0.21042584
v 0.12637308 -0.25867802 -0.18796060
v 0.11632055 -0.31374845 -0.17248844
v 0.12637308 -0.28018171 -0.15408792
v 0.11632055 -0.33289197 -0.13179751
v 0.12637308 -0.29722732 -0.11759284
v 0.11632055 -0.34679070 -0.08905238
v 0.12637308 -0.30977112 -0.07952431
v 0.11632055 -0.35518238 -0.04486493
v 0.12637308 -0.31750721 -0.04010088
v 0.11632055 -0.35802332 -0.00002185
v 0.12637308 -0.32026073 -0.00002185
v 0.11632055 -0.35518238 0.04486492
v 0.12637308 -0.31750721 0.04010087
v 0.11632055 -0.34679070 0.08900866
v 0.12637308 -0.30977112 0.07952431
v 0.11632055 -0.33289197 0.13179749
v 0.12637308 -0.29722732 0.11754912
v 0.11632055 -0.31374845 0.17244470
v 0.12637308 -0.28022543 0.15404421
v 0.11632055 -0.28966606 0.21042585
v 0.12637308 -0.25867802 0.18791687
v 0.11632055 -0.26099450 0.24508524
v 0.12637308 -0.23310961 0.21886122
v 0.11632055 -0.22821446 0.27585470
v 0.12637308 -0.20369502 0.24635273
v 0.11632055 -0.19185050 0.30225354
v 0.12637308 -0.17135206 0.27004176
v 0.11632055 -0.15242708 0.32393211
v 0.12637308 -0.13625559 0.28957861
v 0.11632055 -0.11064348 0.34049689
v 0.12637308 -0.09897378 0.30457002
v 0.11632055 -0.06706792 0.35168582
v 0.12637308 -0.05998743 0.31436032
v 0.12868954 -0.05286324 0.27707851
v 0.12868954 -0.01772308 0.28105580
v 0.12868954 0.01746082 0.28070616
v 0.12868954 0.05277580 0.27651035
v 0.12868954 0.08695444 0.26768160
v 0.12868954 0.11982188 0.25474441
v 0.12868954 0.15089729 0.23739284
v 0.12868954 0.17956892 0.21693813
v 0.12868954 0.20561811 0.19307428
v 0.12873324 0.22852036 0.16601985
v 0.12868954 0.24718317 0.13590592
v 0.12868954 0.26182487 0.10373780
v 0.12868954 0.27240190 0.07012736
v 0.12868954 0.27930757 0.03524944
v 0.12868954 0.28144917 -0.00002185
v 0.12868954 0.27930757 -0.03524944
v 0.12868954 0.27240190 -0.07017109
v 0.12868954 0.26182487 -0.10373783
v 0.12868954 0.24718317 -0.13590594
v 0.12873324 0.22852036 -0.16601985
v 0.12868954 0.20561811 -0.19311799
v 0.12868954 0.17956892 -0.21698185
v 0.12868954 0.15089729 -0.23739288
v 0.12868954 0.11982188 -0.25474441
v 0.12868954 0.08695444 -0.26768160
v 0.12868954 0.05277580 -0.27651033
v 0.12868954 0.01746082 -0.28074989
v 0.12868954 -0.01772308 -0.28109953
v 0.12868954 -0.05286324 -0.27707854
v 0.12873324 -0.08730412 -0.26864314
v 0.12868954 -0.12008412 -0.25522518
v 0.12868954 -0.15085364 -0.23782993
v 0.12868954 -0.17913185 -0.21685072
v 0.12868954 -0.20522475 -0.19268093
v 0.12868954 -0.22768998 -0.16545166
v 0.12868954 -0.24665868 -0.13564371
v 0.12868954 -0.26160637 -0.10334447
v 0.12868954 -0.27279529 -0.06999627
v 0.12868954 -0.27987576 -0.03533686
v 0.12873324 -0.28245446 -0.00002185
v 0.12868954 -0.27987576 0.03533685
v 0.12868954 -0.27279529 0.06999623
v 0.12868954 -0.26160637 0.10334444
v 0.12868954 -0.24665868 0.13564369
v 0.12868954 -0.22768998 0.16545164
v 0.12868954 -0.20522475 0.19268089
v 0.12868954 -0.17913185 0.21685069
v 0.12868954 -0.15085364 0.23782992
v 0.12868954 -0.12008412 0.25522518
v 0.12873324 -0.08730412 0.26864314
v 0.12873324 -0.08730412 0.26864314
v 0.12868954 -0.05286324 0.27707851
v 0.12637308 -0.05998743 0.31436032
v 0.12637308 -0.02012694 0.31916809
v 0.12868954 -0.01772308 0.28105580
v 0.12868954 0.01746082 0.28070616
v 0.12637308 0.01995209 0.31903696
v 0.12868954 0.05277580 0.27651035
v 0.12637308 0.05994370 0.31409806
v 0.12868954 0.08695444 0.26768160
v 0.12637308 0.09879896 0.30408925
v 0.12868954 0.11982188 0.25474441
v 0.12637308 0.13612446 0.28931641
v 0.12637308 0.17135206 0.26982319
v 0.12868954 0.15089729 0.23739284
v 0.12868954 0.17956892 0.21693813
v 0.12637308 0.20386985 0.24639642
v 0.12868954 0.20561811 0.19307428
v 0.12637308 0.23328444 0.21907973
v 0.12873324 0.22852036 0.16601985
v 0.12637308 0.25907138 0.18822282
v 0.12637308 0.28044394 0.15417534
v 0.12868954 0.24718317 0.13590592
v 0.12637308 0.29735842 0.11776766
v 0.12868954 0.26182487 0.10373780
v 0.12868954 0.27240190 0.07012736
v 0.12637308 0.30959627 0.07956803
v 0.12868954 0.27930757 0.03524944
v 0.12637308 0.31724498 0.04005718
v 0.12868954 0.28144917 -0.00002185
v 0.12637308 0.31973627 -0.00002185
v 0.12868954 0.27930757 -0.03524944
v 0.12637308 0.31724498 -0.04005719
v 0.12637308 0.30959627 -0.07961172
v 0.12868954 0.27240190 -0.07017109
v 0.12868954 0.26182487 -0.10373783
v 0.12637308 0.29735842 -0.11776766
v 0.12868954 0.24718317 -0.13590594
v 0.12637308 0.28044394 -0.15417534
v 0.12873324 0.22852036 -0.16601985
v 0.12637308 0.25907138 -0.18822284
v 0.12637308 0.23332813 -0.21907977
v 0.12868954 0.20561811 -0.19311799
v 0.12637308 0.20386985 -0.24639644
v 0.12868954 0.17956892 -0.21698185
v 0.12868954 0.15089729 -0.23739288
v 0.12637308 0.17135206 -0.26986692
v 0.12868954 0.11982188 -0.25474441
v 0.12637308 0.13612446 -0.28936011
v 0.12868954 0.08695444 -0.26768160
v 0.12637308 0.09879896 -0.30408928
v 0.12868954 0.05277580 -0.27651033
v 0.12637308 0.05994370 -0.31409809
v 0.12637308 0.01995209 -0.31903696
v 0.12868954 0.01746082 -0.28074989
v 0.12868954 -0.01772308 -0.28109953
v 0.12637308 -0.02012694 -0.31921178
v 0.12868954 -0.05286324 -0.27707854
v 0.12637308 -0.05998743 -0.31436032
v 0.12873324 -0.08730412 -0.26864314
v 0.12637308 -0.09897378 -0.30457005
v 0.12637308 -0.13625559 -0.28957865
v 0.12868954 -0.12008412 -0.25522518
v 0.12637308 -0.17135206 -0.27004177
v 0.12868954 -0.15085364 -0.23782993
v 0.12868954 -0.17913185 -0.21685072
v 0.12637308 -0.20365131 -0.24639644
v 0.12868954 -0.20522475 -0.19268093
v 0.12637308 -0.23310961 -0.21890493
v 0.12868954 -0.22768998 -0.16545166
v 0.12637308 -0.25867802 -0.18796060
v 0.12868954 -0.24665868 -0.13564371
v 0.12637308 -0.28018171 -0.15408792
v 0.12637308 -0.29722732 -0.11759284
v 0.12868954 -0.26160637 -0.10334447
v 0.12868954 -0.27279529 -0.06999627
v 0.12637308 -0.30977112 -0.07952431
v 0.12868954 -0.27987576 -0.03533686
v 0.12637308 -0.31750721 -0.04010088
v 0.12873324 -0.28245446 -0.00002185
v 0.12637308 -0.32026073 -0.00002185
v 0.12637308 -0.31750721 0.04010087
v 0.12868954 -0.27987576 0.03533685
v 0.12637308 -0.30977112 0.07952431
v 0.12868954 -0.27279529 0.06999623
v 0.12868954 -0.26160637 0.10334444
v 0.12637308 -0.29722732 0.11754912
v 0.12868954 -0.24665868 0.13564369
v 0.12637308 -0.28022543 0.15404421
v 0.12868954 -0.22768998 0.16545164
v 0.12637308 -0.25867802 0.18791687
v 0.12868954 -0.20522475 0.19268089
v 0.12637308 -0.23310961 0.21886122
v 0.12637308 -0.20369502 0.24635273
v 0.12868954 -0.17913185 0.21685069
v 0.12868954 -0.15085364 0.23782992
v 0.12637308 -0.17135206 0.27004176
v 0.12868954 -0.12008412 0.25522518
v 0.12637308 -0.13625559 0.28957861
v 0.12637308 -0.09897378 0.30457002
v 0.11632055 -0.06706792 0.35168582
v 0.11632055 -0.02248711 0.35732400
v 0.11632055 0.02248707 0.35732400
v 0.11632055 0.06706789 0.35168582
v 0.11632055 0.11064348 0.34049689
v 0.11632055 0.15242705 0.32393211
v 0.11632055 0.19180676 0.30229729
v 0.11632055 0.22821447 0.27585470
v 0.11632055 0.26099446 0.24508524
v 0.11632055 0.28966603 0.21042585
v 0.11632055 0.31374845 0.17248845
v 0.11632055 0.33289197 0.13179749
v 0.11632055 0.34679070 0.08905238
v 0.11632055 0.35518238 0.04486492
v 0.11632055 0.35802331 -0.00002185
v 0.11632055 0.35518238 -0.04486493
v 0.11632055 0.34679070 -0.08905238
v 0.11632055 0.33289197 -0.13179751
v 0.11632055 0.31374845 -0.17248844
v 0.11632055 0.28966603 -0.21042584
v 0.11632055 0.26099446 -0.24508524
v 0.11632055 0.22821447 -0.27585474
v 0.11632055 0.19185051 -0.30229730
v 0.11632055 0.15242705 -0.32393208
v 0.11632055 0.11064348 -0.34049693
v 0.11632055 0.06706789 -0.35168585
v 0.11632055 0.02248707 -0.35732401
v 0.11632055 -0.02248711 -0.35732401
v 0.11632055 -0.06706792 -0.35168585
v 0.11632055 -0.11064348 -0.34049693
v 0.11632055 -0.15242708 -0.32393208
v 0.11632055 -0.19180679 -0.30229730
v 0.11632055 -0.22821446 -0.27585474
v 0.11632055 -0.26099450 -0.24508524
v 0.11632055 -0.28966606 -0.21042584
v 0.11632055 -0.31374845 -0.17248844
v 0.11632055 -0.33289197 -0.13179751
v 0.11632055 -0.34679070 -0.08905238
v 0.11632055 -0.35518238 -0.04486493
v 0.11632055 -0.35802332 -0.00002185
v 0.11632055 -0.35518238 0.04486492
v 0.11632055 -0.34679070 0.08900866
v 0.11632055 -0.33289197 0.13179749
v 0.11632055 -0.31374845 0.17244470
v 0.11632055 -0.28966606 0.21042585
v 0.11632055 -0.26099450 0.24508524
v 0.11632055 -0.22821446 0.27585470
v 0.11632055 -0.19185050 0.30225354
v 0.11632055 -0.15242708 0.32393211
v 0.11632055 -0.11064348 0.34049689
vt 0.00000000 0.00000000
vt 0.00000000 0.00000000
vt 0.00000000 0.00000000
vt 0.00000000 0.00000000
vt 0.00000000 0.00000000
vt 0.00000000 0.00000000
vt 0.00000000 0.00000000
vt 0.00000000 0.00000000
vt 0.00000000 0.00000000
vt 0.00000000 0.00000000
vt 0.00000000 0.00000000
vt 0.00000000 0.00000000
vt 0.00000000 0.00000000
vt 0.00000000 0.00000000
vt 0.00000000 0.00000000
vt 0.00000000 0.00000000
vt 0.00000000 0.00000000
vt 0.00000000 0.00000000
vt 0.00000000 0.00000000
vt 0.00000000 0.00000000
vt 0.00000000 0.00000000
vt 0.00000000 0.00000000
vt 0.00000000 0.00000000
vt 0.00000000 0.00000000
vt 0.00000000 0.00000000
vt 0.00000000 0.00000000
vt 0.00000000 0.00000000
vt 0.00000000 0.00000000
vt 0.00000000 0.00000000
vt 0.00000000 0.00000000
vt 0.00000000 0.00000000
vt 0.00000000 0.00000000
vt 0.00000000 0.00000000
vt 0.00000000 0.00000000
vt 0.00000000 0.00000000
vt 0.00000000 0.00000000
vt 0.00000000 0.00000000
vt 0.00000000 0.00000000
vt 0.00000000 0.00000000
vt 0.00000000 0.00000000
vt 0.00000000 0.00000000
vt 0.00000000 0.00000000
vt 0.00000000 0.00000000
vt 0.00000000 0.00000000
vt 0.00000000 0.00000000
vt 0.00000000 0.00000000
vt 0.00000000 0.00000000
vt 0.00000000 0.00000000
vt 0.00000000 0.00000000
vt 0.00000000 0.00000000
vt 0.00000000 0.00000000
vt 0.00000000 0.00000000
vt 0.00000000 0.00000000
vt 0.00000000 0.00000000
vt 0.00000000 0.00000000
vt 0.00000000 0.00000000
vt 0.00000000 0.00000000
vt 0.00000000 0.00000000
vt 0.00000000 0.00000000
vt 0.00000000 0.00000000
vt 0.00000000 0.00000000
vt 0.00000000 0.00000000
vt 0.00000000 0.00000000
vt 0.00000000 0.00000000
vt 0.00000000 0.00000000
vt 0.00000000 0.00000000
vt 0.00000000 0.00000000
vt 0.00000000 0.00000000
vt 0.00000000 0.00000000
vt 0.00000000 0.00000000
vt 0.00000000 0.00000000
vt 0.00000000 0.00000000
vt 0.00000000 0.00000000
vt 0.00000000 0.00000000
vt 0.00000000 0.00000000
vt 0.00000000 0.00000000
vt 0.00000000 0.00000000
vt 0.00000000 0.00000000
vt 0.00000000 0.00000000
vt 0.00000000 0.00000000
vt 0.00000000 0.00000000
vt 0.00000000 0.00000000
vt 0.00000000 0.00000000
vt 0.00000000 0.00000000
vt 0.00000000 0.00000000
vt 0.00000000 0.00000000
vt 0.00000000 0.00000000
vt 0.00000000 0.00000000
vt 0.00000000 0.00000000
vt 0.00000000 0.00000000
vt 0.00000000 0.00000000
vt 0.00000000 0.00000000
vt 0.00000000 0.00000000
vt 0.00000000 0.00000000
vt 0.00000000 0.00000000
vt 0.00000000 0.00000000
vt 0.00000000 0.00000000
vt 0.00000000 0.00000000
vt 0.00000000 0.00000000
vt 0.00000000 0.00000000
vt 0.00000000 0.00000000
vt 0.00000000 0.00000000
vt 0.00000000 0.00000000
vt 0.00000000 0.00000000
vt 0.00000000 0.00000000
vt 0.00000000 0.00000000
vt 0.00000000 0.00000000
vt 0.00000000 0.00000000
vt 0.00000000 0.00000000
vt 0.00000000 0.00000000
vt 0.00000000 0.00000000
vt 0.00000000 0.00000000
vt 0.00000000 0.00000000
vt 0.00000000 0.00000000
vt 0.00000000 0.00000000
vt 0.00000000 0.00000000
vt 0.00000000 0.00000000
vt 0.00000000 0.00000000
vt 0.00000000 0.00000000
vt 0.00000000 0.00000000
vt 0.00000000 0.00000000
vt 0.00000000 0.00000000
vt 0.00000000 0.00000000
vt 0.00000000 0.00000000
vt 0.00000000 0.00000000
vt 0.00000000 0.00000000
vt 0.00000000 0.00000000
vt 0.00000000 0.00000000
vt 0.00000000 0.00000000
vt 0.00000000 0.00000000
vt 0.00000000 0.00000000
vt 0.00000000 0.00000000
vt 0.00000000 0.00000000
vt 0.00000000 0.00000000
vt 0.00000000 0.00000000
vt 0.00000000 0.00000000
vt 0.00000000 0.00000000
vt 0.00000000 0.00000000
vt 0.00000000 0.00000000
vt 0.00000000 0.00000000
vt 0.00000000 0.00000000
vt 0.00000000 0.00000000
vt 0.00000000 0.00000000
vt 0.00000000 0.00000000
vt 0.00000000 0.00000000
vt 0.00000000 0.00000000
vt 0.00000000 0.00000000
vt 0.00000000 0.00000000
vt 0.00000000 0.00000000
vt 0.00000000 0.00000000
vt 0.00000000 0.00000000
vt 0.00000000 0.00000000
vt 0.00000000 0.00000000
vt 0.00000000 0.00000000
vt 0.00000000 0.00000000
vt 0.00000000 0.00000000
vt 0.00000000 0.00000000
vt 0.00000000 0.00000000
vt 0.00000000 0.00000000
vt 0.00000000 0.00000000
vt 0.00000000 0.00000000
vt 0.00000000 0.00000000
vt 0.00000000 0.00000000
vt 0.00000000 0.00000000
vt 0.00000000 0.00000000
vt 0.00000000 0.00000000
vt 0.00000000 0.00000000
vt 0.00000000 0.00000000
vt 0.00000000 0.00000000
vt 0.00000000 0.00000000
vt 0.00000000 0.00000000
vt 0.00000000 0.00000000
vt 0.00000000 0.00000000
vt 0.00000000 0.00000000
vt 0.00000000 0.00000000
vt 0.00000000 0.00000000
vt 0.00000000 0.00000000
vt 0.00000000 0.00000000
vt 0.00000000 0.00000000
vt 0.00000000 0.00000000
vt 0.00000000 0.00000000
vt 0.00000000 0.00000000
vt 0.00000000 0.00000000
vt 0.00000000 0.00000000
vt 0.00000000 0.00000000
vt 0.00000000 0.00000000
vt 0.00000000 0.00000000
vt 0.00000000 0.00000000
vt 0.00000000 0.00000000
vt 0.00000000 0.00000000
vt 0.00000000 0.00000000
vt 0.00000000 0.00000000
vt 0.00000000 0.00000000
vt 0.00000000 0.00000000
vt 0.00000000 0.00000000
vt 0.00000000 0.00000000
vt 0.00000000 0.00000000
vt 0.00000000 0.00000000
vt 0.00000000 0.00000000
vt 0.00000000 0.00000000
vt 0.00000000 0.00000000
vt 0.00000000 0.00000000
vt 0.00000000 0.00000000
vt 0.00000000 0.00000000
vt 0.00000000 0.00000000
vt 0.00000000 0.00000000
vt 0.00000000 0.00000000
vt 0.00000000 0.00000000
vt 0.00000000 0.00000000
vt 0.00000000 0.00000000
vt 0.00000000 0.00000000
vt 0.00000000 0.00000000
vt 0.00000000 0.00000000
vt 0.00000000 0.00000000
vt 0.00000000 0.00000000
vt 0.00000000 0.00000000
vt 0.00000000 0.00000000
vt 0.00000000 0.00000000
vt 0.00000000 0.00000000
vt 0.00000000 0.00000000
vt 0.00000000 0.00000000
vt 0.00000000 0.00000000
vt 0.00000000 0.00000000
vt 0.00000000 0.00000000
vt 0.00000000 0.00000000
vt 0.00000000 0.00000000
vt 0.00000000 0.00000000
vt 0.00000000 0.00000000
vt 0.00000000 0.00000000
vt 0.00000000 0.00000000
vt 0.00000000 0.00000000
vt 0.00000000 0.00000000
vt 0.00000000 0.00000000
vt 0.00000000 0.00000000
vt 0.00000000 0.00000000
vt 0.00000000 0.00000000
vt 0.00000000 0.00000000
vt 0.00000000 0.00000000
vt 0.00000000 0.00000000
vt 0.00000000 0.00000000
vt 0.00000000 0.00000000
vt 0.00000000 0.00000000
vt 0.00000000 0.00000000
vt 0.00000000 0.00000000
vt 0.00000000 0.00000000
vt 0.00000000 0.00000000
vt 0.00000000 0.00000000
vt 0.00000000 0.00000000
vt 0.00000000 0.00000000
vt 0.00000000 0.00000000
vt 0.00000000 0.00000000
vt 0.00000000 0.00000000
vt 0.00000000 0.00000000
vt 0.00000000 0.00000000
vt 0.00000000 0.00000000
vt 0.00000000 0.00000000
vt 0.00000000 0.00000000
vt 0.00000000 0.00000000
vt 0.00000000 0.00000000
vt 0.00000000 0.00000000
vt 0.00000000 0.00000000
vt 0.00000000 0.00000000
vt 0.00000000 0.00000000
vt 0.00000000 0.00000000
vt 0.00000000 0.00000000
vt 0.00000000 0.00000000
vt 0.00000000 0.00000000
vt 0.00000000 0.00000000
vt 0.00000000 0.00000000
vt 0.00000000 0.00000000
vt 0.00000000 0.00000000
vt 0.00000000 0.00000000
vt 0.00000000 0.00000000
vt 0.00000000 0.00000000
vt 0.00000000 0.00000000
vt 0.00000000 0.00000000
vt 0.00000000 0.00000000
vt 0.00000000 0.00000000
vt 0.00000000 0.00000000
vt 0.00000000 0.00000000
vt 0.00000000 0.00000000
vt 0.00000000 0.00000000
vt 0.00000000 0.00000000
vt 0.00000000 0.00000000
vt 0.00000000 0.00000000
vt 0.00000000 0.00000000
vt 0.00000000 0.00000000
vt 0.00000000 0.00000000
vt 0.00000000 0.00000000
vt 0.00000000 0.00000000
vt 0.00000000 0.00000000
vt 0.00000000 0.00000000
vt 0.00000000 0.00000000
vt 0.00000000 0.00000000
vt 0.00000000 0.00000000
vt 0.00000000 0.00000000
vt 0.00000000 0.00000000
vt 0.00000000 0.00000000
vt 0.00000000 0.00000000
vt 0.00000000 0.00000000
vt 0.00000000 0.00000000
vt 0.00000000 0.00000000
vt 0.00000000 0.00000000
vt 0.00000000 0.00000000
vt 0.00000000 0.00000000
vt 0.00000000 0.00000000
vt 0.00000000 0.00000000
vt 0.00000000 0.00000000
vt 0.00000000 0.00000000
vt 0.00000000 0.00000000
vt 0.00000000 0.00000000
vt 0.00000000 0.00000000
vt 0.00000000 0.00000000
vt 0.00000000 0.00000000
vt 0.00000000 0.00000000
vt 0.00000000 0.00000000
vt 0.00000000 0.00000000
vt 0.00000000 0.00000000
vt 0.00000000 0.00000000
vt 0.00000000 0.00000000
vt 0.00000000 0.00000000
vt 0.00000000 0.00000000
vt 0.00000000 0.00000000
vt 0.00000000 0.00000000
vt 0.00000000 0.00000000
vt 0.00000000 0.00000000
vt 0.00000000 0.00000000
vt 0.00000000 0.00000000
vt 0.00000000 0.00000000
vt 0.00000000 0.00000000
vt 0.00000000 0.00000000
vt 0.00000000 0.00000000
vt 0.00000000 0.00000000
vt 0.00000000 0.00000000
vt 0.00000000 0.00000000
vt 0.00000000 0.00000000
vt 0.00000000 0.00000000
vt 0.00000000 0.00000000
vt 0.00000000 0.00000000
vt 0.00000000 0.00000000
vt 0.00000000 0.00000000
vt 0.00000000 0.00000000
vt 0.00000000 0.00000000
vt 0.00000000 0.00000000
vt 0.00000000 0.00000000
vt 0.00000000 0.00000000
vt 0.00000000 0.00000000
vt 0.00000000 0.00000000
vt 0.00000000 0.00000000
vt 0.00000000 0.00000000
vt 0.00000000 0.00000000
vt 0.00000000 0.00000000
vt 0.00000000 0.00000000
vt 0.00000000 0.00000000
vt 0.00000000 0.00000000
vt 0.00000000 0.00000000
vt 0.00000000 0.00000000
vt 0.00000000 0.00000000
vt 0.00000000 0.00000000
vt 0.00000000 0.00000000
vt 0.00000000 0.00000000
vt 0.00000000 0.00000000
vt 0.00000000 0.00000000
vt 0.00000000 0.00000000
vt 0.00000000 0.00000000
vt 0.00000000 0.00000000
vt 0.00000000 0.00000000
vt 0.00000000 0.00000000
vt 0.00000000 0.00000000
vt 0.00000000 0.00000000
vt 0.00000000 0.00000000
vt 0.00000000 0.00000000
vt 0.00000000 0.00000000
vt 0.00000000 0.00000000
vt 0.00000000 0.00000000
vt 0.00000000 0.00000000
vt 0.00000000 0.00000000
vt 0.00000000 0.00000000
vt 0.00000000 0.00000000
vt 0.00000000 0.00000000
vt 0.00000000 0.00000000
vt 0.00000000 0.00000000
vt 0.00000000 0.00000000
vt 0.00000000 0.00000000
vt 0.00000000 0.00000000
vt 0.00000000 0.00000000
vt 0.00000000 0.00000000
vt 0.00000000 0.00000000
vt 0.00000000 0.00000000
vt 0.00000000 0.00000000
vt 0.00000000 0.00000000
vt 0.00000000 0.00000000
vt 0.00000000 0.00000000
vt 0.00000000 0.00000000
vt 0.00000000 0.00000000
vt 0.00000000 0.00000000
vt 0.00000000 0.00000000
vt 0.00000000 0.00000000
vt 0.00000000 0.00000000
vt 0.00000000 0.00000000
vt 0.00000000 0.00000000
vt 0.00000000 0.00000000
vt 0.00000000 0.00000000
vt 0.00000000 0.00000000
vt 0.00000000 0.00000000
vt 0.00000000 0.00000000
vt 0.00000000 0.00000000
vt 0.00000000 0.00000000
vt 0.00000000 0.00000000
vt 0.00000000 0.00000000
vt 0.00000000 0.00000000
vt 0.00000000 0.00000000
vt 0.00000000 0.00000000
vt 0.00000000 0.00000000
vt 0.00000000 0.00000000
vt 0.00000000 0.00000000
vt 0.00000000 0.00000000
vt 0.00000000 0.00000000
vt 0.00000000 0.00000000
vt 0.00000000 0.00000000
vt 0.00000000 0.00000000
vt 0.00000000 0.00000000
vt 0.00000000 0.00000000
vt 0.00000000 0.00000000
vt 0.00000000 0.00000000
vt 0.00000000 0.00000000
vt 0.00000000 0.00000000
vt 0.00000000 0.00000000
vt 0.00000000 0.00000000
vt 0.00000000 0.00000000
vt 0.00000000 0.00000000
vt 0.00000000 0.00000000
vt 0.00000000 0.00000000
vt 0.00000000 0.00000000
vt 0.00000000 0.00000000
vt 0.00000000 0.00000000
vt 0.00000000 0.00000000
vt 0.00000000 0.00000000
vt 0.00000000 0.00000000
vt 0.00000000 0.00000000
vt 0.00000000 0.00000000
vt 0.00000000 0.00000000
vt 0.00000000 0.00000000
vt 0.00000000 0.00000000
vt 0.00000000 0.00000000
vt 0.00000000 0.00000000
vt 0.00000000 0.00000000
vt 0.00000000 0.00000000
vt 0.00000000 0.00000000
vt 0.00000000 0.00000000
vt 0.00000000 0.00000000
vt 0.00000000 0.00000000
vt 0.00000000 0.00000000
vt 0.00000000 0.00000000
vt 0.00000000 0.00000000
vt 0.00000000 0.00000000
vt 0.00000000 0.00000000
vt 0.00000000 0.00000000
vt 0.00000000 0.00000000
vt 0.00000000 0.00000000
vt 0.00000000 0.00000000
vt 0.00000000 0.00000000
vt 0.00000000 0.00000000
vt 0.00000000 0.00000000
vt 0.00000000 0.00000000
vt 0.00000000 0.00000000
vt 0.00000000 0.00000000
vt 0.00000000 0.00000000
vt 0.00000000 0.00000000
vt 0.00000000 0.00000000
vt 0.00000000 0.00000000
vt 0.00000000 0.00000000
vt 0.00000000 0.00000000
vt 0.00000000 0.00000000
vt 0.00000000 0.00000000
vt 0.00000000 0.00000000
vt 0.00000000 0.00000000
vt 0.00000000 0.00000000
vt 0.00000000 0.00000000
vt 0.00000000 0.00000000
vt 0.00000000 0.00000000
vt 0.00000000 0.00000000
vt 0.00000000 0.00000000
vt 0.00000000 0.00000000
vt 0.00000000 0.00000000
vt 0.00000000 0.00000000
vt 0.00000000 0.00000000
vt 0.00000000 0.00000000
vt 0.00000000 0.00000000
vt 0.00000000 0.00000000
vt 0.00000000 0.00000000
vt 0.00000000 0.00000000
vt 0.00000000 0.00000000
vt 0.00000000 0.00000000
vt 0.00000000 0.00000000
vt 0.00000000 0.00000000
vt 0.00000000 0.00000000
vt 0.00000000 0.00000000
vt 0.00000000 0.00000000
vt 0.00000000 0.00000000
vt 0.00000000 0.00000000
vt 0.00000000 0.00000000
vt 0.00000000 0.00000000
vt 0.00000000 0.00000000
vt 0.00000000 0.00000000
vt 0.00000000 0.00000000
vt 0.00000000 0.00000000
vt 0.00000000 0.00000000
vt 0.00000000 0.00000000
vt 0.00000000 0.00000000
vt 0.00000000 0.00000000
vt 0.00000000 0.00000000
vt 0.00000000 0.00000000
vt 0.00000000 0.00000000
vt 0.00000000 0.00000000
vt 0.00000000 0.00000000
vt 0.00000000 0.00000000
vt 0.00000000 0.00000000
vt 0.00000000 0.00000000
vt 0.00000000 0.00000000
vt 0.00000000 0.00000000
vt 0.00000000 0.00000000
vt 0.00000000 0.00000000
vt 0.00000000 0.00000000
vt 0.00000000 0.00000000
vt 0.00000000 0.00000000
vt 0.00000000 0.00000000
vt 0.00000000 0.00000000
vt 0.00000000 0.00000000
vt 0.00000000 0.00000000
vt 0.00000000 0.00000000
vt 0.00000000 0.00000000
vt 0.00000000 0.00000000
vt 0.00000000 0.00000000
vt 0.00000000 0.00000000
vt 0.00000000 0.00000000
vt 0.00000000 0.00000000
vt 0.00000000 0.00000000
vt 0.00000000 0.00000000
vt 0.00000000 0.00000000
vt 0.00000000 0.00000000
vt 0.00000000 0.00000000
vt 0.00000000 0.00000000
vt 0.00000000 0.00000000
vt 0.00000000 0.00000000
vt 0.00000000 0.00000000
vt 0.00000000 0.00000000
vt 0.00000000 0.00000000
vt 0.00000000 0.00000000
vt 0.00000000 0.00000000
vt 0.00000000 0.00000000
vt 0.00000000 0.00000000
vt 0.00000000 0.00000000
vt 0.00000000 0.00000000
vt 0.00000000 0.00000000
vt 0.00000000 0.00000000
vt 0.00000000 0.00000000
vt 0.00000000 0.00000000
vt 0.00000000 0.00000000
vt 0.00000000 0.00000000
vt 0.00000000 0.00000000
vt 0.00000000 0.00000000
vt 0.00000000 0.00000000
vt 0.00000000 0.00000000
vt 0.00000000 0.00000000
vt 0.00000000 0.00000000
vt 0.00000000 0.00000000
vt 0.00000000 0.00000000
vt 0.00000000 0.00000000
vt 0.00000000 0.00000000
vt 0.00000000 0.00000000
vt 0.00000000 0.00000000
vt 0.00000000 0.00000000
vt 0.00000000 0.00000000
vt 0.00000000 0.00000000
vt 0.00000000 0.00000000
vt 0.00000000 0.00000000
vt 0.00000000 0.00000000
vt 0.00000000 0.00000000
vt 0.00000000 0.00000000
vt 0.00000000 0.00000000
vt 0.00000000 0.00000000
vt 0.00000000 0.00000000
vt 0.00000000 0.00000000
vt 0.00000000 0.00000000
vt 0.00000000 0.00000000
vt 0.00000000 0.00000000
vt 0.00000000 0.00000000
vt 0.00000000 0.00000000
vt 0.00000000 0.00000000
vt 0.00000000 0.00000000
vt 0.00000000 0.00000000
vt 0.00000000 0.00000000
vt 0.00000000 0.00000000
vt 0.00000000 0.00000000
vt 0.00000000 0.00000000
vt 0.00000000 0.00000000
vt 0.00000000 0.00000000
vt 0.00000000 0.00000000
vt 0.00000000 0.00000000
vt 0.00000000 0.00000000
vt 0.00000000 0.00000000
vt 0.00000000 0.00000000
vt 0.00000000 0.00000000
vt 0.00000000 0.00000000
vt 0.00000000 0.00000000
vt 0.00000000 0.00000000
vt 0.00000000 0.00000000
vt 0.00000000 0.00000000
vt 0.00000000 0.00000000
vt 0.00000000 0.00000000
vt 0.00000000 0.00000000
vt 0.00000000 0.00000000
vt 0.00000000 0.00000000
vt 0.00000000 0.00000000
vt 0.00000000 0.00000000
vt 0.00000000 0.00000000
vt 0.00000000 0.00000000
vt 0.00000000 0.00000000
vt 0.00000000 0.00000000
vt 0.00000000 0.00000000
vt 0.00000000 0.00000000
vt 0.00000000 0.00000000
vt 0.00000000 0.00000000
vt 0.00000000 0.00000000
vt 0.00000000 0.00000000
vt 0.00000000 0.00000000
vt 0.00000000 0.00000000
vt 0.00000000 0.00000000
vt 0.00000000 0.00000000
vt 0.00000000 0.00000000
vt 0.00000000 0.00000000
vt 0.00000000 0.00000000
vt 0.00000000 0.00000000
vt 0.00000000 0.00000000
vt 0.00000000 0.00000000
vt 0.00000000 0.00000000
vt 0.00000000 0.00000000
vt 0.00000000 0.00000000
vt 0.00000000 0.00000000
vt 0.00000000 0.00000000
vt 0.00000000 0.00000000
vt 0.00000000 0.00000000
vt 0.00000000 0.00000000
vt 0.00000000 0.00000000
vt 0.00000000 0.00000000
vt 0.00000000 0.00000000
vt 0.00000000 0.00000000
vt 0.00000000 0.00000000
vt 0.00000000 0.00000000
vt 0.00000000 0.00000000
vt 0.00000000 0.00000000
vt 0.00000000 0.00000000
vt 0.00000000 0.00000000
vt 0.00000000 0.00000000
vt 0.00000000 0.00000000
vt 0.00000000 0.00000000
vt 0.00000000 0.00000000
vt 0.00000000 0.00000000
vt 0.00000000 0.00000000
vt 0.00000000 0.00000000
vt 0.00000000 0.00000000
vt 0.00000000 0.00000000
vt 0.00000000 0.00000000
vt 0.00000000 0.00000000
vt 0.00000000 0.00000000
vt 0.00000000 0.00000000
vt 0.00000000 0.00000000
vt 0.00000000 0.00000000
vt 0.00000000 0.00000000
vt 0.00000000 0.00000000
vt 0.00000000 0.00000000
vt 0.00000000 0.00000000
vt 0.00000000 0.00000000
vt 0.00000000 0.00000000
vt 0.00000000 0.00000000
vt 0.00000000 0.00000000
vt 0.00000000 0.00000000
vt 0.00000000 0.00000000
vt 0.00000000 0.00000000
vt 0.00000000 0.00000000
vt 0.00000000 0.00000000
vt 0.00000000 0.00000000
vt 0.00000000 0.00000000
vt 0.00000000 0.00000000
vt 0.00000000 0.00000000
vt 0.00000000 0.00000000
vt 0.00000000 0.00000000
vt 0.00000000 0.00000000
vt 0.00000000 0.00000000
vt 0.00000000 0.00000000
vt 0.00000000 0.00000000
vt 0.00000000 0.00000000
vt 0.00000000 0.00000000
vt 0.00000000 0.00000000
vt 0.00000000 0.00000000
vt 0.00000000 0.00000000
vt 0.00000000 0.00000000
vt 0.00000000 0.00000000
vt 0.00000000 0.00000000
vt 0.00000000 0.00000000
vt 0.00000000 0.00000000
vt 0.00000000 0.00000000
vt 0.00000000 0.00000000
vt 0.00000000 0.00000000
vt 0.00000000 0.00000000
vt 0.00000000 0.00000000
vt 0.00000000 0.00000000
vt 0.00000000 0.00000000
vt 0.00000000 0.00000000
vt 0.00000000 0.00000000
vt 0.00000000 0.00000000
vt 0.00000000 0.00000000
vt 0.00000000 0.00000000
vt 0.00000000 0.00000000
vt 0.00000000 0.00000000
vt 0.00000000 0.00000000
vt 0.00000000 0.00000000
vt 0.00000000 0.00000000
vt 0.00000000 0.00000000
vt 0.00000000 0.00000000
vt 0.00000000 0.00000000
vt 0.00000000 0.00000000
vt 0.00000000 0.00000000
vt 0.00000000 0.00000000
vt 0.00000000 0.00000000
vt 0.00000000 0.00000000
vt 0.00000000 0.00000000
vt 0.00000000 0.00000000
vt 0.00000000 0.00000000
vt 0.00000000 0.00000000
vt 0.00000000 0.00000000
vt 0.00000000 0.00000000
vt 0.00000000 0.00000000
vt 0.00000000 0.00000000
vt 0.00000000 0.00000000
vt 0.00000000 0.00000000
vt 0.00000000 0.00000000
vt 0.00000000 0.00000000
vt 0.00000000 0.00000000
vt 0.00000000 0.00000000
vt 0.00000000 0.00000000
vt 0.00000000 0.00000000
vt 0.00000000 0.00000000
vt 0.00000000 0.00000000
vt 0.00000000 0.00000000
vt 0.00000000 0.00000000
vt 0.00000000 0.00000000
vt 0.00000000 0.00000000
vt 0.00000000 0.00000000
vt 0.00000000 0.00000000
vt 0.00000000 0.00000000
vt 0.00000000 0.00000000
vt 0.00000000 0.00000000
vt 0.00000000 0.00000000
vt 0.00000000 0.00000000
vt 0.00000000 0.00000000
vt 0.00000000 0.00000000
vt 0.00000000 0.00000000
vt 0.00000000 0.00000000
vt 0.00000000 0.00000000
vt 0.00000000 0.00000000
vt 0.00000000 0.00000000
vt 0.00000000 0.00000000
vt 0.00000000 0.00000000
vt 0.00000000 0.00000000
vt 0.00000000 0.00000000
vt 0.00000000 0.00000000
vt 0.00000000 0.00000000
vt 0.00000000 0.00000000
vt 0.00000000 0.00000000
vt 0.00000000 0.00000000
vt 0.00000000 0.00000000
vt 0.00000000 0.00000000
vt 0.00000000 0.00000000
vt 0.00000000 0.00000000
vt 0.00000000 0.00000000
vt 0.00000000 0.00000000
vt 0.00000000 0.00000000
vt 0.00000000 0.00000000
vt 0.00000000 0.00000000
vt 0.00000000 0.00000000
vt 0.00000000 0.00000000
vt 0.00000000 0.00000000
vt 0.00000000 0.00000000
vt 0.00000000 0.00000000
vt 0.00000000 0.00000000
vt 0.00000000 0.00000000
vt 0.00000000 0.00000000
vt 0.00000000 0.00000000
vt 0.00000000 0.00000000
vt 0.00000000 0.00000000
vt 0.00000000 0.00000000
vt 0.00000000 0.00000000
vt 0.00000000 0.00000000
vt 0.00000000 0.00000000
vt 0.00000000 0.00000000
vt 0.00000000 0.00000000
vt 0.00000000 0.00000000
vt 0.00000000 0.00000000
vt 0.00000000 0.00000000
vt 0.00000000 0.00000000
vt 0.00000000 0.00000000
vt 0.00000000 0.00000000
vt 0.00000000 0.00000000
vt 0.00000000 0.00000000
vt 0.00000000 0.00000000
vt 0.00000000 0.00000000
vt 0.00000000 0.00000000
vt 0.00000000 0.00000000
vt 0.00000000 0.00000000
vt 0.00000000 0.00000000
vt 0.00000000 0.00000000
vt 0.00000000 0.00000000
vt 0.00000000 0.00000000
vt 0.00000000 0.00000000
vt 0.00000000 0.00000000
vt 0.00000000 0.00000000
vt 0.00000000 0.00000000
vt 0.00000000 0.00000000
vt 0.00000000 0.00000000
vt 0.00000000 0.00000000
vt 0.00000000 0.00000000
vt 0.00000000 0.00000000
vt 0.00000000 0.00000000
vt 0.00000000 0.00000000
vt 0.00000000 0.00000000
vt 0.00000000 0.00000000
vt 0.00000000 0.00000000
vt 0.00000000 0.00000000
vt 0.00000000 0.00000000
vt 0.00000000 0.00000000
vt 0.00000000 0.00000000
vt 0.00000000 0.00000000
vt 0.00000000 0.00000000
vt 0.00000000 0.00000000
vt 0.00000000 0.00000000
vt 0.00000000 0.00000000
vt 0.00000000 0.00000000
vt 0.00000000 0.00000000
vt 0.00000000 0.00000000
vt 0.00000000 0.00000000
vt 0.00000000 0.00000000
vt 0.00000000 0.00000000
vt 0.00000000 0.00000000
vt 0.00000000 0.00000000
vt 0.00000000 0.00000000
vt 0.00000000 0.00000000
vt 0.00000000 0.00000000
vt 0.00000000 0.00000000
vt 0.00000000 0.00000000
vt 0.00000000 0.00000000
vt 0.00000000 0.00000000
vt 0.00000000 0.00000000
vt 0.00000000 0.00000000
vt 0.00000000 0.00000000
vt 0.00000000 0.00000000
vt 0.00000000 0.00000000
vt 0.00000000 0.00000000
vt 0.00000000 0.00000000
vt 0.00000000 0.00000000
vt 0.00000000 0.00000000
vt 0.00000000 0.00000000
vt 0.00000000 0.00000000
vt 0.00000000 0.00000000
vt 0.00000000 0.00000000
vt 0.00000000 0.00000000
vt 0.00000000 0.00000000
vt 0.00000000 0.00000000
vt 0.00000000 0.00000000
vt 0.00000000 0.00000000
vt 0.00000000 0.00000000
vt 0.00000000 0.00000000
vt 0.00000000 0.00000000
vt 0.00000000 0.00000000
vt 0.00000000 0.00000000
vt 0.00000000 0.00000000
vt 0.00000000 0.00000000
vt 0.00000000 0.00000000
vt 0.00000000 0.00000000
vt 0.00000000 0.00000000
vt 0.00000000 0.00000000
vt 0.00000000 0.00000000
vt 0.00000000 0.00000000
vt 0.00000000 0.00000000
vt 0.00000000 0.00000000
vt 0.00000000 0.00000000
vt 0.00000000 0.00000000
vt 0.00000000 0.00000000
vt 0.00000000 0.00000000
vt 0.00000000 0.00000000
vt 0.00000000 0.00000000
vt 0.00000000 0.00000000
vt 0.00000000 0.00000000
vt 0.00000000 0.00000000
vt 0.00000000 0.00000000
vt 0.00000000 0.00000000
vt 0.00000000 0.00000000
vt 0.00000000 0.00000000
vt 0.00000000 0.00000000
vt 0.00000000 0.00000000
vt 0.00000000 0.00000000
vt 0.00000000 0.00000000
vt 0.00000000 0.00000000
vt 0.00000000 0.00000000
vt 0.00000000 0.00000000
vt 0.00000000 0.00000000
vt 0.00000000 0.00000000
vt 0.00000000 0.00000000
vt 0.00000000 0.00000000
vt 0.00000000 0.00000000
vt 0.00000000 0.00000000
vt 0.00000000 0.00000000
vt 0.00000000 0.00000000
vt 0.00000000 0.00000000
vt 0.00000000 0.00000000
vt 0.00000000 0.00000000
vt 0.00000000 0.00000000
vt 0.00000000 0.00000000
vt 0.00000000 0.00000000
vt 0.00000000 0.00000000
vt 0.00000000 0.00000000
vt 0.00000000 0.00000000
vt 0.00000000 0.00000000
vt 0.00000000 0.00000000
vt 0.00000000 0.00000000
vt 0.00000000 0.00000000
vt 0.00000000 0.00000000
vt 0.00000000 0.00000000
vt 0.00000000 0.00000000
vt 0.00000000 0.00000000
vt 0.00000000 0.00000000
vt 0.00000000 0.00000000
vt 0.00000000 0.00000000
vt 0.00000000 0.00000000
vt 0.00000000 0.00000000
vt 0.00000000 0.00000000
vt 0.00000000 0.00000000
vt 0.00000000 0.00000000
vt 0.00000000 0.00000000
vt 0.00000000 0.00000000
vt 0.00000000 0.00000000
vt 0.00000000 0.00000000
vt 0.00000000 0.00000000
vt 0.00000000 0.00000000
vt 0.00000000 0.00000000
vt 0.00000000 0.00000000
vt 0.00000000 0.00000000
vt 0.00000000 0.00000000
vt 0.00000000 0.00000000
vt 0.00000000 0.00000000
vt 0.00000000 0.00000000
vt 0.00000000 0.00000000
vt 0.00000000 0.00000000
vt 0.00000000 0.00000000
vt 0.00000000 0.00000000
vt 0.00000000 0.00000000
vt 0.00000000 0.00000000
vt 0.00000000 0.00000000
vt 0.00000000 0.00000000
vt 0.00000000 0.00000000
vt 0.00000000 0.00000000
vt 0.00000000 0.00000000
vt 0.00000000 0.00000000
vt 0.00000000 0.00000000
vt 0.00000000 0.00000000
vt 0.00000000 0.00000000
vt 0.00000000 0.00000000
vt 0.00000000 0.00000000
vt 0.00000000 0.00000000
vt 0.00000000 0.00000000
vt 0.00000000 0.00000000
vt 0.00000000 0.00000000
vt 0.00000000 0.00000000
vt 0.00000000 0.00000000
vt 0.00000000 0.00000000
vt 0.00000000 0.00000000
vt 0.00000000 0.00000000
vt 0.00000000 0.00000000
vt 0.00000000 0.00000000
vt 0.00000000 0.00000000
vt 0.00000000 0.00000000
vt 0.00000000 0.00000000
vt 0.00000000 0.00000000
vt 0.00000000 0.00000000
vt 0.00000000 0.00000000
vt 0.00000000 0.00000000
vt 0.00000000 0.00000000
vt 0.00000000 0.00000000
vt 0.00000000 0.00000000
vt 0.00000000 0.00000000
vt 0.00000000 0.00000000
vt 0.00000000 0.00000000
vt 0.00000000 0.00000000
vt 0.00000000 0.00000000
vt 0.00000000 0.00000000
vt 0.00000000 0.00000000
vt 0.00000000 0.00000000
vt 0.00000000 0.00000000
vt 0.00000000 0.00000000
f 3/3 2/2 1/1
f 4/4 2/2 3/3
f 4/4 5/5 2/2
f 6/6 5/5 4/4
f 6/6 7/7 5/5
f 8/8 7/7 6/6
f 8/8 9/9 7/7
f 10/10 9/9 8/8
f 10/10 11/11 9/9
f 12/12 11/11 10/10
f 12/12 13/13 11/11
f 14/14 13/13 12/12
f 14/14 15/15 13/13
f 16/16 15/15 14/14
f 16/16 17/17 15/15
f 18/18 17/17 16/16
f 18/18 19/19 17/17
f 20/20 19/19 18/18
f 20/20 21/21 19/19
f 22/22 21/21 20/20
f 22/22 23/23 21/21
f 24/24 23/23 22/22
f 24/24 25/25 23/23
f 26/26 25/25 24/24
f 26/26 27/27 25/25
f 28/28 27/27 26/26
f 28/28 29/29 27/27
f 30/30 29/29 28/28
f 30/30 31/31 29/29
f 32/32 31/31 30/30
f 32/32 33/33 31/31
f 34/34 33/33 32/32
f 34/34 35/35 33/33
f 36/36 35/35 34/34
f 36/36 37/37 35/35
f 38/38 37/37 36/36
f 38/38 39/39 37/37
f 40/40 39/39 38/38
f 40/40 41/41 39/39
f 42/42 41/41 40/40
f 42/42 43/43 41/41
f 44/44 43/43 42/42
f 44/44 45/45 43/43
f 46/46 45/45 44/44
f 46/46 47/47 45/45
f 48/48 47/47 46/46
f 48/48 49/49 47/47
f 50/50 49/49 48/48
f 50/50 51/51 49/49
f 52/52 51/51 50/50
f 52/52 53/53 51/51
f 54/54 53/53 52/52
f 54/54 55/55 53/53
f 56/56 55/55 54/54
f 56/56 57/57 55/55
f 58/58 57/57 56/56
f 58/58 59/59 57/57
f 60/60 59/59 58/58
f 60/60 61/61 59/59
f 62/62 61/61 60/60
f 62/62 63/63 61/61
f 64/64 63/63 62/62
f 64/64 65/65 63/63
f 66/66 65/65 64/64
f 66/66 67/67 65/65
f 68/68 67/67 66/66
f 68/68 69/69 67/67
f 70/70 69/69 68/68
f 70/70 71/71 69/69
f 72/72 71/71 70/70
f 72/72 73/73 71/71
f 74/74 73/73 72/72
f 74/74 75/75 73/73
f 76/76 75/75 74/74
f 76/76 77/77 75/75
f 78/78 77/77 76/76
f 78/78 79/79 77/77
f 80/80 79/79 78/78
f 80/80 81/81 79/79
f 82/82 81/81 80/80
f 82/82 83/83 81/81
f 84/84 83/83 82/82
f 84/84 85/85 83/83
f 86/86 85/85 84/84
f 86/86 87/87 85/85
f 88/88 87/87 86/86
f 88/88 89/89 87/87
f 90/90 89/89 88/88
f 90/90 91/91 89/89
f 92/92 91/91 90/90
f 92/92 93/93 91/91
f 94/94 93/93 92/92
f 94/94 95/95 93/93
f 96/96 95/95 94/94
f 96/96 97/97 95/95
f 98/98 97/97 96/96
f 98/98 99/99 97/97
f 100/100 99/99 98/98
f 100/100 1/1 99/99
f 100/100 3/3 1/1
f 101/101 3/3 100/100
f 102/102 3/3 101/101
f 102/102 4/4 3/3
f 103/103 4/4 102/102
f 103/103 6/6 4/4
f 104/104 6/6 103/103
f 104/104 8/8 6/6
f 105/105 8/8 104/104
f 105/105 10/10 8/8
f 106/106 10/10 105/105
f 106/106 12/12 10/10
f 107/107 12/12 106/106
f 107/107 14/14 12/12
f 108/108 14/14 107/107
f 108/108 16/16 14/14
f 109/109 16/16 108/108
f 109/109 18/18 16/16
f 110/110 18/18 109/109
f 110/110 20/20 18/18
f 111/111 20/20 110/110
f 111/111 22/22 20/20
f 112/112 22/22 111/111
f 112/112 24/24 22/22
f 113/113 24/24 112/112
f 113/113 26/26 24/24
f 114/114 26/26 113/113
f 114/114 28/28 26/26
f 115/115 28/28 114/114
f 115/115 30/30 28/28
f 116/116 30/30 115/115
f 116/116 32/32 30/30
f 117/117 32/32 116/116
f 117/117 34/34 32/32
f 118/118 34/34 117/117
f 118/118 36/36 34/34
f 119/119 36/36 118/118
f 119/119 38/38 36/36
f 120/120 38/38 119/119
f 120/120 40/40 38/38
f 121/121 40/40 120/120
f 121/121 42/42 40/40
f 122/122 42/42 121/121
f 122/122 44/44 42/42
f 123/123 44/44 122/122
f 123/123 46/46 44/44
f 124/124 46/46 123/123
f 124/124 48/48 46/46
f 125/125 48/48 124/124
f 125/125 50/50 48/48
f 126/126 50/50 125/125
f 126/126 52/52 50/50
f 127/127 52/52 126/126
f 127/127 54/54 52/52
f 128/128 54/54 127/127
f 128/128 56/56 54/54
f 129/129 56/56 128/128
f 129/129 58/58 56/56
f 130/130 58/58 129/129
f 130/130 60/60 58/58
f 131/131 60/60 130/130
f 131/131 62/62 60/60
f 132/132 62/62 131/131
f 132/132 64/64 62/62
f 133/133 64/64 132/132
f 133/133 66/66 64/64
f 134/134 66/66 133/133
f 134/134 68/68 66/66
f 135/135 68/68 134/134
f 135/135 70/70 68/68
f 136/136 70/70 135/135
f 136/136 72/72 70/70
f 137/137 72/72 136/136
f 137/137 74/74 72/72
f 138/138 74/74 137/137
f 138/138 76/76 74/74
f 139/139 76/76 138/138
f 139/139 78/78 76/76
f 140/140 78/78 139/139
f 140/140 80/80 78/78
f 141/141 80/80 140/140
f 141/141 82/82 80/80
f 142/142 82/82 141/141
f 142/142 84/84 82/82
f 143/143 84/84 142/142
f 143/143 86/86 84/84
f 144/144 86/86 143/143
f 144/144 88/88 86/86
f 145/145 88/88 144/144
f 145/145 90/90 88/88
f 146/146 90/90 145/145
f 146/146 92/92 90/90
f 147/147 92/92 146/146
f 147/147 94/94 92/92
f 148/148 94/94 147/147
f 148/148 96/96 94/94
f 149/149 96/96 148/148
f 149/149 98/98 96/96
f 150/150 98/98 149/149
f 150/150 100/100 98/98
f 150/150 101/101 100/100
f 153/153 152/152 151/151
f 154/154 152/152 153/153
f 154/154 155/155 152/152
f 156/156 155/155 154/154
f 156/156 157/157 155/155
f 158/158 157/157 156/156
f 158/158 159/159 157/157
f 160/160 159/159 158/158
f 160/160 161/161 159/159
f 162/162 161/161 160/160
f 162/162 163/163 161/161
f 164/164 163/163 162/162
f 164/164 165/165 163/163
f 166/166 165/165 164/164
f 166/166 167/167 165/165
f 168/168 167/167 166/166
f 168/168 169/169 167/167
f 170/170 169/169 168/168
f 170/170 171/171 169/169
f 172/172 171/171 170/170
f 172/172 173/173 171/171
f 174/174 173/173 172/172
f 174/174 175/175 173/173
f 176/176 175/175 174/174
f 176/176 177/177 175/175
f 178/178 177/177 176/176
f 178/178 179/179 177/177
f 180/180 179/179 178/178
f 180/180 181/181 179/179
f 182/182 181/181 180/180
f 182/182 183/183 181/181
f 184/184 183/183 182/182
f 184/184 185/185 183/183
f 186/186 185/185 184/184
f 186/186 187/187 185/185
f 188/188 187/187 186/186
f 188/188 189/189 187/187
f 190/190 189/189 188/188
f 190/190 191/191 189/189
f 192/192 191/191 190/190
f 192/192 193/193 191/191
f 194/194 193/193 192/192
f 194/194 195/195 193/193
f 196/196 195/195 194/194
f 196/196 197/197 195/195
f 198/198 197/197 196/196
f 198/198 199/199 197/197
f 200/200 199/199 198/198
f 200/200 201/201 199/199
f 202/202 201/201 200/200
f 202/202 203/203 201/201
f 204/204 203/203 202/202
f 204/204 205/205 203/203
f 206/206 205/205 204/204
f 206/206 207/207 205/205
f 208/208 207/207 206/206
f 208/208 209/209 207/207
f 210/210 209/209 208/208
f 210/210 211/211 209/209
f 212/212 211/211 210/210
f 212/212 213/213 211/211
f 214/214 213/213 212/212
f 214/214 215/215 213/213
f 216/216 215/215 214/214
f 216/216 217/217 215/215
f 218/218 217/217 216/216
f 218/218 219/219 217/217
f 220/220 219/219 218/218
f 220/220 221/221 219/219
f 222/222 221/221 220/220
f 222/222 223/223 221/221
f 224/224 223/223 222/222
f 224/224 225/225 223/223
f 226/226 225/225 224/224
f 226/226 227/227 225/225
f 228/228 227/227 226/226
f 228/228 229/229 227/227
f 230/230 229/229 228/228
f 230/230 231/231 229/229
f 232/232 231/231 230/230
f 232/232 233/233 231/231
f 234/234 233/233 232/232
f 234/234 235/235 233/233
f 236/236 235/235 234/234
f 236/236 237/237 235/235
f 238/238 237/237 236/236
f 238/238 239/239 237/237
f 240/240 239/239 238/238
f 240/240 241/241 239/239
f 242/242 241/241 240/240
f 242/242 243/243 241/241
f 244/244 243/243 242/242
f 244/244 245/245 243/243
f 246/246 245/245 244/244
f 246/246 247/247 245/245
f 248/248 247/247 246/246
f 248/248 249/249 247/247
f 250/250 249/249 248/248
f 250/250 151/151 249/249
f 250/250 153/153 151/151
f 251/251 153/153 250/250
f 252/252 153/153 251/251
f 252/252 154/154 153/153
f 253/253 154/154 252/252
f 253/253 156/156 154/154
f 254/254 156/156 253/253
f 254/254 158/158 156/156
f 255/255 158/158 254/254
f 255/255 160/160 158/158
f 256/256 160/160 255/255
f 256/256 162/162 160/160
f 257/257 162/162 256/256
f 257/257 164/164 162/162
f 258/258 164/164 257/257
f 258/258 166/166 164/164
f 259/259 166/166 258/258
f 259/259 168/168 166/166
f 260/260 168/168 259/259
f 260/260 170/170 168/168
f 261/261 170/170 260/260
f 261/261 172/172 170/170
f 262/262 172/172 261/261
f 262/262 174/174 172/172
f 263/263 174/174 262/262
f 263/263 176/176 174/174
f 264/264 176/176 263/263
f 264/264 178/178 176/176
f 265/265 178/178 264/264
f 265/265 180/180 178/178
f 266/266 180/180 265/265
f 266/266 182/182 180/180
f 267/267 182/182 266/266
f 267/267 184/184 182/182
f 268/268 184/184 267/267
f 268/268 186/186 184/184
f 269/269 186/186 268/268
f 269/269 188/188 186/186
f 270/270 188/188 269/269
f 270/270 190/190 188/188
f 271/271 190/190 270/270
f 271/271 192/192 190/190
f 272/272 192/192 271/271
f 272/272 194/194 192/192
f 273/273 194/194 272/272
f 273/273 196/196 194/194
f 274/274 196/196 273/273
f 274/274 198/198 196/196
f 275/275 198/198 274/274
f 275/275 200/200 198/198
f 276/276 200/200 275/275
f 276/276 202/202 200/200
f 277/277 202/202 276/276
f 277/277 204/204 202/202
f 278/278 204/204 277/277
f 278/278 206/206 204/204
f 279/279 206/206 278/278
f 279/279 208/208 206/206
f 280/280 208/208 279/279
f 280/280 210/210 208/208
f 281/281 210/210 280/280
f 281/281 212/212 210/210
f 282/282 212/212 281/281
f 282/282 214/214 212/212
f 283/283 214/214 282/282
f 283/283 216/216 214/214
f 284/284 216/216 283/283
f 284/284 218/218 216/216
f 285/285 218/218 284/284
f 285/285 220/220 218/218
f 286/286 220/220 285/285
f 286/286 222/222 220/220
f 287/287 222/222 286/286
f 287/287 224/224 222/222
f 288/288 224/224 287/287
f 288/288 226/226 224/224
f 289/289 226/226 288/288
f 289/289 228/228 226/226
f 290/290 228/228 289/289
f 290/290 230/230 228/228
f 291/291 230/230 290/290
f 291/291 232/232 230/230
f 292/292 232/232 291/291
f 292/292 234/234 232/232
f 293/293 234/234 292/292
f 293/293 236/236 234/234
f 294/294 236/236 293/293
f 294/294 238/238 236/236
f 295/295 238/238 294/294
f 295/295 240/240 238/238
f 296/296 240/240 295/295
f 296/296 242/242 240/240
f 297/297 242/242 296/296
f 297/297 244/244 242/242
f 298/298 244/244 297/297
f 298/298 246/246 244/244
f 299/299 246/246 298/298
f 299/299 248/248 246/246
f 300/300 248/248 299/299
f 300/300 250/250 248/248
f 300/300 251/251 250/250
f 303/303 302/302 301/301
f 304/304 302/302 303/303
f 304/304 305/305 302/302
f 306/306 305/305 304/304
f 306/306 307/307 305/305
f 308/308 307/307 306/306
f 308/308 309/309 307/307
f 310/310 309/309 308/308
f 310/310 311/311 309/309
f 312/312 311/311 310/310
f 312/312 313/313 311/311
f 314/314 313/313 312/312
f 314/314 315/315 313/313
f 316/316 315/315 314/314
f 316/316 317/317 315/315
f 318/318 317/317 316/316
f 318/318 319/319 317/317
f 320/320 319/319 318/318
f 320/320 321/321 319/319
f 322/322 321/321 320/320
f 322/322 323/323 321/321
f 324/324 323/323 322/322
f 324/324 325/325 323/323
f 326/326 325/325 324/324
f 326/326 327/327 325/325
f 328/328 327/327 326/326
f 328/328 329/329 327/327
f 330/330 329/329 328/328
f 330/330 331/331 329/329
f 332/332 331/331 330/330
f 332/332 333/333 331/331
f 334/334 333/333 332/332
f 334/334 335/335 333/333
f 336/336 335/335 334/334
f 336/336 337/337 335/335
f 338/338 337/337 336/336
f 338/338 339/339 337/337
f 340/340 339/339 338/338
f 340/340 341/341 339/339
f 342/342 341/341 340/340
f 342/342 343/343 341/341
f 344/344 343/343 342/342
f 344/344 345/345 343/343
f 346/346 345/345 344/344
f 346/346 347/347 345/345
f 348/348 347/347 346/346
f 348/348 349/349 347/347
f 350/350 349/349 348/348
f 350/350 351/351 349/349
f 352/352 351/351 350/350
f 352/352 353/353 351/351
f 354/354 353/353 352/352
f 354/354 355/355 353/353
f 356/356 355/355 354/354
f 356/356 357/357 355/355
f 358/358 357/357 356/356
f 358/358 359/359 357/357
f 360/360 359/359 358/358
f 360/360 361/361 359/359
f 362/362 361/361 360/360
f 362/362 363/363 361/361
f 364/364 363/363 362/362
f 364/364 365/365 363/363
f 366/366 365/365 364/364
f 366/366 367/367 365/365
f 368/368 367/367 366/366
f 368/368 369/369 367/367
f 370/370 369/369 368/368
f 370/370 371/371 369/369
f 372/372 371/371 370/370
f 372/372 373/373 371/371
f 374/374 373/373 372/372
f 374/374 375/375 373/373
f 376/376 375/375 374/374
f 376/376 377/377 375/375
f 378/378 377/377 376/376
f 378/378 379/379 377/377
f 380/380 379/379 378/378
f 380/380 381/381 379/379
f 382/382 381/381 380/380
f 382/382 383/383 381/381
f 384/384 383/383 382/382
f 384/384 385/385 383/383
f 386/386 385/385 384/384
f 386/386 387/387 385/385
f 388/388 387/387 386/386
f 388/388 389/389 387/387
f 390/390 389/389 388/388
f 390/390 391/391 389/389
f 392/392 391/391 390/390
f 392/392 393/393 391/391
f 394/394 393/393 392/392
f 394/394 395/395 393/393
f 396/396 395/395 394/394
f 396/396 397/397 395/395
f 398/398 397/397 396/396
f 398/398 399/399 397/397
f 400/400 399/399 398/398
f 400/400 301/301 399/399
f 400/400 303/303 301/301
f 403/403 402/402 401/401
f 404/404 402/402 403/403
f 404/404 405/405 402/402
f 406/406 405/405 404/404
f 406/406 407/407 405/405
f 408/408 407/407 406/406
f 408/408 409/409 407/407
f 410/410 409/409 408/408
f 410/410 411/411 409/409
f 412/412 411/411 410/410
f 412/412 413/413 411/411
f 414/414 413/413 412/412
f 414/414 415/415 413/413
f 416/416 415/415 414/414
f 416/416 417/417 415/415
f 418/418 417/417 416/416
f 418/418 419/419 417/417
f 420/420 419/419 418/418
f 420/420 421/421 419/419
f 422/422 421/421 420/420
f 422/422 423/423 421/421
f 424/424 423/423 422/422
f 424/424 425/425 423/423
f 426/426 425/425 424/424
f 426/426 427/427 425/425
f 428/428 427/427 426/426
f 428/428 429/429 427/427
f 430/430 429/429 428/428
f 430/430 431/431 429/429
f 432/432 431/431 430/430
f 432/432 433/433 431/431
f 434/434 433/433 432/432
f 434/434 435/435 433/433
f 436/436 435/435 434/434
f 436/436 437/437 435/435
f 438/438 437/437 436/436
f 438/438 439/439 437/437
f 440/440 439/439 438/438
f 440/440 441/441 439/439
f 442/442 441/441 440/440
f 442/442 443/443 441/441
f 444/444 443/443 442/442
f 444/444 445/445 443/443
f 446/446 445/445 444/444
f 446/446 447/447 445/445
f 448/448 447/447 446/446
f 448/448 449/449 447/447
f 450/450 449/449 448/448
f 450/450 451/451 449/449
f 452/452 451/451 450/450
f 452/452 453/453 451/451
f 454/454 453/453 452/452
f 454/454 455/455 453/453
f 456/456 455/455 454/454
f 456/456 457/457 455/455
f 458/458 457/457 456/456
f 458/458 459/459 457/457
f 460/460 459/459 458/458
f 460/460 461/461 459/459
f 462/462 461/461 460/460
f 462/462 463/463 461/461
f 464/464 463/463 462/462
f 464/464 465/465 463/463
f 466/466 465/465 464/464
f 466/466 467/467 465/465
f 468/468 467/467 466/466
f 468/468 469/469 467/467
f 470/470 469/469 468/468
f 470/470 471/471 469/469
f 472/472 471/471 470/470
f 472/472 473/473 471/471
f 474/474 473/473 472/472
f 474/474 475/475 473/473
f 476/476 475/475 474/474
f 476/476 477/477 475/475
f 478/478 477/477 476/476
f 478/478 479/479 477/477
f 480/480 479/479 478/478
f 480/480 481/481 479/479
f 482/482 481/481 480/480
f 482/482 483/483 481/481
f 484/484 483/483 482/482
f 484/484 485/485 483/483
f 486/486 485/485 484/484
f 486/486 487/487 485/485
f 488/488 487/487 486/486
f 488/488 489/489 487/487
f 490/490 489/489 488/488
f 490/490 491/491 489/489
f 492/492 491/491 490/490
f 492/492 493/493 491/491
f 494/494 493/493 492/492
f 494/494 495/495 493/493
f 496/496 495/495 494/494
f 496/496 497/497 495/495
f 498/498 497/497 496/496
f 498/498 499/499 497/497
f 500/500 499/499 498/498
f 500/500 401/401 499/499
f 500/500 403/403 401/401
f 503/503 502/502 501/501
f 504/504 502/502 503/503
f 504/504 505/505 502/502
f 506/506 505/505 504/504
f 506/506 507/507 505/505
f 508/508 507/507 506/506
f 508/508 509/509 507/507
f 510/510 509/509 508/508
f 510/510 511/511 509/509
f 512/512 511/511 510/510
f 512/512 513/513 511/511
f 514/514 513/513 512/512
f 514/514 515/515 513/513
f 516/516 515/515 514/514
f 516/516 517/517 515/515
f 518/518 517/517 516/516
f 518/518 519/519 517/517
f 520/520 519/519 518/518
f 520/520 521/521 519/519
f 522/522 521/521 520/520
f 522/522 523/523 521/521
f 524/524 523/523 522/522
f 524/524 525/525 523/523
f 526/526 525/525 524/524
f 526/526 527/527 525/525
f 528/528 527/527 526/526
f 528/528 529/529 527/527
f 530/530 529/529 528/528
f 530/530 531/531 529/529
f 532/532 531/531 530/530
f 532/532 533/533 531/531
f 534/534 533/533 532/532
f 534/534 535/535 533/533
f 536/536 535/535 534/534
f 536/536 537/537 535/535
f 538/538 537/537 536/536
f 538/538 539/539 537/537
f 540/540 539/539 538/538
f 540/540 541/541 539/539
f 542/542 541/541 540/540
f 542/542 543/543 541/541
f 544/544 543/543 542/542
f 544/544 545/545 543/543
f 546/546 545/545 544/544
f 546/546 547/547 545/545
f 548/548 547/547 546/546
f 548/548 549/549 547/547
f 550/550 549/549 548/548
f 550/550 551/551 549/549
f 552/552 551/551 550/550
f 552/552 553/553 551/551
f 554/554 553/553 552/552
f 554/554 555/555 553/553
f 556/556 555/555 554/554
f 556/556 557/557 555/555
f 558/558 557/557 556/556
f 558/558 559/559 557/557
f 560/560 559/559 558/558
f 560/560 561/561 559/559
f 562/562 561/561 560/560
f 562/562 563/563 561/561
f 564/564 563/563 562/562
f 564/564 565/565 563/563
f 566/566 565/565 564/564
f 566/566 567/567 565/565
f 568/568 567/567 566/566
f 568/568 569/569 567/567
f 570/570 569/569 568/568
f 570/570 571/571 569/569
f 572/572 571/571 570/570
f 572/572 573/573 571/571
f 574/574 573/573 572/572
f 574/574 575/575 573/573
f 576/576 575/575 574/574
f 576/576 577/577 575/575
f 578/578 577/577 576/576
f 578/578 579/579 577/577
f 580/580 579/579 578/578
f 580/580 581/581 579/579
f 582/582 581/581 580/580
f 582/582 583/583 581/581
f 584/584 583/583 582/582
f 584/584 585/585 583/583
f 586/586 585/585 584/584
f 586/586 587/587 585/585
f 588/588 587/587 586/586
f 588/588 589/589 587/587
f 590/590 589/589 588/588
f 590/590 591/591 589/589
f 592/592 591/591 590/590
f 592/592 593/593 591/591
f 594/594 593/593 592/592
f 594/594 595/595 593/593
f 596/596 595/595 594/594
f 596/596 597/597 595/595
f 598/598 597/597 596/596
f 598/598 599/599 597/597
f 600/600 599/599 598/598
f 600/600 501/501 599/599
f 600/600 503/503 501/501
f 603/603 602/602 601/601
f 604/604 602/602 603/603
f 604/604 605/605 602/602
f 606/606 605/605 604/604
f 606/606 607/607 605/605
f 608/608 607/607 606/606
f 608/608 609/609 607/607
f 610/610 609/609 608/608
f 610/610 611/611 609/609
f 612/612 611/611 610/610
f 612/612 613/613 611/611
f 614/614 613/613 612/612
f 614/614 615/615 613/613
f 616/616 615/615 614/614
f 616/616 617/617 615/615
f 618/618 617/617 616/616
f 618/618 619/619 617/617
f 620/620 619/619 618/618
f 620/620 621/621 619/619
f 622/622 621/621 620/620
f 622/622 623/623 621/621
f 624/624 623/623 622/622
f 624/624 625/625 623/623
f 626/626 625/625 624/624
f 626/626 627/627 625/625
f 628/628 627/627 626/626
f 628/628 629/629 627/627
f 630/630 629/629 628/628
f 630/630 631/631 629/629
f 632/632 631/631 630/630
f 632/632 633/633 631/631
f 634/634 633/633 632/632
f 634/634 635/635 633/633
f 636/636 635/635 634/634
f 636/636 637/637 635/635
f 638/638 637/637 636/636
f 638/638 639/639 637/637
f 640/640 639/639 638/638
f 640/640 641/641 639/639
f 642/642 641/641 640/640
f 642/642 643/643 641/641
f 644/644 643/643 642/642
f 644/644 645/645 643/643
f 646/646 645/645 644/644
f 646/646 647/647 645/645
f 648/648 647/647 646/646
f 648/648 649/649 647/647
f 650/650 649/649 648/648
f 650/650 651/651 649/649
f 652/652 651/651 650/650
f 652/652 653/653 651/651
f 654/654 653/653 652/652
f 654/654 655/655 653/653
f 656/656 655/655 654/654
f 656/656 657/657 655/655
f 658/658 657/657 656/656
f 658/658 659/659 657/657
f 660/660 659/659 658/658
f 660/660 661/661 659/659
f 662/662 661/661 660/660
f 662/662 663/663 661/661
f 664/664 663/663 662/662
f 664/664 665/665 663/663
f 666/666 665/665 664/664
f 666/666 667/667 665/665
f 668/668 667/667 666/666
f 668/668 669/669 667/667
f 670/670 669/669 668/668
f 670/670 671/671 669/669
f 672/672 671/671 670/670
f 672/672 673/673 671/671
f 674/674 673/673 672/672
f 674/674 675/675 673/673
f 676/676 675/675 674/674
f 676/676 677/677 675/675
f 678/678 677/677 676/676
f 678/678 679/679 677/677
f 680/680 679/679 678/678
f 680/680 681/681 679/679
f 682/682 681/681 680/680
f 682/682 683/683 681/681
f 684/684 683/683 682/682
f 684/684 685/685 683/683
f 686/686 685/685 684/684
f 686/686 687/687 685/685
f 688/688 687/687 686/686
f 688/688 689/689 687/687
f 690/690 689/689 688/688
f 690/690 691/691 689/689
f 692/692 691/691 690/690
f 692/692 693/693 691/691
f 694/694 693/693 692/692
f 694/694 695/695 693/693
f 696/696 695/695 694/694
f 696/696 697/697 695/695
f 698/698 697/697 696/696
f 698/698 699/699 697/697
f 700/700 699/699 698/698
f 700/700 601/601 699/699
f 700/700 603/603 601/601
f 703/703 702/702 701/701
f 704/704 702/702 703/703
f 704/704 705/705 702/702
f 706/706 705/705 704/704
f 706/706 707/707 705/705
f 708/708 707/707 706/706
f 708/708 709/709 707/707
f 710/710 709/709 708/708
f 710/710 711/711 709/709
f 712/712 711/711 710/710
f 712/712 713/713 711/711
f 714/714 713/713 712/712
f 714/714 715/715 713/713
f 716/716 715/715 714/714
f 716/716 717/717 715/715
f 718/718 717/717 716/716
f 718/718 719/719 717/717
f 720/720 719/719 718/718
f 720/720 721/721 719/719
f 722/722 721/721 720/720
f 722/722 723/723 721/721
f 724/724 723/723 722/722
f 724/724 725/725 723/723
f 726/726 725/725 724/724
f 726/726 727/727 725/725
f 728/728 727/727 726/726
f 728/728 729/729 727/727
f 730/730 729/729 728/728
f 730/730 731/731 729/729
f 732/732 731/731 730/730
f 732/732 733/733 731/731
f 734/734 733/733 732/732
f 734/734 735/735 733/733
f 736/736 735/735 734/734
f 736/736 737/737 735/735
f 738/738 737/737 736/736
f 738/738 739/739 737/737
f 740/740 739/739 738/738
f 740/740 741/741 739/739
f 742/742 741/741 740/740
f 742/742 743/743 741/741
f 744/744 743/743 742/742
f 744/744 745/745 743/743
f 746/746 745/745 744/744
f 746/746 747/747 745/745
f 748/748 747/747 746/746
f 748/748 749/749 747/747
f 750/750 749/749 748/748
f 750/750 751/751 749/749
f 752/752 751/751 750/750
f 752/752 753/753 751/751
f 754/754 753/753 752/752
f 754/754 755/755 753/753
f 756/756 755/755 754/754
f 756/756 757/757 755/755
f 758/758 757/757 756/756
f 758/758 759/759 757/757
f 760/760 759/759 758/758
f 760/760 761/761 759/759
f 762/762 761/761 760/760
f 762/762 763/763 761/761
f 764/764 763/763 762/762
f 764/764 765/765 763/763
f 766/766 765/765 764/764
f 766/766 767/767 765/765
f 768/768 767/767 766/766
f 768/768 769/769 767/767
f 770/770 769/769 768/768
f 770/770 771/771 769/769
f 772/772 771/771 770/770
f 772/772 773/773 771/771
f 774/774 773/773 772/772
f 774/774 775/775 773/773
f 776/776 775/775 774/774
f 776/776 777/777 775/775
f 778/778 777/777 776/776
f 778/778 779/779 777/777
f 780/780 779/779 778/778
f 780/780 781/781 779/779
f 782/782 781/781 780/780
f 782/782 783/783 781/781
f 784/784 783/783 782/782
f 784/784 785/785 783/783
f 786/786 785/785 784/784
f 786/786 787/787 785/785
f 788/788 787/787 786/786
f 788/788 789/789 787/787
f 790/790 789/789 788/788
f 790/790 791/791 789/789
f 792/792 791/791 790/790
f 792/792 793/793 791/791
f 794/794 793/793 792/792
f 794/794 795/795 793/793
f 796/796 795/795 794/794
f 796/796 797/797 795/795
f 798/798 797/797 796/796
f 798/798 799/799 797/797
f 800/800 799/799 798/798
f 800/800 701/701 799/799
f 800/800 703/703 701/701
f 801/801 703/703 800/800
f 802/802 703/703 801/801
f 803/803 703/703 802/802
f 803/803 704/704 703/703
f 804/804 704/704 803/803
f 804/804 706/706 704/704
f 805/805 706/706 804/804
f 805/805 708/708 706/706
f 806/806 708/708 805/805
f 806/806 710/710 708/708
f 806/806 712/712 710/710
f 807/807 712/712 806/806
f 808/808 712/712 807/807
f 808/808 714/714 712/712
f 809/809 714/714 808/808
f 809/809 716/716 714/714
f 810/810 716/716 809/809
f 810/810 718/718 716/716
f 810/810 720/720 718/718
f 811/811 720/720 810/810
f 811/811 722/722 720/720
f 812/812 722/722 811/811
f 813/813 722/722 812/812
f 813/813 724/724 722/722
f 814/814 724/724 813/813
f 814/814 726/726 724/724
f 815/815 726/726 814/814
f 815/815 728/728 726/726
f 816/816 728/728 815/815
f 816/816 730/730 728/728
f 816/816 732/732 730/730
f 817/817 732/732 816/816
f 818/818 732/732 817/817
f 818/818 734/734 732/732
f 819/819 734/734 818/818
f 819/819 736/736 734/734
f 820/820 736/736 819/819
f 820/820 738/738 736/736
f 820/820 740/740 738/738
f 821/821 740/740 820/820
f 821/821 742/742 740/740
f 822/822 742/742 821/821
f 823/823 742/742 822/822
f 823/823 744/744 742/742
f 824/824 744/744 823/823
f 824/824 746/746 744/744
f 825/825 746/746 824/824
f 825/825 748/748 746/746
f 826/826 748/748 825/825
f 826/826 750/750 748/748
f 826/826 752/752 750/750
f 827/827 752/752 826/826
f 828/828 752/752 827/827
f 828/828 754/754 752/752
f 829/829 754/754 828/828
f 829/829 756/756 754/754
f 830/830 756/756 829/829
f 830/830 758/758 756/756
f 830/830 760/760 758/758
f 831/831 760/760 830/830
f 831/831 762/762 760/760
f 832/832 762/762 831/831
f 833/833 762/762 832/832
f 833/833 764/764 762/762
f 834/834 764/764 833/833
f 834/834 766/766 764/764
f 835/835 766/766 834/834
f 835/835 768/768 766/766
f 836/836 768/768 835/835
f 836/836 770/770 768/768
f 836/836 772/772 770/770
f 837/837 772/772 836/836
f 838/838 772/772 837/837
f 838/838 774/774 772/772
f 839/839 774/774 838/838
f 839/839 776/776 774/774
f 840/840 776/776 839/839
f 840/840 778/778 776/776
f 840/840 780/780 778/778
f 841/841 780/780 840/840
f 841/841 782/782 780/780
f 842/842 782/782 841/841
f 843/843 782/782 842/842
f 843/843 784/784 782/782
f 844/844 784/784 843/843
f 844/844 786/786 784/784
f 845/845 786/786 844/844
f 845/845 788/788 786/786
f 846/846 788/788 845/845
f 846/846 790/790 788/788
f 846/846 792/792 790/790
f 847/847 792/792 846/846
f 848/848 792/792 847/847
f 848/848 794/794 792/792
f 849/849 794/794 848/848
f 849/849 796/796 794/794
f 850/850 796/796 849/849
f 850/850 798/798 796/796
f 850/850 800/800 798/798
f 850/850 801/801 800/800
f 853/853 852/852 851/851
f 854/854 852/852 853/853
f 854/854 855/855 852/852
f 854/854 856/856 855/855
f 857/857 856/856 854/854
f 857/857 858/858 856/856
f 859/859 858/858 857/857
f 859/859 860/860 858/858
f 861/861 860/860 859/859
f 861/861 862/862 860/860
f 863/863 862/862 861/861
f 864/864 862/862 863/863
f 864/864 865/865 862/862
f 864/864 866/866 865/865
f 867/867 866/866 864/864
f 867/867 868/868 866/866
f 869/869 868/868 867/867
f 869/869 870/870 868/868
f 871/871 870/870 869/869
f 872/872 870/870 871/871
f 872/872 873/873 870/870
f 874/874 873/873 872/872
f 874/874 875/875 873/873
f 874/874 876/876 875/875
f 877/877 876/876 874/874
f 877/877 878/878 876/876
f 879/879 878/878 877/877
f 879/879 880/880 878/878
f 881/881 880/880 879/879
f 881/881 882/882 880/880
f 883/883 882/882 881/881
f 884/884 882/882 883/883
f 884/884 885/885 882/882
f 884/884 886/886 885/885
f 887/887 886/886 884/884
f 887/887 888/888 886/886
f 889/889 888/888 887/887
f 889/889 890/890 888/888
f 891/891 890/890 889/889
f 892/892 890/890 891/891
f 892/892 893/893 890/890
f 894/894 893/893 892/892
f 894/894 895/895 893/893
f 894/894 896/896 895/895
f 897/897 896/896 894/894
f 897/897 898/898 896/896
f 899/899 898/898 897/897
f 899/899 900/900 898/898
f 901/901 900/900 899/899
f 901/901 902/902 900/900
f 903/903 902/902 901/901
f 904/904 902/902 903/903
f 904/904 905/905 902/902
f 904/904 906/906 905/905
f 907/907 906/906 904/904
f 907/907 908/908 906/906
f 909/909 908/908 907/907
f 909/909 910/910 908/908
f 911/911 910/910 909/909
f 912/912 910/910 911/911
f 912/912 913/913 910/910
f 914/914 913/913 912/912
f 914/914 915/915 913/913
f 914/914 916/916 915/915
f 917/917 916/916 914/914
f 917/917 918/918 916/916
f 919/919 918/918 917/917
f 919/919 920/920 918/918
f 921/921 920/920 919/919
f 921/921 922/922 920/920
f 923/923 922/922 921/921
f 924/924 922/922 923/923
f 924/924 925/925 922/922
f 924/924 926/926 925/925
f 927/927 926/926 924/924
f 927/927 928/928 926/926
f 929/929 928/928 927/927
f 929/929 930/930 928/928
f 931/931 930/930 929/929
f 932/932 930/930 931/931
f 932/932 933/933 930/930
f 934/934 933/933 932/932
f 934/934 935/935 933/933
f 934/934 936/936 935/935
f 937/937 936/936 934/934
f 937/937 938/938 936/936
f 939/939 938/938 937/937
f 939/939 940/940 938/938
f 941/941 940/940 939/939
f 941/941 942/942 940/940
f 943/943 942/942 941/941
f 944/944 942/942 943/943
f 944/944 945/945 942/942
f 944/944 946/946 945/945
f 947/947 946/946 944/944
f 947/947 948/948 946/946
f 949/949 948/948 947/947
f 949/949 851/851 948/948
f 950/950 851/851 949/949
f 950/950 853/853 851/851
f 951/951 853/853 950/950
f 952/952 853/853 951/951
f 952/952 854/854 853/853
f 953/953 854/854 952/952
f 953/953 857/857 854/854
f 954/954 857/857 953/953
f 954/954 859/859 857/857
f 955/955 859/859 954/954
f 955/955 861/861 859/859
f 956/956 861/861 955/955
f 956/956 863/863 861/861
f 957/957 863/863 956/956
f 957/957 864/864 863/863
f 958/958 864/864 957/957
f 958/958 867/867 864/864
f 959/959 867/867 958/958
f 959/959 869/869 867/867
f 960/960 869/869 959/959
f 960/960 871/871 869/869
f 961/961 871/871 960/960
f 961/961 872/872 871/871
f 962/962 872/872 961/961
f 962/962 874/874 872/872
f 963/963 874/874 962/962
f 963/963 877/877 874/874
f 964/964 877/877 963/963
f 964/964 879/879 877/877
f 965/965 879/879 964/964
f 965/965 881/881 879/879
f 966/966 881/881 965/965
f 966/966 883/883 881/881
f 967/967 883/883 966/966
f 967/967 884/884 883/883
f 968/968 884/884 967/967
f 968/968 887/887 884/884
f 969/969 887/887 968/968
f 969/969 889/889 887/887
f 970/970 889/889 969/969
f 970/970 891/891 889/889
f 971/971 891/891 970/970
f 971/971 892/892 891/891
f 972/972 892/892 971/971
f 972/972 894/894 892/892
f 973/973 894/894 972/972
f 973/973 897/897 894/894
f 974/974 897/897 973/973
f 974/974 899/899 897/897
f 975/975 899/899 974/974
f 975/975 901/901 899/899
f 976/976 901/901 975/975
f 976/976 903/903 901/901
f 977/977 903/903 976/976
f 977/977 904/904 903/903
f 978/978 904/904 977/977
f 978/978 907/907 904/904
f 979/979 907/907 978/978
f 979/979 909/909 907/907
f 980/980 909/909 979/979
f 980/980 911/911 909/909
f 981/981 911/911 980/980
f 981/981 912/912 911/911
f 982/982 912/912 981/981
f 982/982 914/914 912/912
f 983/983 914/914 982/982
f 983/983 917/917 914/914
f 984/984 917/917 983/983
f 984/984 919/919 917/917
f 985/985 919/919 984/984
f 985/985 921/921 919/919
f 986/986 921/921 985/985
f 986/986 923/923 921/921
f 987/987 923/923 986/986
f 987/987 924/924 923/923
f 988/988 924/924 987/987
f 988/988 927/927 924/924
f 989/989 927/927 988/988
f 989/989 929/929 927/927
f 990/990 929/929 989/989
f 990/990 931/931 929/929
f 991/991 931/931 990/990
f 991/991 932/932 931/931
f 992/992 932/932 991/991
f 992/992 934/934 932/932
f 993/993 934/934 992/992
f 993/993 937/937 934/934
f 994/994 937/937 993/993
f 994/994 939/939 937/937
f 995/995 939/939 994/994
f 995/995 941/941 939/939
f 996/996 941/941 995/995
f 996/996 943/943 941/941
f 997/997 943/943 996/996
f 997/997 944/944 943/943
f 998/998 944/944 997/997
f 998/998 947/947 944/944
f 999/999 947/947 998/998
f 999/999 949/949 947/947
f 1000/1000 949/949 999/999
f 1000/1000 950/950 949/949
f 1000/1000 951/951 950/950

