# https://github.com/mikedh/trimesh
mtllib material.mtl

o geometry_0
usemtl Tires
v -0.10645243 -0.06418327 -0.33643222
v -0.10645243 -0.10583574 -0.32572406
v -0.11541230 -0.09560838 -0.29425525
v -0.11541230 -0.13175380 -0.27996313
v -0.10645243 -0.14582737 -0.30990225
v -0.11541230 -0.16580132 -0.26125669
v -0.10645243 -0.18350253 -0.28918528
v -0.11541230 -0.19722642 -0.23839813
v -0.10645243 -0.21833675 -0.26387912
v -0.11541230 -0.22554836 -0.21178072
v -0.10645243 -0.24967444 -0.23446452
v -0.11541230 -0.25033003 -0.18188536
v -0.10645243 -0.27707854 -0.20129114
v -0.11541230 -0.27113444 -0.14906162
v -0.10645243 -0.30015567 -0.16497087
v -0.11541230 -0.28769925 -0.11387777
v -0.10645243 -0.31846875 -0.12607193
v -0.11541230 -0.29971859 -0.07694560
v -0.10645243 -0.33175561 -0.08516246
v -0.11541230 -0.30697391 -0.03878969
v -0.10645243 -0.33979762 -0.04289812
v -0.11541230 -0.30942148 0.00002185
v -0.10645243 -0.34250745 0.00002185
v -0.11541230 -0.30697391 0.03878969
v -0.10645243 -0.33979762 0.04294181
v -0.11541230 -0.29971859 0.07694564
v -0.10645243 -0.33175561 0.08520618
v -0.11541230 -0.28769925 0.11392148
v -0.10645243 -0.31842506 0.12607193
v -0.11541230 -0.27113444 0.14906165
v -0.10645243 -0.30011195 0.16501460
v -0.11541230 -0.25033003 0.18188538
v -0.10645243 -0.27707854 0.20133485
v -0.11541230 -0.22554836 0.21182445
v -0.10645243 -0.24967444 0.23446451
v -0.11541230 -0.19722642 0.23844183
v -0.10645243 -0.21829304 0.26392281
v -0.11541230 -0.16580132 0.26125673
v -0.10645243 -0.18350253 0.28918529
v -0.11541230 -0.13175380 0.27996317
v -0.10645243 -0.14582737 0.30990225
v -0.11541230 -0.09560838 0.29429898
v -0.10645243 -0.10583574 0.32572407
v -0.11541230 -0.05797693 0.30395815
v -0.10645243 -0.06418327 0.33643222
v -0.11541230 -0.01942763 0.30880958
v -0.10645243 -0.02148184 0.34185183
v -0.11541230 0.01942763 0.30880958
v -0.10645243 0.02152553 0.34185183
v -0.11541230 0.05797690 0.30395815
v -0.10645243 0.06418326 0.33643222
v -0.11541230 0.09560835 0.29429898
v -0.10645243 0.10583573 0.32572407
v -0.11541230 0.13175380 0.27996317
v -0.10645243 0.14582732 0.30990225
v -0.11541230 0.16580132 0.26125673
v -0.10645243 0.18350252 0.28918529
v -0.11541230 0.19722643 0.23844183
v -0.10645243 0.21833673 0.26392281
v -0.11541230 0.22554836 0.21182445
v -0.10645243 0.24967441 0.23446451
v -0.11541230 0.25033000 0.18188538
v -0.10645243 0.27707854 0.20133485
v -0.11541230 0.27113441 0.14906165
v -0.10645243 0.30015567 0.16501460
v -0.11541230 0.28769925 0.11392148
v -0.10645243 0.31846878 0.12607193
v -0.11541230 0.29971859 0.07694564
v -0.10645243 0.33175561 0.08516249
v -0.11541230 0.30697390 0.03878969
v -0.10645243 0.33979759 0.04294181
v -0.11541230 0.30942145 0.00002185
v -0.10645243 0.34250745 0.00002185
v -0.11541230 0.30697390 -0.03878969
v -0.10645243 0.33979759 -0.04294181
v -0.11541230 0.29971859 -0.07694560
v -0.10645243 0.33175561 -0.08516246
v -0.11541230 0.28769925 -0.11392146
v -0.10645243 0.31842503 -0.12607193
v -0.11541230 0.27113441 -0.14906162
v -0.10645243 0.30011192 -0.16501456
v -0.11541230 0.25033000 -0.18188536
v -0.10645243 0.27707854 -0.20133483
v -0.11541230 0.22554836 -0.21182441
v -0.10645243 0.24967441 -0.23446452
v -0.11541230 0.19722643 -0.23839813
v -0.10645243 0.21829304 -0.26392281
v -0.11541230 0.16580132 -0.26125669
v -0.10645243 0.18350252 -0.28918528
v -0.11541230 0.13175380 -0.27996313
v -0.10645243 0.14582732 -0.30990225
v -0.11541230 0.09560835 -0.29425525
v -0.10645243 0.10583573 -0.32572406
v -0.11541230 0.05797690 -0.30391442
v -0.10645243 0.06418326 -0.33643222
v -0.11541230 0.01942763 -0.30880958
v -0.10645243 0.02148184 -0.34180814
v -0.11541230 -0.01942763 -0.30880958
v -0.10645243 -0.02152556 -0.34180814
v -0.11541230 -0.05797693 -0.30391442
v -0.11869030 -0.08730412 -0.26864314
v -0.11864660 -0.12008412 -0.25522518
v -0.11864660 -0.15085364 -0.23778623
v -0.11864660 -0.17913185 -0.21685069
v -0.11864660 -0.20522475 -0.19268089
v -0.11864660 -0.22773369 -0.16540795
v -0.11864660 -0.24670239 -0.13564369
v -0.11864660 -0.26160637 -0.10334444
v -0.11864660 -0.27279529 -0.06999623
v -0.11864660 -0.27987576 -0.03533685
v -0.11869030 -0.28249818 0.00002185
v -0.11864660 -0.27987576 0.03533686
v -0.11864660 -0.27279529 0.06999627
v -0.11864660 -0.26160637 0.10334447
v -0.11864660 -0.24670239 0.13564371
v -0.11864660 -0.22768998 0.16545166
v -0.11864660 -0.20522475 0.19268093
v -0.11864660 -0.17913185 0.21685072
v -0.11864660 -0.15085364 0.23782993
v -0.11864660 -0.12008412 0.25522518
v -0.11869030 -0.08730412 0.26864314
v -0.11864660 -0.05286324 0.27707854
v -0.11864660 -0.01772308 0.28105584
v -0.11864660 0.01746082 0.28074989
v -0.11864660 0.05277580 0.27655405
v -0.11864660 0.08699813 0.26768160
v -0.11864660 0.11986557 0.25474441
v -0.11864660 0.15089729 0.23739288
v -0.11864660 0.17956892 0.21698185
v -0.11864660 0.20561811 0.19311799
v -0.11869030 0.22852036 0.16606355
v -0.11864660 0.24718317 0.13590594
v -0.11864660 0.26182487 0.10373783
v -0.11864660 0.27240190 0.07017109
v -0.11864660 0.27930757 0.03524944
v -0.11864660 0.28144917 0.00002185
v -0.11864660 0.27930757 -0.03524944
v -0.11864660 0.27240190 -0.07012736
v -0.11864660 0.26182487 -0.10373780
v -0.11864660 0.24718317 -0.13590592
v -0.11869030 0.22852036 -0.16601985
v -0.11864660 0.20561811 -0.19307428
v -0.11864660 0.17956892 -0.21693813
v -0.11864660 0.15089729 -0.23739284
v -0.11864660 0.11982188 -0.25474441
v -0.11864660 0.08699813 -0.26768160
v -0.11864660 0.05277580 -0.27651035
v -0.11864660 0.01746082 -0.28070616
v -0.11864660 -0.01772308 -0.28105580
v -0.11864660 -0.05286324 -0.27707851
v -0.11869030 -0.08730412 -0.26864314
v -0.11864660 -0.12008412 -0.25522518
v -0.11541230 -0.09560838 -0.29425525
v -0.11541230 -0.13175380 -0.27996313
v -0.11864660 -0.15085364 -0.23778623
v -0.11541230 -0.16580132 -0.26125669
v -0.11864660 -0.17913185 -0.21685069
v -0.11541230 -0.19722642 -0.23839813
v -0.11864660 -0.20522475 -0.19268089
v -0.11541230 -0.22554836 -0.21178072
v -0.11864660 -0.22773369 -0.16540795
v -0.11541230 -0.25033003 -0.18188536
v -0.11864660 -0.24670239 -0.13564369
v -0.11541230 -0.27113444 -0.14906162
v -0.11864660 -0.26160637 -0.10334444
v -0.11541230 -0.28769925 -0.11387777
v -0.11864660 -0.27279529 -0.06999623
v -0.11541230 -0.29971859 -0.07694560
v -0.11864660 -0.27987576 -0.03533685
v -0.11541230 -0.30697391 -0.03878969
v -0.11869030 -0.28249818 0.00002185
v -0.11541230 -0.30942148 0.00002185
v -0.11864660 -0.27987576 0.03533686
v -0.11541230 -0.30697391 0.03878969
v -0.11864660 -0.27279529 0.06999627
v -0.11541230 -0.29971859 0.07694564
v -0.11864660 -0.26160637 0.10334447
v -0.11541230 -0.28769925 0.11392148
v -0.11864660 -0.24670239 0.13564371
v -0.11541230 -0.27113444 0.14906165
v -0.11864660 -0.22768998 0.16545166
v -0.11541230 -0.25033003 0.18188538
v -0.11864660 -0.20522475 0.19268093
v -0.11541230 -0.22554836 0.21182445
v -0.11864660 -0.17913185 0.21685072
v -0.11541230 -0.19722642 0.23844183
v -0.11864660 -0.15085364 0.23782993
v -0.11541230 -0.16580132 0.26125673
v -0.11864660 -0.12008412 0.25522518
v -0.11541230 -0.13175380 0.27996317
v -0.11869030 -0.08730412 0.26864314
v -0.11541230 -0.09560838 0.29429898
v -0.11864660 -0.05286324 0.27707854
v -0.11541230 -0.05797693 0.30395815
v -0.11864660 -0.01772308 0.28105584
v -0.11541230 -0.01942763 0.30880958
v -0.11864660 0.01746082 0.28074989
v -0.11541230 0.01942763 0.30880958
v -0.11864660 0.05277580 0.27655405
v -0.11541230 0.05797690 0.30395815
v -0.11864660 0.08699813 0.26768160
v -0.11541230 0.09560835 0.29429898
v -0.11864660 0.11986557 0.25474441
v -0.11541230 0.13175380 0.27996317
v -0.11864660 0.15089729 0.23739288
v -0.11541230 0.16580132 0.26125673
v -0.11864660 0.17956892 0.21698185
v -0.11541230 0.19722643 0.23844183
v -0.11864660 0.20561811 0.19311799
v -0.11541230 0.22554836 0.21182445
v -0.11869030 0.22852036 0.16606355
v -0.11541230 0.25033000 0.18188538
v -0.11864660 0.24718317 0.13590594
v -0.11541230 0.27113441 0.14906165
v -0.11864660 0.26182487 0.10373783
v -0.11541230 0.28769925 0.11392148
v -0.11864660 0.27240190 0.07017109
v -0.11541230 0.29971859 0.07694564
v -0.11864660 0.27930757 0.03524944
v -0.11541230 0.30697390 0.03878969
v -0.11864660 0.28144917 0.00002185
v -0.11541230 0.30942145 0.00002185
v -0.11864660 0.27930757 -0.03524944
v -0.11541230 0.30697390 -0.03878969
v -0.11864660 0.27240190 -0.07012736
v -0.11541230 0.29971859 -0.07694560
v -0.11864660 0.26182487 -0.10373780
v -0.11541230 0.28769925 -0.11392146
v -0.11864660 0.24718317 -0.13590592
v -0.11541230 0.27113441 -0.14906162
v -0.11869030 0.22852036 -0.16601985
v -0.11541230 0.25033000 -0.18188536
v -0.11864660 0.20561811 -0.19307428
v -0.11541230 0.22554836 -0.21182441
v -0.11864660 0.17956892 -0.21693813
v -0.11541230 0.19722643 -0.23839813
v -0.11864660 0.15089729 -0.23739284
v -0.11541230 0.16580132 -0.26125669
v -0.11864660 0.11982188 -0.25474441
v -0.11541230 0.13175380 -0.27996313
v -0.11864660 0.08699813 -0.26768160
v -0.11541230 0.09560835 -0.29425525
v -0.11864660 0.05277580 -0.27651035
v -0.11541230 0.05797690 -0.30391442
v -0.11864660 0.01746082 -0.28070616
v -0.11541230 0.01942763 -0.30880958
v -0.11864660 -0.01772308 -0.28105580
v -0.11541230 -0.01942763 -0.30880958
v -0.11864660 -0.05286324 -0.27707851
v -0.11541230 -0.05797693 -0.30391442
v -0.10645243 -0.06418327 -0.33643222
v -0.10645243 -0.10583574 -0.32572406
v -0.10645243 -0.14582737 -0.30990225
v -0.10645243 -0.18350253 -0.28918528
v -0.10645243 -0.21833675 -0.26387912
v -0.10645243 -0.24967444 -0.23446452
v -0.10645243 -0.27707854 -0.20129114
v -0.10645243 -0.30015567 -0.16497087
v -0.10645243 -0.31846875 -0.12607193
v -0.10645243 -0.33175561 -0.08516246
v -0.10645243 -0.33979762 -0.04289812
v -0.10645243 -0.34250745 0.00002185
v -0.10645243 -0.33979762 0.04294181
v -0.10645243 -0.33175561 0.08520618
v -0.10645243 -0.31842506 0.12607193
v -0.10645243 -0.30011195 0.16501460
v -0.10645243 -0.27707854 0.20133485
v -0.10645243 -0.24967444 0.23446451
v -0.10645243 -0.21829304 0.26392281
v -0.10645243 -0.18350253 0.28918529
v -0.10645243 -0.14582737 0.30990225
v -0.10645243 -0.10583574 0.32572407
v -0.10645243 -0.06418327 0.33643222
v -0.10645243 -0.02148184 0.34185183
v -0.10645243 0.02152553 0.34185183
v -0.10645243 0.06418326 0.33643222
v -0.10645243 0.10583573 0.32572407
v -0.10645243 0.14582732 0.30990225
v -0.10645243 0.18350252 0.28918529
v -0.10645243 0.21833673 0.26392281
v -0.10645243 0.24967441 0.23446451
v -0.10645243 0.27707854 0.20133485
v -0.10645243 0.30015567 0.16501460
v -0.10645243 0.31846878 0.12607193
v -0.10645243 0.33175561 0.08516249
v -0.10645243 0.33979759 0.04294181
v -0.10645243 0.34250745 0.00002185
v -0.10645243 0.33979759 -0.04294181
v -0.10645243 0.33175561 -0.08516246
v -0.10645243 0.31842503 -0.12607193
v -0.10645243 0.30011192 -0.16501456
v -0.10645243 0.27707854 -0.20133483
v -0.10645243 0.24967441 -0.23446452
v -0.10645243 0.21829304 -0.26392281
v -0.10645243 0.18350252 -0.28918528
v -0.10645243 0.14582732 -0.30990225
v -0.10645243 0.10583573 -0.32572406
v -0.10645243 0.06418326 -0.33643222
v -0.10645243 0.02148184 -0.34180814
v -0.10645243 -0.02152556 -0.34180814
v -0.08787709 -0.02248711 -0.35732400
v -0.08787709 0.02248707 -0.35732400
v -0.10645243 -0.02152556 -0.34180814
v -0.10645243 0.02148184 -0.34180814
v -0.08787709 0.06706789 -0.35168582
v -0.10645243 0.06418326 -0.33643222
v -0.08787709 0.11064348 -0.34049689
v -0.10645243 0.10583573 -0.32572406
v -0.08787709 0.15242705 -0.32393211
v -0.10645243 0.14582732 -0.30990225
v -0.08787709 0.19185051 -0.30229729
v -0.10645243 0.18350252 -0.28918528
v -0.08787709 0.22821447 -0.27585470
v -0.10645243 0.21829304 -0.26392281
v -0.08787709 0.26099446 -0.24508524
v -0.10645243 0.24967441 -0.23446452
v -0.08787709 0.28962234 -0.21042585
v -0.10645243 0.27707854 -0.20133483
v -0.08787709 0.31374845 -0.17248845
v -0.10645243 0.30011192 -0.16501456
v -0.08787709 0.33289197 -0.13179749
v -0.10645243 0.31842503 -0.12607193
v -0.08787709 0.34679070 -0.08905238
v -0.10645243 0.33175561 -0.08516246
v -0.08787709 0.35518238 -0.04486492
v -0.10645243 0.33979759 -0.04294181
v -0.08787709 0.35802331 0.00002185
v -0.10645243 0.34250745 0.00002185
v -0.08787709 0.35518238 0.04486493
v -0.10645243 0.33979759 0.04294181
v -0.08787709 0.34679070 0.08905238
v -0.10645243 0.33175561 0.08516249
v -0.08787709 0.33289197 0.13179751
v -0.10645243 0.31846878 0.12607193
v -0.08787709 0.31374845 0.17248844
v -0.10645243 0.30015567 0.16501460
v -0.08787709 0.28966603 0.21042584
v -0.10645243 0.27707854 0.20133485
v -0.08787709 0.26099446 0.24508524
v -0.10645243 0.24967441 0.23446451
v -0.08787709 0.22821447 0.27585474
v -0.10645243 0.21833673 0.26392281
v -0.08787709 0.19185051 0.30229730
v -0.10645243 0.18350252 0.28918529
v -0.08787709 0.15242705 0.32397580
v -0.10645243 0.14582732 0.30990225
v -0.08787709 0.11064348 0.34049693
v -0.10645243 0.10583573 0.32572407
v -0.08787709 0.06706789 0.35168585
v -0.10645243 0.06418326 0.33643222
v -0.08787709 0.02248707 0.35732401
v -0.10645243 0.02152553 0.34185183
v -0.08787709 -0.02248711 0.35732401
v -0.10645243 -0.02148184 0.34185183
v -0.08787709 -0.06706792 0.35168585
v -0.10645243 -0.06418327 0.33643222
v -0.08787709 -0.11064348 0.34049693
v -0.10645243 -0.10583574 0.32572407
v -0.08787709 -0.15242708 0.32397580
v -0.10645243 -0.14582737 0.30990225
v -0.08787709 -0.19185050 0.30229730
v -0.10645243 -0.18350253 0.28918529
v -0.08787709 -0.22821446 0.27585474
v -0.10645243 -0.21829304 0.26392281
v -0.08787709 -0.26099450 0.24508524
v -0.10645243 -0.24967444 0.23446451
v -0.08787709 -0.28962237 0.21046955
v -0.10645243 -0.27707854 0.20133485
v -0.08787709 -0.31374845 0.17248844
v -0.10645243 -0.30011195 0.16501460
v -0.08787709 -0.33289197 0.13179751
v -0.10645243 -0.31842506 0.12607193
v -0.08787709 -0.34679070 0.08905238
v -0.10645243 -0.33175561 0.08520618
v -0.08787709 -0.35518238 0.04486493
v -0.10645243 -0.33979762 0.04294181
v -0.08787709 -0.35802332 0.00002185
v -0.10645243 -0.34250745 0.00002185
v -0.08787709 -0.35518238 -0.04486492
v -0.10645243 -0.33979762 -0.04289812
v -0.08787709 -0.34679070 -0.08900866
v -0.10645243 -0.33175561 -0.08516246
v -0.08787709 -0.33289197 -0.13179749
v -0.10645243 -0.31846875 -0.12607193
v -0.08787709 -0.31374845 -0.17248845
v -0.10645243 -0.30015567 -0.16497087
v -0.08787709 -0.28966606 -0.21042585
v -0.10645243 -0.27707854 -0.20129114
v -0.08787709 -0.26099450 -0.24508524
v -0.10645243 -0.24967444 -0.23446452
v -0.08787709 -0.22821446 -0.27585470
v -0.10645243 -0.21833675 -0.26387912
v -0.08787709 -0.19185050 -0.30225354
v -0.10645243 -0.18350253 -0.28918528
v -0.08787709 -0.15242708 -0.32393211
v -0.10645243 -0.14582737 -0.30990225
v -0.08787709 -0.11064348 -0.34049689
v -0.10645243 -0.10583574 -0.32572406
v -0.08787709 -0.06706792 -0.35168582
v -0.10645243 -0.06418327 -0.33643222
v -0.08787709 -0.02248711 -0.35732400
v -0.08787709 -0.06706792 -0.35168582
v -0.10645243 -0.06418327 -0.33643222
v -0.10645243 -0.10583574 -0.32572406
v -0.08787709 -0.11064348 -0.34049689
v -0.10645243 -0.14582737 -0.30990225
v -0.08787709 -0.15242708 -0.32393211
v -0.10645243 -0.18350253 -0.28918528
v -0.08787709 -0.19185050 -0.30225354
v -0.10645243 -0.21833675 -0.26387912
v -0.08787709 -0.22821446 -0.27585470
v -0.10645243 -0.24967444 -0.23446452
v -0.08787709 -0.26099450 -0.24508524
v -0.10645243 -0.27707854 -0.20129114
v -0.08787709 -0.28966606 -0.21042585
v -0.10645243 -0.30015567 -0.16497087
v -0.08787709 -0.31374845 -0.17248845
v -0.10645243 -0.31846875 -0.12607193
v -0.08787709 -0.33289197 -0.13179749
v -0.10645243 -0.33175561 -0.08516246
v -0.08787709 -0.34679070 -0.08900866
v -0.10645243 -0.33979762 -0.04289812
v -0.08787709 -0.35518238 -0.04486492
v -0.10645243 -0.34250745 0.00002185
v -0.08787709 -0.35802332 0.00002185
v -0.10645243 -0.33979762 0.04294181
v -0.08787709 -0.35518238 0.04486493
v -0.10645243 -0.33175561 0.08520618
v -0.08787709 -0.34679070 0.08905238
v -0.10645243 -0.31842506 0.12607193
v -0.08787709 -0.33289197 0.13179751
v -0.10645243 -0.30011195 0.16501460
v -0.08787709 -0.31374845 0.17248844
v -0.10645243 -0.27707854 0.20133485
v -0.08787709 -0.28962237 0.21046955
v -0.10645243 -0.24967444 0.23446451
v -0.08787709 -0.26099450 0.24508524
v -0.10645243 -0.21829304 0.26392281
v -0.08787709 -0.22821446 0.27585474
v -0.10645243 -0.18350253 0.28918529
v -0.08787709 -0.19185050 0.30229730
v -0.10645243 -0.14582737 0.30990225
v -0.08787709 -0.15242708 0.32397580
v -0.10645243 -0.10583574 0.32572407
v -0.08787709 -0.11064348 0.34049693
v -0.10645243 -0.06418327 0.33643222
v -0.08787709 -0.06706792 0.35168585
v -0.10645243 -0.02148184 0.34185183
v -0.08787709 -0.02248711 0.35732401
v -0.10645243 0.02152553 0.34185183
v -0.08787709 0.02248707 0.35732401
v -0.10645243 0.06418326 0.33643222
v -0.08787709 0.06706789 0.35168585
v -0.10645243 0.10583573 0.32572407
v -0.08787709 0.11064348 0.34049693
v -0.10645243 0.14582732 0.30990225
v -0.08787709 0.15242705 0.32397580
v -0.10645243 0.18350252 0.28918529
v -0.08787709 0.19185051 0.30229730
v -0.10645243 0.21833673 0.26392281
v -0.08787709 0.22821447 0.27585474
v -0.10645243 0.24967441 0.23446451
v -0.08787709 0.26099446 0.24508524
v -0.10645243 0.27707854 0.20133485
v -0.08787709 0.28966603 0.21042584
v -0.10645243 0.30015567 0.16501460
v -0.08787709 0.31374845 0.17248844
v -0.10645243 0.31846878 0.12607193
v -0.08787709 0.33289197 0.13179751
v -0.10645243 0.33175561 0.08516249
v -0.08787709 0.34679070 0.08905238
v -0.10645243 0.33979759 0.04294181
v -0.08787709 0.35518238 0.04486493
v -0.10645243 0.34250745 0.00002185
v -0.08787709 0.35802331 0.00002185
v -0.10645243 0.33979759 -0.04294181
v -0.08787709 0.35518238 -0.04486492
v -0.10645243 0.33175561 -0.08516246
v -0.08787709 0.34679070 -0.08905238
v -0.10645243 0.31842503 -0.12607193
v -0.08787709 0.33289197 -0.13179749
v -0.10645243 0.30011192 -0.16501456
v -0.08787709 0.31374845 -0.17248845
v -0.10645243 0.27707854 -0.20133483
v -0.08787709 0.28962234 -0.21042585
v -0.10645243 0.24967441 -0.23446452
v -0.08787709 0.26099446 -0.24508524
v -0.10645243 0.21829304 -0.26392281
v -0.08787709 0.22821447 -0.27585470
v -0.10645243 0.18350252 -0.28918528
v -0.08787709 0.19185051 -0.30229729
v -0.10645243 0.14582732 -0.30990225
v -0.08787709 0.15242705 -0.32393211
v -0.10645243 0.10583573 -0.32572406
v -0.08787709 0.11064348 -0.34049689
v -0.10645243 0.06418326 -0.33643222
v -0.08787709 0.06706789 -0.35168582
v -0.10645243 0.02148184 -0.34180814
v -0.08787709 0.02248707 -0.35732400
v -0.10645243 -0.02152556 -0.34180814
v -0.08787709 -0.02248711 -0.35732400
v -0.08787709 0.02248707 -0.35732400
v 0.11632055 -0.02248711 -0.35732400
v 0.11632055 0.02248707 -0.35732400
v -0.08787709 0.06706789 -0.35168582
v 0.11632055 0.06706789 -0.35168582
v -0.08787709 0.11064348 -0.34049689
v 0.11632055 0.11064348 -0.34049689
v -0.08787709 0.15242705 -0.32393211
v 0.11632055 0.15242705 -0.32393211
v -0.08787709 0.19185051 -0.30229729
v 0.11632055 0.19180676 -0.30229729
v -0.08787709 0.22821447 -0.27585470
v 0.11632055 0.22821447 -0.27585470
v -0.08787709 0.26099446 -0.24508524
v 0.11632055 0.26099446 -0.24508524
v -0.08787709 0.28962234 -0.21042585
v 0.11632055 0.28966603 -0.21042585
v -0.08787709 0.31374845 -0.17248845
v 0.11632055 0.31374845 -0.17248845
v -0.08787709 0.33289197 -0.13179749
v 0.11632055 0.33289197 -0.13179749
v -0.08787709 0.34679070 -0.08905238
v 0.11632055 0.34679070 -0.08905238
v -0.08787709 0.35518238 -0.04486492
v 0.11632055 0.35518238 -0.04486492
v -0.08787709 0.35802331 0.00002185
v 0.11632055 0.35802331 0.00002185
v -0.08787709 0.35518238 0.04486493
v 0.11632055 0.35518238 0.04486493
v -0.08787709 0.34679070 0.08905238
v 0.11632055 0.34679070 0.08905238
v -0.08787709 0.33289197 0.13179751
v 0.11632055 0.33289197 0.13179751
v -0.08787709 0.31374845 0.17248844
v 0.11632055 0.31374845 0.17248844
v -0.08787709 0.28966603 0.21042584
v 0.11632055 0.28966603 0.21042584
v -0.08787709 0.26099446 0.24508524
v 0.11632055 0.26099446 0.24508524
v -0.08787709 0.22821447 0.27585474
v 0.11632055 0.22821447 0.27585474
v -0.08787709 0.19185051 0.30229730
v 0.11632055 0.19185051 0.30229730
v -0.08787709 0.15242705 0.32397580
v 0.11632055 0.15242705 0.32393208
v -0.08787709 0.11064348 0.34049693
v 0.11632055 0.11064348 0.34049693
v -0.08787709 0.06706789 0.35168585
v 0.11632055 0.06706789 0.35168585
v -0.08787709 0.02248707 0.35732401
v 0.11632055 0.02248707 0.35732401
v -0.08787709 -0.02248711 0.35732401
v 0.11632055 -0.02248711 0.35732401
v -0.08787709 -0.06706792 0.35168585
v 0.11632055 -0.06706792 0.35168585
v -0.08787709 -0.11064348 0.34049693
v 0.11632055 -0.11064348 0.34049693
v -0.08787709 -0.15242708 0.32397580
v 0.11632055 -0.15242708 0.32393208
v -0.08787709 -0.19185050 0.30229730
v 0.11632055 -0.19180679 0.30229730
v -0.08787709 -0.22821446 0.27585474
v 0.11632055 -0.22821446 0.27585474
v -0.08787709 -0.26099450 0.24508524
v 0.11632055 -0.26099450 0.24508524
v -0.08787709 -0.28962237 0.21046955
v 0.11632055 -0.28966606 0.21042584
v -0.08787709 -0.31374845 0.17248844
v 0.11632055 -0.31374845 0.17248844
v -0.08787709 -0.33289197 0.13179751
v 0.11632055 -0.33289197 0.13179751
v -0.08787709 -0.34679070 0.08905238
v 0.11632055 -0.34679070 0.08905238
v -0.08787709 -0.35518238 0.04486493
v 0.11632055 -0.35518238 0.04486493
v -0.08787709 -0.35802332 0.00002185
v 0.11632055 -0.35802332 0.00002185
v -0.08787709 -0.35518238 -0.04486492
v 0.11632055 -0.35518238 -0.04486492
v -0.08787709 -0.34679070 -0.08900866
v 0.11632055 -0.34679070 -0.08900866
v -0.08787709 -0.33289197 -0.13179749
v 0.11632055 -0.33289197 -0.13179749
v -0.08787709 -0.31374845 -0.17248845
v 0.11632055 -0.31374845 -0.17244470
v -0.08787709 -0.28966606 -0.21042585
v 0.11632055 -0.28966606 -0.21042585
v -0.08787709 -0.26099450 -0.24508524
v 0.11632055 -0.26099450 -0.24508524
v -0.08787709 -0.22821446 -0.27585470
v 0.11632055 -0.22821446 -0.27585470
v -0.08787709 -0.19185050 -0.30225354
v 0.11632055 -0.19185050 -0.30225354
v -0.08787709 -0.15242708 -0.32393211
v 0.11632055 -0.15242708 -0.32393211
v -0.08787709 -0.11064348 -0.34049689
v 0.11632055 -0.11064348 -0.34049689
v -0.08787709 -0.06706792 -0.35168582
v 0.11632055 -0.06706792 -0.35168582
v -0.08787709 -0.02248711 -0.35732400
v -0.08787709 -0.06706792 -0.35168582
v 0.11632055 -0.06706792 -0.35168582
v 0.11632055 -0.11064348 -0.34049689
v -0.08787709 -0.11064348 -0.34049689
v 0.11632055 -0.15242708 -0.32393211
v -0.08787709 -0.15242708 -0.32393211
v 0.11632055 -0.19185050 -0.30225354
v -0.08787709 -0.19185050 -0.30225354
v 0.11632055 -0.22821446 -0.27585470
v -0.08787709 -0.22821446 -0.27585470
v 0.11632055 -0.26099450 -0.24508524
v -0.08787709 -0.26099450 -0.24508524
v 0.11632055 -0.28966606 -0.21042585
v -0.08787709 -0.28966606 -0.21042585
v 0.11632055 -0.31374845 -0.17244470
v -0.08787709 -0.31374845 -0.17248845
v 0.11632055 -0.33289197 -0.13179749
v -0.08787709 -0.33289197 -0.13179749
v 0.11632055 -0.34679070 -0.08900866
v -0.08787709 -0.34679070 -0.08900866
v 0.11632055 -0.35518238 -0.04486492
v -0.08787709 -0.35518238 -0.04486492
v 0.11632055 -0.35802332 0.00002185
v -0.08787709 -0.35802332 0.00002185
v 0.11632055 -0.35518238 0.04486493
v -0.08787709 -0.35518238 0.04486493
v 0.11632055 -0.34679070 0.08905238
v -0.08787709 -0.34679070 0.08905238
v 0.11632055 -0.33289197 0.13179751
v -0.08787709 -0.33289197 0.13179751
v 0.11632055 -0.31374845 0.17248844
v -0.08787709 -0.31374845 0.17248844
v 0.11632055 -0.28966606 0.21042584
v -0.08787709 -0.28962237 0.21046955
v 0.11632055 -0.26099450 0.24508524
v -0.08787709 -0.26099450 0.24508524
v 0.11632055 -0.22821446 0.27585474
v -0.08787709 -0.22821446 0.27585474
v 0.11632055 -0.19180679 0.30229730
v -0.08787709 -0.19185050 0.30229730
v 0.11632055 -0.15242708 0.32393208
v -0.08787709 -0.15242708 0.32397580
v 0.11632055 -0.11064348 0.34049693
v -0.08787709 -0.11064348 0.34049693
v 0.11632055 -0.06706792 0.35168585
v -0.08787709 -0.06706792 0.35168585
v 0.11632055 -0.02248711 0.35732401
v -0.08787709 -0.02248711 0.35732401
v 0.11632055 0.02248707 0.35732401
v -0.08787709 0.02248707 0.35732401
v 0.11632055 0.06706789 0.35168585
v -0.08787709 0.06706789 0.35168585
v 0.11632055 0.11064348 0.34049693
v -0.08787709 0.11064348 0.34049693
v 0.11632055 0.15242705 0.32393208
v -0.08787709 0.15242705 0.32397580
v 0.11632055 0.19185051 0.30229730
v -0.08787709 0.19185051 0.30229730
v 0.11632055 0.22821447 0.27585474
v -0.08787709 0.22821447 0.27585474
v 0.11632055 0.26099446 0.24508524
v -0.08787709 0.26099446 0.24508524
v 0.11632055 0.28966603 0.21042584
v -0.08787709 0.28966603 0.21042584
v 0.11632055 0.31374845 0.17248844
v -0.08787709 0.31374845 0.17248844
v 0.11632055 0.33289197 0.13179751
v -0.08787709 0.33289197 0.13179751
v 0.11632055 0.34679070 0.08905238
v -0.08787709 0.34679070 0.08905238
v 0.11632055 0.35518238 0.04486493
v -0.08787709 0.35518238 0.04486493
v 0.11632055 0.35802331 0.00002185
v -0.08787709 0.35802331 0.00002185
v 0.11632055 0.35518238 -0.04486492
v -0.08787709 0.35518238 -0.04486492
v 0.11632055 0.34679070 -0.08905238
v -0.08787709 0.34679070 -0.08905238
v 0.11632055 0.33289197 -0.13179749
v -0.08787709 0.33289197 -0.13179749
v 0.11632055 0.31374845 -0.17248845
v -0.08787709 0.31374845 -0.17248845
v 0.11632055 0.28966603 -0.21042585
v -0.08787709 0.28962234 -0.21042585
v 0.11632055 0.26099446 -0.24508524
v -0.08787709 0.26099446 -0.24508524
v 0.11632055 0.22821447 -0.27585470
v -0.08787709 0.22821447 -0.27585470
v 0.11632055 0.19180676 -0.30229729
v -0.08787709 0.19185051 -0.30229729
v 0.11632055 0.15242705 -0.32393211
v -0.08787709 0.15242705 -0.32393211
v 0.11632055 0.11064348 -0.34049689
v -0.08787709 0.11064348 -0.34049689
v 0.11632055 0.06706789 -0.35168582
v -0.08787709 0.06706789 -0.35168582
v 0.11632055 0.02248707 -0.35732400
v -0.08787709 0.02248707 -0.35732400
v 0.11632055 -0.02248711 -0.35732400
v 0.11632055 -0.02248711 -0.35732400
v 0.11632055 0.02248707 -0.35732400
v 0.12637308 -0.02012694 -0.31916809
v 0.12637308 0.01995209 -0.31903696
v 0.11632055 0.06706789 -0.35168582
v 0.12637308 0.05994370 -0.31409806
v 0.11632055 0.11064348 -0.34049689
v 0.12637308 0.09879896 -0.30408925
v 0.11632055 0.15242705 -0.32393211
v 0.12637308 0.13612446 -0.28931641
v 0.11632055 0.19180676 -0.30229729
v 0.12637308 0.17135206 -0.26982319
v 0.11632055 0.22821447 -0.27585470
v 0.12637308 0.20386985 -0.24639642
v 0.11632055 0.26099446 -0.24508524
v 0.12637308 0.23328444 -0.21907973
v 0.11632055 0.28966603 -0.21042585
v 0.12637308 0.25907138 -0.18822282
v 0.11632055 0.31374845 -0.17248845
v 0.12637308 0.28044394 -0.15417534
v 0.11632055 0.33289197 -0.13179749
v 0.12637308 0.29735842 -0.11776766
v 0.11632055 0.34679070 -0.08905238
v 0.12637308 0.30959627 -0.07956803
v 0.11632055 0.35518238 -0.04486492
v 0.12637308 0.31724498 -0.04005718
v 0.11632055 0.35802331 0.00002185
v 0.12637308 0.31973627 0.00002185
v 0.11632055 0.35518238 0.04486493
v 0.12637308 0.31724498 0.04005719
v 0.11632055 0.34679070 0.08905238
v 0.12637308 0.30959627 0.07961172
v 0.11632055 0.33289197 0.13179751
v 0.12637308 0.29735842 0.11776766
v 0.11632055 0.31374845 0.17248844
v 0.12637308 0.28044394 0.15417534
v 0.11632055 0.28966603 0.21042584
v 0.12637308 0.25907138 0.18822284
v 0.11632055 0.26099446 0.24508524
v 0.12637308 0.23332813 0.21907977
v 0.11632055 0.22821447 0.27585474
v 0.12637308 0.20386985 0.24639644
v 0.11632055 0.19185051 0.30229730
v 0.12637308 0.17135206 0.26986692
v 0.11632055 0.15242705 0.32393208
v 0.12637308 0.13612446 0.28936011
v 0.11632055 0.11064348 0.34049693
v 0.12637308 0.09879896 0.30408928
v 0.11632055 0.06706789 0.35168585
v 0.12637308 0.05994370 0.31409809
v 0.11632055 0.02248707 0.35732401
v 0.12637308 0.01995209 0.31903696
v 0.11632055 -0.02248711 0.35732401
v 0.12637308 -0.02012694 0.31921178
v 0.11632055 -0.06706792 0.35168585
v 0.12637308 -0.05998743 0.31436032
v 0.11632055 -0.11064348 0.34049693
v 0.12637308 -0.09897378 0.30457005
v 0.11632055 -0.15242708 0.32393208
v 0.12637308 -0.13625559 0.28957865
v 0.11632055 -0.19180679 0.30229730
v 0.12637308 -0.17135206 0.27004177
v 0.11632055 -0.22821446 0.27585474
v 0.12637308 -0.20365131 0.24639644
v 0.11632055 -0.26099450 0.24508524
v 0.12637308 -0.23310961 0.21890493
v 0.11632055 -0.28966606 0.21042584
v 0.12637308 -0.25867802 0.18796060
v 0.11632055 -0.31374845 0.17248844
v 0.12637308 -0.28018171 0.15408792
v 0.11632055 -0.33289197 0.13179751
v 0.12637308 -0.29722732 0.11759284
v 0.11632055 -0.34679070 0.08905238
v 0.12637308 -0.30977112 0.07952431
v 0.11632055 -0.35518238 0.04486493
v 0.12637308 -0.31750721 0.04010088
v 0.11632055 -0.35802332 0.00002185
v 0.12637308 -0.32026073 0.00002185
v 0.11632055 -0.35518238 -0.04486492
v 0.12637308 -0.31750721 -0.04010087
v 0.11632055 -0.34679070 -0.08900866
v 0.12637308 -0.30977112 -0.07952431
v 0.11632055 -0.33289197 -0.13179749
v 0.12637308 -0.29722732 -0.11754912
v 0.11632055 -0.31374845 -0.17244470
v 0.12637308 -0.28022543 -0.15404421
v 0.11632055 -0.28966606 -0.21042585
v 0.12637308 -0.25867802 -0.18791687
v 0.11632055 -0.26099450 -0.24508524
v 0.12637308 -0.23310961 -0.21886122
v 0.11632055 -0.22821446 -0.27585470
v 0.12637308 -0.20369502 -0.24635273
v 0.11632055 -0.19185050 -0.30225354
v 0.12637308 -0.17135206 -0.27004176
v 0.11632055 -0.15242708 -0.32393211
v 0.12637308 -0.13625559 -0.28957861
v 0.11632055 -0.11064348 -0.34049689
v 0.12637308 -0.09897378 -0.30457002
v 0.11632055 -0.06706792 -0.35168582
v 0.12637308 -0.05998743 -0.31436032
v 0.12868954 -0.05286324 -0.27707851
v 0.12868954 -0.01772308 -0.28105580
v 0.12868954 0.01746082 -0.28070616
v 0.12868954 0.05277580 -0.27651035
v 0.12868954 0.08695444 -0.26768160
v 0.12868954 0.11982188 -0.25474441
v 0.12868954 0.15089729 -0.23739284
v 0.12868954 0.17956892 -0.21693813
v 0.12868954 0.20561811 -0.19307428
v 0.12873324 0.22852036 -0.16601985
v 0.12868954 0.24718317 -0.13590592
v 0.12868954 0.26182487 -0.10373780
v 0.12868954 0.27240190 -0.07012736
v 0.12868954 0.27930757 -0.03524944
v 0.12868954 0.28144917 0.00002185
v 0.12868954 0.27930757 0.03524944
v 0.12868954 0.27240190 0.07017109
v 0.12868954 0.26182487 0.10373783
v 0.12868954 0.24718317 0.13590594
v 0.12873324 0.22852036 0.16601985
v 0.12868954 0.20561811 0.19311799
v 0.12868954 0.17956892 0.21698185
v 0.12868954 0.15089729 0.23739288
v 0.12868954 0.11982188 0.25474441
v 0.12868954 0.08695444 0.26768160
v 0.12868954 0.05277580 0.27651033
v 0.12868954 0.01746082 0.28074989
v 0.12868954 -0.01772308 0.28109953
v 0.12868954 -0.05286324 0.27707854
v 0.12873324 -0.08730412 0.26864314
v 0.12868954 -0.12008412 0.25522518
v 0.12868954 -0.15085364 0.23782993
v 0.12868954 -0.17913185 0.21685072
v 0.12868954 -0.20522475 0.19268093
v 0.12868954 -0.22768998 0.16545166
v 0.12868954 -0.24665868 0.13564371
v 0.12868954 -0.26160637 0.10334447
v 0.12868954 -0.27279529 0.06999627
v 0.12868954 -0.27987576 0.03533686
v 0.12873324 -0.28245446 0.00002185
v 0.12868954 -0.27987576 -0.03533685
v 0.12868954 -0.27279529 -0.06999623
v 0.12868954 -0.26160637 -0.10334444
v 0.12868954 -0.24665868 -0.13564369
v 0.12868954 -0.22768998 -0.16545164
v 0.12868954 -0.20522475 -0.19268089
v 0.12868954 -0.17913185 -0.21685069
v 0.12868954 -0.15085364 -0.23782992
v 0.12868954 -0.12008412 -0.25522518
v 0.12873324 -0.08730412 -0.26864314
v 0.12873324 -0.08730412 -0.26864314
v 0.12868954 -0.05286324 -0.27707851
v 0.12637308 -0.05998743 -0.31436032
v 0.12637308 -0.02012694 -0.31916809
v 0.12868954 -0.01772308 -0.28105580
v 0.12868954 0.01746082 -0.28070616
v 0.12637308 0.01995209 -0.31903696
v 0.12868954 0.05277580 -0.27651035
v 0.12637308 0.05994370 -0.31409806
v 0.12868954 0.08695444 -0.26768160
v 0.12637308 0.09879896 -0.30408925
v 0.12868954 0.11982188 -0.25474441
v 0.12637308 0.13612446 -0.28931641
v 0.12637308 0.17135206 -0.26982319
v 0.12868954 0.15089729 -0.23739284
v 0.12868954 0.17956892 -0.21693813
v 0.12637308 0.20386985 -0.24639642
v 0.12868954 0.20561811 -0.19307428
v 0.12637308 0.23328444 -0.21907973
v 0.12873324 0.22852036 -0.16601985
v 0.12637308 0.25907138 -0.18822282
v 0.12637308 0.28044394 -0.15417534
v 0.12868954 0.24718317 -0.13590592
v 0.12637308 0.29735842 -0.11776766
v 0.12868954 0.26182487 -0.10373780
v 0.12868954 0.27240190 -0.07012736
v 0.12637308 0.30959627 -0.07956803
v 0.12868954 0.27930757 -0.03524944
v 0.12637308 0.31724498 -0.04005718
v 0.12868954 0.28144917 0.00002185
v 0.12637308 0.31973627 0.00002185
v 0.12868954 0.27930757 0.03524944
v 0.12637308 0.31724498 0.04005719
v 0.12637308 0.30959627 0.07961172
v 0.12868954 0.27240190 0.07017109
v 0.12868954 0.26182487 0.10373783
v 0.12637308 0.29735842 0.11776766
v 0.12868954 0.24718317 0.13590594
v 0.12637308 0.28044394 0.15417534
v 0.12873324 0.22852036 0.16601985
v 0.12637308 0.25907138 0.18822284
v 0.12637308 0.23332813 0.21907977
v 0.12868954 0.20561811 0.19311799
v 0.12637308 0.20386985 0.24639644
v 0.12868954 0.17956892 0.21698185
v 0.12868954 0.15089729 0.23739288
v 0.12637308 0.17135206 0.26986692
v 0.12868954 0.11982188 0.25474441
v 0.12637308 0.13612446 0.28936011
v 0.12868954 0.08695444 0.26768160
v 0.12637308 0.09879896 0.30408928
v 0.12868954 0.05277580 0.27651033
v 0.12637308 0.05994370 0.31409809
v 0.12637308 0.01995209 0.31903696
v 0.12868954 0.01746082 0.28074989
v 0.12868954 -0.01772308 0.28109953
v 0.12637308 -0.02012694 0.31921178
v 0.12868954 -0.05286324 0.27707854
v 0.12637308 -0.05998743 0.31436032
v 0.12873324 -0.08730412 0.26864314
v 0.12637308 -0.09897378 0.30457005
v 0.12637308 -0.13625559 0.28957865
v 0.12868954 -0.12008412 0.25522518
v 0.12637308 -0.17135206 0.27004177
v 0.12868954 -0.15085364 0.23782993
v 0.12868954 -0.17913185 0.21685072
v 0.12637308 -0.20365131 0.24639644
v 0.12868954 -0.20522475 0.19268093
v 0.12637308 -0.23310961 0.21890493
v 0.12868954 -0.22768998 0.16545166
v 0.12637308 -0.25867802 0.18796060
v 0.12868954 -0.24665868 0.13564371
v 0.12637308 -0.28018171 0.15408792
v 0.12637308 -0.29722732 0.11759284
v 0.12868954 -0.26160637 0.10334447
v 0.12868954 -0.27279529 0.06999627
v 0.12637308 -0.30977112 0.07952431
v 0.12868954 -0.27987576 0.03533686
v 0.12637308 -0.31750721 0.04010088
v 0.12873324 -0.28245446 0.00002185
v 0.12637308 -0.32026073 0.00002185
v 0.12637308 -0.31750721 -0.04010087
v 0.12868954 -0.27987576 -0.03533685
v 0.12637308 -0.30977112 -0.07952431
v 0.12868954 -0.27279529 -0.06999623
v 0.12868954 -0.26160637 -0.10334444
v 0.12637308 -0.29722732 -0.11754912
v 0.12868954 -0.24665868 -0.13564369
v 0.12637308 -0.28022543 -0.15404421
v 0.12868954 -0.22768998 -0.16545164
v 0.12637308 -0.25867802 -0.18791687
v 0.12868954 -0.20522475 -0.19268089
v 0.12637308 -0.23310961 -0.21886122
v 0.12637308 -0.20369502 -0.24635273
v 0.12868954 -0.17913185 -0.21685069
v 0.12868954 -0.15085364 -0.23782992
v 0.12637308 -0.17135206 -0.27004176
v 0.12868954 -0.12008412 -0.25522518
v 0.12637308 -0.13625559 -0.28957861
v 0.12637308 -0.09897378 -0.30457002
v 0.11632055 -0.06706792 -0.35168582
v 0.11632055 -0.02248711 -0.35732400
v 0.11632055 0.02248707 -0.35732400
v 0.11632055 0.06706789 -0.35168582
v 0.11632055 0.11064348 -0.34049689
v 0.11632055 0.15242705 -0.32393211
v 0.11632055 0.19180676 -0.30229729
v 0.11632055 0.22821447 -0.27585470
v 0.11632055 0.26099446 -0.24508524
v 0.11632055 0.28966603 -0.21042585
v 0.11632055 0.31374845 -0.17248845
v 0.11632055 0.33289197 -0.13179749
v 0.11632055 0.34679070 -0.08905238
v 0.11632055 0.35518238 -0.04486492
v 0.11632055 0.35802331 0.00002185
v 0.11632055 0.35518238 0.04486493
v 0.11632055 0.34679070 0.08905238
v 0.11632055 0.33289197 0.13179751
v 0.11632055 0.31374845 0.17248844
v 0.11632055 0.28966603 0.21042584
v 0.11632055 0.26099446 0.24508524
v 0.11632055 0.22821447 0.27585474
v 0.11632055 0.19185051 0.30229730
v 0.11632055 0.15242705 0.32393208
v 0.11632055 0.11064348 0.34049693
v 0.11632055 0.06706789 0.35168585
v 0.11632055 0.02248707 0.35732401
v 0.11632055 -0.02248711 0.35732401
v 0.11632055 -0.06706792 0.35168585
v 0.11632055 -0.11064348 0.34049693
v 0.11632055 -0.15242708 0.32393208
v 0.11632055 -0.19180679 0.30229730
v 0.11632055 -0.22821446 0.27585474
v 0.11632055 -0.26099450 0.24508524
v 0.11632055 -0.28966606 0.21042584
v 0.11632055 -0.31374845 0.17248844
v 0.11632055 -0.33289197 0.13179751
v 0.11632055 -0.34679070 0.08905238
v 0.11632055 -0.35518238 0.04486493
v 0.11632055 -0.35802332 0.00002185
v 0.11632055 -0.35518238 -0.04486492
v 0.11632055 -0.34679070 -0.08900866
v 0.11632055 -0.33289197 -0.13179749
v 0.11632055 -0.31374845 -0.17244470
v 0.11632055 -0.28966606 -0.21042585
v 0.11632055 -0.26099450 -0.24508524
v 0.11632055 -0.22821446 -0.27585470
v 0.11632055 -0.19185050 -0.30225354
v 0.11632055 -0.15242708 -0.32393211
v 0.11632055 -0.11064348 -0.34049689
vt 0.00000000 0.00000000
vt 0.00000000 0.00000000
vt 0.00000000 0.00000000
vt 0.00000000 0.00000000
vt 0.00000000 0.00000000
vt 0.00000000 0.00000000
vt 0.00000000 0.00000000
vt 0.00000000 0.00000000
vt 0.00000000 0.00000000
vt 0.00000000 0.00000000
vt 0.00000000 0.00000000
vt 0.00000000 0.00000000
vt 0.00000000 0.00000000
vt 0.00000000 0.00000000
vt 0.00000000 0.00000000
vt 0.00000000 0.00000000
vt 0.00000000 0.00000000
vt 0.00000000 0.00000000
vt 0.00000000 0.00000000
vt 0.00000000 0.00000000
vt 0.00000000 0.00000000
vt 0.00000000 0.00000000
vt 0.00000000 0.00000000
vt 0.00000000 0.00000000
vt 0.00000000 0.00000000
vt 0.00000000 0.00000000
vt 0.00000000 0.00000000
vt 0.00000000 0.00000000
vt 0.00000000 0.00000000
vt 0.00000000 0.00000000
vt 0.00000000 0.00000000
vt 0.00000000 0.00000000
vt 0.00000000 0.00000000
vt 0.00000000 0.00000000
vt 0.00000000 0.00000000
vt 0.00000000 0.00000000
vt 0.00000000 0.00000000
vt 0.00000000 0.00000000
vt 0.00000000 0.00000000
vt 0.00000000 0.00000000
vt 0.00000000 0.00000000
vt 0.00000000 0.00000000
vt 0.00000000 0.00000000
vt 0.00000000 0.00000000
vt 0.00000000 0.00000000
vt 0.00000000 0.00000000
vt 0.00000000 0.00000000
vt 0.00000000 0.00000000
vt 0.00000000 0.00000000
vt 0.00000000 0.00000000
vt 0.00000000 0.00000000
vt 0.00000000 0.00000000
vt 0.00000000 0.00000000
vt 0.00000000 0.00000000
vt 0.00000000 0.00000000
vt 0.00000000 0.00000000
vt 0.00000000 0.00000000
vt 0.00000000 0.00000000
vt 0.00000000 0.00000000
vt 0.00000000 0.00000000
vt 0.00000000 0.00000000
vt 0.00000000 0.00000000
vt 0.00000000 0.00000000
vt 0.00000000 0.00000000
vt 0.00000000 0.00000000
vt 0.00000000 0.00000000
vt 0.00000000 0.00000000
vt 0.00000000 0.00000000
vt 0.00000000 0.00000000
vt 0.00000000 0.00000000
vt 0.00000000 0.00000000
vt 0.00000000 0.00000000
vt 0.00000000 0.00000000
vt 0.00000000 0.00000000
vt 0.00000000 0.00000000
vt 0.00000000 0.00000000
vt 0.00000000 0.00000000
vt 0.00000000 0.00000000
vt 0.00000000 0.00000000
vt 0.00000000 0.00000000
vt 0.00000000 0.00000000
vt 0.00000000 0.00000000
vt 0.00000000 0.00000000
vt 0.00000000 0.00000000
vt 0.00000000 0.00000000
vt 0.00000000 0.00000000
vt 0.00000000 0.00000000
vt 0.00000000 0.00000000
vt 0.00000000 0.00000000
vt 0.00000000 0.00000000
vt 0.00000000 0.00000000
vt 0.00000000 0.00000000
vt 0.00000000 0.00000000
vt 0.00000000 0.00000000
vt 0.00000000 0.00000000
vt 0.00000000 0.00000000
vt 0.00000000 0.00000000
vt 0.00000000 0.00000000
vt 0.00000000 0.00000000
vt 0.00000000 0.00000000
vt 0.00000000 0.00000000
vt 0.00000000 0.00000000
vt 0.00000000 0.00000000
vt 0.00000000 0.00000000
vt 0.00000000 0.00000000
vt 0.00000000 0.00000000
vt 0.00000000 0.00000000
vt 0.00000000 0.00000000
vt 0.00000000 0.00000000
vt 0.00000000 0.00000000
vt 0.00000000 0.00000000
vt 0.00000000 0.00000000
vt 0.00000000 0.00000000
vt 0.00000000 0.00000000
vt 0.00000000 0.00000000
vt 0.00000000 0.00000000
vt 0.00000000 0.00000000
vt 0.00000000 0.00000000
vt 0.00000000 0.00000000
vt 0.00000000 0.00000000
vt 0.00000000 0.00000000
vt 0.00000000 0.00000000
vt 0.00000000 0.00000000
vt 0.00000000 0.00000000
vt 0.00000000 0.00000000
vt 0.00000000 0.00000000
vt 0.00000000 0.00000000
vt 0.00000000 0.00000000
vt 0.00000000 0.00000000
vt 0.00000000 0.00000000
vt 0.00000000 0.00000000
vt 0.00000000 0.00000000
vt 0.00000000 0.00000000
vt 0.00000000 0.00000000
vt 0.00000000 0.00000000
vt 0.00000000 0.00000000
vt 0.00000000 0.00000000
vt 0.00000000 0.00000000
vt 0.00000000 0.00000000
vt 0.00000000 0.00000000
vt 0.00000000 0.00000000
vt 0.00000000 0.00000000
vt 0.00000000 0.00000000
vt 0.00000000 0.00000000
vt 0.00000000 0.00000000
vt 0.00000000 0.00000000
vt 0.00000000 0.00000000
vt 0.00000000 0.00000000
vt 0.00000000 0.00000000
vt 0.00000000 0.00000000
vt 0.00000000 0.00000000
vt 0.00000000 0.00000000
vt 0.00000000 0.00000000
vt 0.00000000 0.00000000
vt 0.00000000 0.00000000
vt 0.00000000 0.00000000
vt 0.00000000 0.00000000
vt 0.00000000 0.00000000
vt 0.00000000 0.00000000
vt 0.00000000 0.00000000
vt 0.00000000 0.00000000
vt 0.00000000 0.00000000
vt 0.00000000 0.00000000
vt 0.00000000 0.00000000
vt 0.00000000 0.00000000
vt 0.00000000 0.00000000
vt 0.00000000 0.00000000
vt 0.00000000 0.00000000
vt 0.00000000 0.00000000
vt 0.00000000 0.00000000
vt 0.00000000 0.00000000
vt 0.00000000 0.00000000
vt 0.00000000 0.00000000
vt 0.00000000 0.00000000
vt 0.00000000 0.00000000
vt 0.00000000 0.00000000
vt 0.00000000 0.00000000
vt 0.00000000 0.00000000
vt 0.00000000 0.00000000
vt 0.00000000 0.00000000
vt 0.00000000 0.00000000
vt 0.00000000 0.00000000
vt 0.00000000 0.00000000
vt 0.00000000 0.00000000
vt 0.00000000 0.00000000
vt 0.00000000 0.00000000
vt 0.00000000 0.00000000
vt 0.00000000 0.00000000
vt 0.00000000 0.00000000
vt 0.00000000 0.00000000
vt 0.00000000 0.00000000
vt 0.00000000 0.00000000
vt 0.00000000 0.00000000
vt 0.00000000 0.00000000
vt 0.00000000 0.00000000
vt 0.00000000 0.00000000
vt 0.00000000 0.00000000
vt 0.00000000 0.00000000
vt 0.00000000 0.00000000
vt 0.00000000 0.00000000
vt 0.00000000 0.00000000
vt 0.00000000 0.00000000
vt 0.00000000 0.00000000
vt 0.00000000 0.00000000
vt 0.00000000 0.00000000
vt 0.00000000 0.00000000
vt 0.00000000 0.00000000
vt 0.00000000 0.00000000
vt 0.00000000 0.00000000
vt 0.00000000 0.00000000
vt 0.00000000 0.00000000
vt 0.00000000 0.00000000
vt 0.00000000 0.00000000
vt 0.00000000 0.00000000
vt 0.00000000 0.00000000
vt 0.00000000 0.00000000
vt 0.00000000 0.00000000
vt 0.00000000 0.00000000
vt 0.00000000 0.00000000
vt 0.00000000 0.00000000
vt 0.00000000 0.00000000
vt 0.00000000 0.00000000
vt 0.00000000 0.00000000
vt 0.00000000 0.00000000
vt 0.00000000 0.00000000
vt 0.00000000 0.00000000
vt 0.00000000 0.00000000
vt 0.00000000 0.00000000
vt 0.00000000 0.00000000
vt 0.00000000 0.00000000
vt 0.00000000 0.00000000
vt 0.00000000 0.00000000
vt 0.00000000 0.00000000
vt 0.00000000 0.00000000
vt 0.00000000 0.00000000
vt 0.00000000 0.00000000
vt 0.00000000 0.00000000
vt 0.00000000 0.00000000
vt 0.00000000 0.00000000
vt 0.00000000 0.00000000
vt 0.00000000 0.00000000
vt 0.00000000 0.00000000
vt 0.00000000 0.00000000
vt 0.00000000 0.00000000
vt 0.00000000 0.00000000
vt 0.00000000 0.00000000
vt 0.00000000 0.00000000
vt 0.00000000 0.00000000
vt 0.00000000 0.00000000
vt 0.00000000 0.00000000
vt 0.00000000 0.00000000
vt 0.00000000 0.00000000
vt 0.00000000 0.00000000
vt 0.00000000 0.00000000
vt 0.00000000 0.00000000
vt 0.00000000 0.00000000
vt 0.00000000 0.00000000
vt 0.00000000 0.00000000
vt 0.00000000 0.00000000
vt 0.00000000 0.00000000
vt 0.00000000 0.00000000
vt 0.00000000 0.00000000
vt 0.00000000 0.00000000
vt 0.00000000 0.00000000
vt 0.00000000 0.00000000
vt 0.00000000 0.00000000
vt 0.00000000 0.00000000
vt 0.00000000 0.00000000
vt 0.00000000 0.00000000
vt 0.00000000 0.00000000
vt 0.00000000 0.00000000
vt 0.00000000 0.00000000
vt 0.00000000 0.00000000
vt 0.00000000 0.00000000
vt 0.00000000 0.00000000
vt 0.00000000 0.00000000
vt 0.00000000 0.00000000
vt 0.00000000 0.00000000
vt 0.00000000 0.00000000
vt 0.00000000 0.00000000
vt 0.00000000 0.00000000
vt 0.00000000 0.00000000
vt 0.00000000 0.00000000
vt 0.00000000 0.00000000
vt 0.00000000 0.00000000
vt 0.00000000 0.00000000
vt 0.00000000 0.00000000
vt 0.00000000 0.00000000
vt 0.00000000 0.00000000
vt 0.00000000 0.00000000
vt 0.00000000 0.00000000
vt 0.00000000 0.00000000
vt 0.00000000 0.00000000
vt 0.00000000 0.00000000
vt 0.00000000 0.00000000
vt 0.00000000 0.00000000
vt 0.00000000 0.00000000
vt 0.00000000 0.00000000
vt 0.00000000 0.00000000
vt 0.00000000 0.00000000
vt 0.00000000 0.00000000
vt 0.00000000 0.00000000
vt 0.00000000 0.00000000
vt 0.00000000 0.00000000
vt 0.00000000 0.00000000
vt 0.00000000 0.00000000
vt 0.00000000 0.00000000
vt 0.00000000 0.00000000
vt 0.00000000 0.00000000
vt 0.00000000 0.00000000
vt 0.00000000 0.00000000
vt 0.00000000 0.00000000
vt 0.00000000 0.00000000
vt 0.00000000 0.00000000
vt 0.00000000 0.00000000
vt 0.00000000 0.00000000
vt 0.00000000 0.00000000
vt 0.00000000 0.00000000
vt 0.00000000 0.00000000
vt 0.00000000 0.00000000
vt 0.00000000 0.00000000
vt 0.00000000 0.00000000
vt 0.00000000 0.00000000
vt 0.00000000 0.00000000
vt 0.00000000 0.00000000
vt 0.00000000 0.00000000
vt 0.00000000 0.00000000
vt 0.00000000 0.00000000
vt 0.00000000 0.00000000
vt 0.00000000 0.00000000
vt 0.00000000 0.00000000
vt 0.00000000 0.00000000
vt 0.00000000 0.00000000
vt 0.00000000 0.00000000
vt 0.00000000 0.00000000
vt 0.00000000 0.00000000
vt 0.00000000 0.00000000
vt 0.00000000 0.00000000
vt 0.00000000 0.00000000
vt 0.00000000 0.00000000
vt 0.00000000 0.00000000
vt 0.00000000 0.00000000
vt 0.00000000 0.00000000
vt 0.00000000 0.00000000
vt 0.00000000 0.00000000
vt 0.00000000 0.00000000
vt 0.00000000 0.00000000
vt 0.00000000 0.00000000
vt 0.00000000 0.00000000
vt 0.00000000 0.00000000
vt 0.00000000 0.00000000
vt 0.00000000 0.00000000
vt 0.00000000 0.00000000
vt 0.00000000 0.00000000
vt 0.00000000 0.00000000
vt 0.00000000 0.00000000
vt 0.00000000 0.00000000
vt 0.00000000 0.00000000
vt 0.00000000 0.00000000
vt 0.00000000 0.00000000
vt 0.00000000 0.00000000
vt 0.00000000 0.00000000
vt 0.00000000 0.00000000
vt 0.00000000 0.00000000
vt 0.00000000 0.00000000
vt 0.00000000 0.00000000
vt 0.00000000 0.00000000
vt 0.00000000 0.00000000
vt 0.00000000 0.00000000
vt 0.00000000 0.00000000
vt 0.00000000 0.00000000
vt 0.00000000 0.00000000
vt 0.00000000 0.00000000
vt 0.00000000 0.00000000
vt 0.00000000 0.00000000
vt 0.00000000 0.00000000
vt 0.00000000 0.00000000
vt 0.00000000 0.00000000
vt 0.00000000 0.00000000
vt 0.00000000 0.00000000
vt 0.00000000 0.00000000
vt 0.00000000 0.00000000
vt 0.00000000 0.00000000
vt 0.00000000 0.00000000
vt 0.00000000 0.00000000
vt 0.00000000 0.00000000
vt 0.00000000 0.00000000
vt 0.00000000 0.00000000
vt 0.00000000 0.00000000
vt 0.00000000 0.00000000
vt 0.00000000 0.00000000
vt 0.00000000 0.00000000
vt 0.00000000 0.00000000
vt 0.00000000 0.00000000
vt 0.00000000 0.00000000
vt 0.00000000 0.00000000
vt 0.00000000 0.00000000
vt 0.00000000 0.00000000
vt 0.00000000 0.00000000
vt 0.00000000 0.00000000
vt 0.00000000 0.00000000
vt 0.00000000 0.00000000
vt 0.00000000 0.00000000
vt 0.00000000 0.00000000
vt 0.00000000 0.00000000
vt 0.00000000 0.00000000
vt 0.00000000 0.00000000
vt 0.00000000 0.00000000
vt 0.00000000 0.00000000
vt 0.00000000 0.00000000
vt 0.00000000 0.00000000
vt 0.00000000 0.00000000
vt 0.00000000 0.00000000
vt 0.00000000 0.00000000
vt 0.00000000 0.00000000
vt 0.00000000 0.00000000
vt 0.00000000 0.00000000
vt 0.00000000 0.00000000
vt 0.00000000 0.00000000
vt 0.00000000 0.00000000
vt 0.00000000 0.00000000
vt 0.00000000 0.00000000
vt 0.00000000 0.00000000
vt 0.00000000 0.00000000
vt 0.00000000 0.00000000
vt 0.00000000 0.00000000
vt 0.00000000 0.00000000
vt 0.00000000 0.00000000
vt 0.00000000 0.00000000
vt 0.00000000 0.00000000
vt 0.00000000 0.00000000
vt 0.00000000 0.00000000
vt 0.00000000 0.00000000
vt 0.00000000 0.00000000
vt 0.00000000 0.00000000
vt 0.00000000 0.00000000
vt 0.00000000 0.00000000
vt 0.00000000 0.00000000
vt 0.00000000 0.00000000
vt 0.00000000 0.00000000
vt 0.00000000 0.00000000
vt 0.00000000 0.00000000
vt 0.00000000 0.00000000
vt 0.00000000 0.00000000
vt 0.00000000 0.00000000
vt 0.00000000 0.00000000
vt 0.00000000 0.00000000
vt 0.00000000 0.00000000
vt 0.00000000 0.00000000
vt 0.00000000 0.00000000
vt 0.00000000 0.00000000
vt 0.00000000 0.00000000
vt 0.00000000 0.00000000
vt 0.00000000 0.00000000
vt 0.00000000 0.00000000
vt 0.00000000 0.00000000
vt 0.00000000 0.00000000
vt 0.00000000 0.00000000
vt 0.00000000 0.00000000
vt 0.00000000 0.00000000
vt 0.00000000 0.00000000
vt 0.00000000 0.00000000
vt 0.00000000 0.00000000
vt 0.00000000 0.00000000
vt 0.00000000 0.00000000
vt 0.00000000 0.00000000
vt 0.00000000 0.00000000
vt 0.00000000 0.00000000
vt 0.00000000 0.00000000
vt 0.00000000 0.00000000
vt 0.00000000 0.00000000
vt 0.00000000 0.00000000
vt 0.00000000 0.00000000
vt 0.00000000 0.00000000
vt 0.00000000 0.00000000
vt 0.00000000 0.00000000
vt 0.00000000 0.00000000
vt 0.00000000 0.00000000
vt 0.00000000 0.00000000
vt 0.00000000 0.00000000
vt 0.00000000 0.00000000
vt 0.00000000 0.00000000
vt 0.00000000 0.00000000
vt 0.00000000 0.00000000
vt 0.00000000 0.00000000
vt 0.00000000 0.00000000
vt 0.00000000 0.00000000
vt 0.00000000 0.00000000
vt 0.00000000 0.00000000
vt 0.00000000 0.00000000
vt 0.00000000 0.00000000
vt 0.00000000 0.00000000
vt 0.00000000 0.00000000
vt 0.00000000 0.00000000
vt 0.00000000 0.00000000
vt 0.00000000 0.00000000
vt 0.00000000 0.00000000
vt 0.00000000 0.00000000
vt 0.00000000 0.00000000
vt 0.00000000 0.00000000
vt 0.00000000 0.00000000
vt 0.00000000 0.00000000
vt 0.00000000 0.00000000
vt 0.00000000 0.00000000
vt 0.00000000 0.00000000
vt 0.00000000 0.00000000
vt 0.00000000 0.00000000
vt 0.00000000 0.00000000
vt 0.00000000 0.00000000
vt 0.00000000 0.00000000
vt 0.00000000 0.00000000
vt 0.00000000 0.00000000
vt 0.00000000 0.00000000
vt 0.00000000 0.00000000
vt 0.00000000 0.00000000
vt 0.00000000 0.00000000
vt 0.00000000 0.00000000
vt 0.00000000 0.00000000
vt 0.00000000 0.00000000
vt 0.00000000 0.00000000
vt 0.00000000 0.00000000
vt 0.00000000 0.00000000
vt 0.00000000 0.00000000
vt 0.00000000 0.00000000
vt 0.00000000 0.00000000
vt 0.00000000 0.00000000
vt 0.00000000 0.00000000
vt 0.00000000 0.00000000
vt 0.00000000 0.00000000
vt 0.00000000 0.00000000
vt 0.00000000 0.00000000
vt 0.00000000 0.00000000
vt 0.00000000 0.00000000
vt 0.00000000 0.00000000
vt 0.00000000 0.00000000
vt 0.00000000 0.00000000
vt 0.00000000 0.00000000
vt 0.00000000 0.00000000
vt 0.00000000 0.00000000
vt 0.00000000 0.00000000
vt 0.00000000 0.00000000
vt 0.00000000 0.00000000
vt 0.00000000 0.00000000
vt 0.00000000 0.00000000
vt 0.00000000 0.00000000
vt 0.00000000 0.00000000
vt 0.00000000 0.00000000
vt 0.00000000 0.00000000
vt 0.00000000 0.00000000
vt 0.00000000 0.00000000
vt 0.00000000 0.00000000
vt 0.00000000 0.00000000
vt 0.00000000 0.00000000
vt 0.00000000 0.00000000
vt 0.00000000 0.00000000
vt 0.00000000 0.00000000
vt 0.00000000 0.00000000
vt 0.00000000 0.00000000
vt 0.00000000 0.00000000
vt 0.00000000 0.00000000
vt 0.00000000 0.00000000
vt 0.00000000 0.00000000
vt 0.00000000 0.00000000
vt 0.00000000 0.00000000
vt 0.00000000 0.00000000
vt 0.00000000 0.00000000
vt 0.00000000 0.00000000
vt 0.00000000 0.00000000
vt 0.00000000 0.00000000
vt 0.00000000 0.00000000
vt 0.00000000 0.00000000
vt 0.00000000 0.00000000
vt 0.00000000 0.00000000
vt 0.00000000 0.00000000
vt 0.00000000 0.00000000
vt 0.00000000 0.00000000
vt 0.00000000 0.00000000
vt 0.00000000 0.00000000
vt 0.00000000 0.00000000
vt 0.00000000 0.00000000
vt 0.00000000 0.00000000
vt 0.00000000 0.00000000
vt 0.00000000 0.00000000
vt 0.00000000 0.00000000
vt 0.00000000 0.00000000
vt 0.00000000 0.00000000
vt 0.00000000 0.00000000
vt 0.00000000 0.00000000
vt 0.00000000 0.00000000
vt 0.00000000 0.00000000
vt 0.00000000 0.00000000
vt 0.00000000 0.00000000
vt 0.00000000 0.00000000
vt 0.00000000 0.00000000
vt 0.00000000 0.00000000
vt 0.00000000 0.00000000
vt 0.00000000 0.00000000
vt 0.00000000 0.00000000
vt 0.00000000 0.00000000
vt 0.00000000 0.00000000
vt 0.00000000 0.00000000
vt 0.00000000 0.00000000
vt 0.00000000 0.00000000
vt 0.00000000 0.00000000
vt 0.00000000 0.00000000
vt 0.00000000 0.00000000
vt 0.00000000 0.00000000
vt 0.00000000 0.00000000
vt 0.00000000 0.00000000
vt 0.00000000 0.00000000
vt 0.00000000 0.00000000
vt 0.00000000 0.00000000
vt 0.00000000 0.00000000
vt 0.00000000 0.00000000
vt 0.00000000 0.00000000
vt 0.00000000 0.00000000
vt 0.00000000 0.00000000
vt 0.00000000 0.00000000
vt 0.00000000 0.00000000
vt 0.00000000 0.00000000
vt 0.00000000 0.00000000
vt 0.00000000 0.00000000
vt 0.00000000 0.00000000
vt 0.00000000 0.00000000
vt 0.00000000 0.00000000
vt 0.00000000 0.00000000
vt 0.00000000 0.00000000
vt 0.00000000 0.00000000
vt 0.00000000 0.00000000
vt 0.00000000 0.00000000
vt 0.00000000 0.00000000
vt 0.00000000 0.00000000
vt 0.00000000 0.00000000
vt 0.00000000 0.00000000
vt 0.00000000 0.00000000
vt 0.00000000 0.00000000
vt 0.00000000 0.00000000
vt 0.00000000 0.00000000
vt 0.00000000 0.00000000
vt 0.00000000 0.00000000
vt 0.00000000 0.00000000
vt 0.00000000 0.00000000
vt 0.00000000 0.00000000
vt 0.00000000 0.00000000
vt 0.00000000 0.00000000
vt 0.00000000 0.00000000
vt 0.00000000 0.00000000
vt 0.00000000 0.00000000
vt 0.00000000 0.00000000
vt 0.00000000 0.00000000
vt 0.00000000 0.00000000
vt 0.00000000 0.00000000
vt 0.00000000 0.00000000
vt 0.00000000 0.00000000
vt 0.00000000 0.00000000
vt 0.00000000 0.00000000
vt 0.00000000 0.00000000
vt 0.00000000 0.00000000
vt 0.00000000 0.00000000
vt 0.00000000 0.00000000
vt 0.00000000 0.00000000
vt 0.00000000 0.00000000
vt 0.00000000 0.00000000
vt 0.00000000 0.00000000
vt 0.00000000 0.00000000
vt 0.00000000 0.00000000
vt 0.00000000 0.00000000
vt 0.00000000 0.00000000
vt 0.00000000 0.00000000
vt 0.00000000 0.00000000
vt 0.00000000 0.00000000
vt 0.00000000 0.00000000
vt 0.00000000 0.00000000
vt 0.00000000 0.00000000
vt 0.00000000 0.00000000
vt 0.00000000 0.00000000
vt 0.00000000 0.00000000
vt 0.00000000 0.00000000
vt 0.00000000 0.00000000
vt 0.00000000 0.00000000
vt 0.00000000 0.00000000
vt 0.00000000 0.00000000
vt 0.00000000 0.00000000
vt 0.00000000 0.00000000
vt 0.00000000 0.00000000
vt 0.00000000 0.00000000
vt 0.00000000 0.00000000
vt 0.00000000 0.00000000
vt 0.00000000 0.00000000
vt 0.00000000 0.00000000
vt 0.00000000 0.00000000
vt 0.00000000 0.00000000
vt 0.00000000 0.00000000
vt 0.00000000 0.00000000
vt 0.00000000 0.00000000
vt 0.00000000 0.00000000
vt 0.00000000 0.00000000
vt 0.00000000 0.00000000
vt 0.00000000 0.00000000
vt 0.00000000 0.00000000
vt 0.00000000 0.00000000
vt 0.00000000 0.00000000
vt 0.00000000 0.00000000
vt 0.00000000 0.00000000
vt 0.00000000 0.00000000
vt 0.00000000 0.00000000
vt 0.00000000 0.00000000
vt 0.00000000 0.00000000
vt 0.00000000 0.00000000
vt 0.00000000 0.00000000
vt 0.00000000 0.00000000
vt 0.00000000 0.00000000
vt 0.00000000 0.00000000
vt 0.00000000 0.00000000
vt 0.00000000 0.00000000
vt 0.00000000 0.00000000
vt 0.00000000 0.00000000
vt 0.00000000 0.00000000
vt 0.00000000 0.00000000
vt 0.00000000 0.00000000
vt 0.00000000 0.00000000
vt 0.00000000 0.00000000
vt 0.00000000 0.00000000
vt 0.00000000 0.00000000
vt 0.00000000 0.00000000
vt 0.00000000 0.00000000
vt 0.00000000 0.00000000
vt 0.00000000 0.00000000
vt 0.00000000 0.00000000
vt 0.00000000 0.00000000
vt 0.00000000 0.00000000
vt 0.00000000 0.00000000
vt 0.00000000 0.00000000
vt 0.00000000 0.00000000
vt 0.00000000 0.00000000
vt 0.00000000 0.00000000
vt 0.00000000 0.00000000
vt 0.00000000 0.00000000
vt 0.00000000 0.00000000
vt 0.00000000 0.00000000
vt 0.00000000 0.00000000
vt 0.00000000 0.00000000
vt 0.00000000 0.00000000
vt 0.00000000 0.00000000
vt 0.00000000 0.00000000
vt 0.00000000 0.00000000
vt 0.00000000 0.00000000
vt 0.00000000 0.00000000
vt 0.00000000 0.00000000
vt 0.00000000 0.00000000
vt 0.00000000 0.00000000
vt 0.00000000 0.00000000
vt 0.00000000 0.00000000
vt 0.00000000 0.00000000
vt 0.00000000 0.00000000
vt 0.00000000 0.00000000
vt 0.00000000 0.00000000
vt 0.00000000 0.00000000
vt 0.00000000 0.00000000
vt 0.00000000 0.00000000
vt 0.00000000 0.00000000
vt 0.00000000 0.00000000
vt 0.00000000 0.00000000
vt 0.00000000 0.00000000
vt 0.00000000 0.00000000
vt 0.00000000 0.00000000
vt 0.00000000 0.00000000
vt 0.00000000 0.00000000
vt 0.00000000 0.00000000
vt 0.00000000 0.00000000
vt 0.00000000 0.00000000
vt 0.00000000 0.00000000
vt 0.00000000 0.00000000
vt 0.00000000 0.00000000
vt 0.00000000 0.00000000
vt 0.00000000 0.00000000
vt 0.00000000 0.00000000
vt 0.00000000 0.00000000
vt 0.00000000 0.00000000
vt 0.00000000 0.00000000
vt 0.00000000 0.00000000
vt 0.00000000 0.00000000
vt 0.00000000 0.00000000
vt 0.00000000 0.00000000
vt 0.00000000 0.00000000
vt 0.00000000 0.00000000
vt 0.00000000 0.00000000
vt 0.00000000 0.00000000
vt 0.00000000 0.00000000
vt 0.00000000 0.00000000
vt 0.00000000 0.00000000
vt 0.00000000 0.00000000
vt 0.00000000 0.00000000
vt 0.00000000 0.00000000
vt 0.00000000 0.00000000
vt 0.00000000 0.00000000
vt 0.00000000 0.00000000
vt 0.00000000 0.00000000
vt 0.00000000 0.00000000
vt 0.00000000 0.00000000
vt 0.00000000 0.00000000
vt 0.00000000 0.00000000
vt 0.00000000 0.00000000
vt 0.00000000 0.00000000
vt 0.00000000 0.00000000
vt 0.00000000 0.00000000
vt 0.00000000 0.00000000
vt 0.00000000 0.00000000
vt 0.00000000 0.00000000
vt 0.00000000 0.00000000
vt 0.00000000 0.00000000
vt 0.00000000 0.00000000
vt 0.00000000 0.00000000
vt 0.00000000 0.00000000
vt 0.00000000 0.00000000
vt 0.00000000 0.00000000
vt 0.00000000 0.00000000
vt 0.00000000 0.00000000
vt 0.00000000 0.00000000
vt 0.00000000 0.00000000
vt 0.00000000 0.00000000
vt 0.00000000 0.00000000
vt 0.00000000 0.00000000
vt 0.00000000 0.00000000
vt 0.00000000 0.00000000
vt 0.00000000 0.00000000
vt 0.00000000 0.00000000
vt 0.00000000 0.00000000
vt 0.00000000 0.00000000
vt 0.00000000 0.00000000
vt 0.00000000 0.00000000
vt 0.00000000 0.00000000
vt 0.00000000 0.00000000
vt 0.00000000 0.00000000
vt 0.00000000 0.00000000
vt 0.00000000 0.00000000
vt 0.00000000 0.00000000
vt 0.00000000 0.00000000
vt 0.00000000 0.00000000
vt 0.00000000 0.00000000
vt 0.00000000 0.00000000
vt 0.00000000 0.00000000
vt 0.00000000 0.00000000
vt 0.00000000 0.00000000
vt 0.00000000 0.00000000
vt 0.00000000 0.00000000
vt 0.00000000 0.00000000
vt 0.00000000 0.00000000
vt 0.00000000 0.00000000
vt 0.00000000 0.00000000
vt 0.00000000 0.00000000
vt 0.00000000 0.00000000
vt 0.00000000 0.00000000
vt 0.00000000 0.00000000
vt 0.00000000 0.00000000
vt 0.00000000 0.00000000
vt 0.00000000 0.00000000
vt 0.00000000 0.00000000
vt 0.00000000 0.00000000
vt 0.00000000 0.00000000
vt 0.00000000 0.00000000
vt 0.00000000 0.00000000
vt 0.00000000 0.00000000
vt 0.00000000 0.00000000
vt 0.00000000 0.00000000
vt 0.00000000 0.00000000
vt 0.00000000 0.00000000
vt 0.00000000 0.00000000
vt 0.00000000 0.00000000
vt 0.00000000 0.00000000
vt 0.00000000 0.00000000
vt 0.00000000 0.00000000
vt 0.00000000 0.00000000
vt 0.00000000 0.00000000
vt 0.00000000 0.00000000
vt 0.00000000 0.00000000
vt 0.00000000 0.00000000
vt 0.00000000 0.00000000
vt 0.00000000 0.00000000
vt 0.00000000 0.00000000
vt 0.00000000 0.00000000
vt 0.00000000 0.00000000
vt 0.00000000 0.00000000
vt 0.00000000 0.00000000
vt 0.00000000 0.00000000
vt 0.00000000 0.00000000
vt 0.00000000 0.00000000
vt 0.00000000 0.00000000
vt 0.00000000 0.00000000
vt 0.00000000 0.00000000
vt 0.00000000 0.00000000
vt 0.00000000 0.00000000
vt 0.00000000 0.00000000
vt 0.00000000 0.00000000
vt 0.00000000 0.00000000
vt 0.00000000 0.00000000
vt 0.00000000 0.00000000
vt 0.00000000 0.00000000
vt 0.00000000 0.00000000
vt 0.00000000 0.00000000
vt 0.00000000 0.00000000
vt 0.00000000 0.00000000
vt 0.00000000 0.00000000
vt 0.00000000 0.00000000
vt 0.00000000 0.00000000
vt 0.00000000 0.00000000
vt 0.00000000 0.00000000
vt 0.00000000 0.00000000
vt 0.00000000 0.00000000
vt 0.00000000 0.00000000
vt 0.00000000 0.00000000
vt 0.00000000 0.00000000
vt 0.00000000 0.00000000
vt 0.00000000 0.00000000
vt 0.00000000 0.00000000
vt 0.00000000 0.00000000
vt 0.00000000 0.00000000
vt 0.00000000 0.00000000
vt 0.00000000 0.00000000
vt 0.00000000 0.00000000
vt 0.00000000 0.00000000
vt 0.00000000 0.00000000
vt 0.00000000 0.00000000
vt 0.00000000 0.00000000
vt 0.00000000 0.00000000
vt 0.00000000 0.00000000
vt 0.00000000 0.00000000
vt 0.00000000 0.00000000
vt 0.00000000 0.00000000
vt 0.00000000 0.00000000
vt 0.00000000 0.00000000
vt 0.00000000 0.00000000
vt 0.00000000 0.00000000
vt 0.00000000 0.00000000
vt 0.00000000 0.00000000
vt 0.00000000 0.00000000
vt 0.00000000 0.00000000
vt 0.00000000 0.00000000
vt 0.00000000 0.00000000
vt 0.00000000 0.00000000
vt 0.00000000 0.00000000
vt 0.00000000 0.00000000
vt 0.00000000 0.00000000
vt 0.00000000 0.00000000
vt 0.00000000 0.00000000
vt 0.00000000 0.00000000
vt 0.00000000 0.00000000
vt 0.00000000 0.00000000
vt 0.00000000 0.00000000
vt 0.00000000 0.00000000
vt 0.00000000 0.00000000
vt 0.00000000 0.00000000
vt 0.00000000 0.00000000
vt 0.00000000 0.00000000
vt 0.00000000 0.00000000
vt 0.00000000 0.00000000
vt 0.00000000 0.00000000
vt 0.00000000 0.00000000
vt 0.00000000 0.00000000
vt 0.00000000 0.00000000
vt 0.00000000 0.00000000
vt 0.00000000 0.00000000
vt 0.00000000 0.00000000
vt 0.00000000 0.00000000
vt 0.00000000 0.00000000
vt 0.00000000 0.00000000
vt 0.00000000 0.00000000
vt 0.00000000 0.00000000
vt 0.00000000 0.00000000
vt 0.00000000 0.00000000
vt 0.00000000 0.00000000
vt 0.00000000 0.00000000
vt 0.00000000 0.00000000
vt 0.00000000 0.00000000
vt 0.00000000 0.00000000
vt 0.00000000 0.00000000
vt 0.00000000 0.00000000
vt 0.00000000 0.00000000
vt 0.00000000 0.00000000
vt 0.00000000 0.00000000
vt 0.00000000 0.00000000
vt 0.00000000 0.00000000
vt 0.00000000 0.00000000
vt 0.00000000 0.00000000
vt 0.00000000 0.00000000
vt 0.00000000 0.00000000
vt 0.00000000 0.00000000
vt 0.00000000 0.00000000
vt 0.00000000 0.00000000
vt 0.00000000 0.00000000
vt 0.00000000 0.00000000
vt 0.00000000 0.00000000
vt 0.00000000 0.00000000
vt 0.00000000 0.00000000
vt 0.00000000 0.00000000
vt 0.00000000 0.00000000
vt 0.00000000 0.00000000
vt 0.00000000 0.00000000
vt 0.00000000 0.00000000
vt 0.00000000 0.00000000
f 1/1 2/2 3/3
f 3/3 2/2 4/4
f 2/2 5/5 4/4
f 4/4 5/5 6/6
f 5/5 7/7 6/6
f 6/6 7/7 8/8
f 7/7 9/9 8/8
f 8/8 9/9 10/10
f 9/9 11/11 10/10
f 10/10 11/11 12/12
f 11/11 13/13 12/12
f 12/12 13/13 14/14
f 13/13 15/15 14/14
f 14/14 15/15 16/16
f 15/15 17/17 16/16
f 16/16 17/17 18/18
f 17/17 19/19 18/18
f 18/18 19/19 20/20
f 19/19 21/21 20/20
f 20/20 21/21 22/22
f 21/21 23/23 22/22
f 22/22 23/23 24/24
f 23/23 25/25 24/24
f 24/24 25/25 26/26
f 25/25 27/27 26/26
f 26/26 27/27 28/28
f 27/27 29/29 28/28
f 28/28 29/29 30/30
f 29/29 31/31 30/30
f 30/30 31/31 32/32
f 31/31 33/33 32/32
f 32/32 33/33 34/34
f 33/33 35/35 34/34
f 34/34 35/35 36/36
f 35/35 37/37 36/36
f 36/36 37/37 38/38
f 37/37 39/39 38/38
f 38/38 39/39 40/40
f 39/39 41/41 40/40
f 40/40 41/41 42/42
f 41/41 43/43 42/42
f 42/42 43/43 44/44
f 43/43 45/45 44/44
f 44/44 45/45 46/46
f 45/45 47/47 46/46
f 46/46 47/47 48/48
f 47/47 49/49 48/48
f 48/48 49/49 50/50
f 49/49 51/51 50/50
f 50/50 51/51 52/52
f 51/51 53/53 52/52
f 52/52 53/53 54/54
f 53/53 55/55 54/54
f 54/54 55/55 56/56
f 55/55 57/57 56/56
f 56/56 57/57 58/58
f 57/57 59/59 58/58
f 58/58 59/59 60/60
f 59/59 61/61 60/60
f 60/60 61/61 62/62
f 61/61 63/63 62/62
f 62/62 63/63 64/64
f 63/63 65/65 64/64
f 64/64 65/65 66/66
f 65/65 67/67 66/66
f 66/66 67/67 68/68
f 67/67 69/69 68/68
f 68/68 69/69 70/70
f 69/69 71/71 70/70
f 70/70 71/71 72/72
f 71/71 73/73 72/72
f 72/72 73/73 74/74
f 73/73 75/75 74/74
f 74/74 75/75 76/76
f 75/75 77/77 76/76
f 76/76 77/77 78/78
f 77/77 79/79 78/78
f 78/78 79/79 80/80
f 79/79 81/81 80/80
f 80/80 81/81 82/82
f 81/81 83/83 82/82
f 82/82 83/83 84/84
f 83/83 85/85 84/84
f 84/84 85/85 86/86
f 85/85 87/87 86/86
f 86/86 87/87 88/88
f 87/87 89/89 88/88
f 88/88 89/89 90/90
f 89/89 91/91 90/90
f 90/90 91/91 92/92
f 91/91 93/93 92/92
f 92/92 93/93 94/94
f 93/93 95/95 94/94
f 94/94 95/95 96/96
f 95/95 97/97 96/96
f 96/96 97/97 98/98
f 97/97 99/99 98/98
f 98/98 99/99 100/100
f 99/99 1/1 100/100
f 1/1 3/3 100/100
f 100/100 3/3 101/101
f 101/101 3/3 102/102
f 3/3 4/4 102/102
f 102/102 4/4 103/103
f 4/4 6/6 103/103
f 103/103 6/6 104/104
f 6/6 8/8 104/104
f 104/104 8/8 105/105
f 8/8 10/10 105/105
f 105/105 10/10 106/106
f 10/10 12/12 106/106
f 106/106 12/12 107/107
f 12/12 14/14 107/107
f 107/107 14/14 108/108
f 14/14 16/16 108/108
f 108/108 16/16 109/109
f 16/16 18/18 109/109
f 109/109 18/18 110/110
f 18/18 20/20 110/110
f 110/110 20/20 111/111
f 20/20 22/22 111/111
f 111/111 22/22 112/112
f 22/22 24/24 112/112
f 112/112 24/24 113/113
f 24/24 26/26 113/113
f 113/113 26/26 114/114
f 26/26 28/28 114/114
f 114/114 28/28 115/115
f 28/28 30/30 115/115
f 115/115 30/30 116/116
f 30/30 32/32 116/116
f 116/116 32/32 117/117
f 32/32 34/34 117/117
f 117/117 34/34 118/118
f 34/34 36/36 118/118
f 118/118 36/36 119/119
f 36/36 38/38 119/119
f 119/119 38/38 120/120
f 38/38 40/40 120/120
f 120/120 40/40 121/121
f 40/40 42/42 121/121
f 121/121 42/42 122/122
f 42/42 44/44 122/122
f 122/122 44/44 123/123
f 44/44 46/46 123/123
f 123/123 46/46 124/124
f 46/46 48/48 124/124
f 124/124 48/48 125/125
f 48/48 50/50 125/125
f 125/125 50/50 126/126
f 50/50 52/52 126/126
f 126/126 52/52 127/127
f 52/52 54/54 127/127
f 127/127 54/54 128/128
f 54/54 56/56 128/128
f 128/128 56/56 129/129
f 56/56 58/58 129/129
f 129/129 58/58 130/130
f 58/58 60/60 130/130
f 130/130 60/60 131/131
f 60/60 62/62 131/131
f 131/131 62/62 132/132
f 62/62 64/64 132/132
f 132/132 64/64 133/133
f 64/64 66/66 133/133
f 133/133 66/66 134/134
f 66/66 68/68 134/134
f 134/134 68/68 135/135
f 68/68 70/70 135/135
f 135/135 70/70 136/136
f 70/70 72/72 136/136
f 136/136 72/72 137/137
f 72/72 74/74 137/137
f 137/137 74/74 138/138
f 74/74 76/76 138/138
f 138/138 76/76 139/139
f 76/76 78/78 139/139
f 139/139 78/78 140/140
f 78/78 80/80 140/140
f 140/140 80/80 141/141
f 80/80 82/82 141/141
f 141/141 82/82 142/142
f 82/82 84/84 142/142
f 142/142 84/84 143/143
f 84/84 86/86 143/143
f 143/143 86/86 144/144
f 86/86 88/88 144/144
f 144/144 88/88 145/145
f 88/88 90/90 145/145
f 145/145 90/90 146/146
f 90/90 92/92 146/146
f 146/146 92/92 147/147
f 92/92 94/94 147/147
f 147/147 94/94 148/148
f 94/94 96/96 148/148
f 148/148 96/96 149/149
f 96/96 98/98 149/149
f 149/149 98/98 150/150
f 98/98 100/100 150/150
f 100/100 101/101 150/150
f 151/151 152/152 153/153
f 153/153 152/152 154/154
f 152/152 155/155 154/154
f 154/154 155/155 156/156
f 155/155 157/157 156/156
f 156/156 157/157 158/158
f 157/157 159/159 158/158
f 158/158 159/159 160/160
f 159/159 161/161 160/160
f 160/160 161/161 162/162
f 161/161 163/163 162/162
f 162/162 163/163 164/164
f 163/163 165/165 164/164
f 164/164 165/165 166/166
f 165/165 167/167 166/166
f 166/166 167/167 168/168
f 167/167 169/169 168/168
f 168/168 169/169 170/170
f 169/169 171/171 170/170
f 170/170 171/171 172/172
f 171/171 173/173 172/172
f 172/172 173/173 174/174
f 173/173 175/175 174/174
f 174/174 175/175 176/176
f 175/175 177/177 176/176
f 176/176 177/177 178/178
f 177/177 179/179 178/178
f 178/178 179/179 180/180
f 179/179 181/181 180/180
f 180/180 181/181 182/182
f 181/181 183/183 182/182
f 182/182 183/183 184/184
f 183/183 185/185 184/184
f 184/184 185/185 186/186
f 185/185 187/187 186/186
f 186/186 187/187 188/188
f 187/187 189/189 188/188
f 188/188 189/189 190/190
f 189/189 191/191 190/190
f 190/190 191/191 192/192
f 191/191 193/193 192/192
f 192/192 193/193 194/194
f 193/193 195/195 194/194
f 194/194 195/195 196/196
f 195/195 197/197 196/196
f 196/196 197/197 198/198
f 197/197 199/199 198/198
f 198/198 199/199 200/200
f 199/199 201/201 200/200
f 200/200 201/201 202/202
f 201/201 203/203 202/202
f 202/202 203/203 204/204
f 203/203 205/205 204/204
f 204/204 205/205 206/206
f 205/205 207/207 206/206
f 206/206 207/207 208/208
f 207/207 209/209 208/208
f 208/208 209/209 210/210
f 209/209 211/211 210/210
f 210/210 211/211 212/212
f 211/211 213/213 212/212
f 212/212 213/213 214/214
f 213/213 215/215 214/214
f 214/214 215/215 216/216
f 215/215 217/217 216/216
f 216/216 217/217 218/218
f 217/217 219/219 218/218
f 218/218 219/219 220/220
f 219/219 221/221 220/220
f 220/220 221/221 222/222
f 221/221 223/223 222/222
f 222/222 223/223 224/224
f 223/223 225/225 224/224
f 224/224 225/225 226/226
f 225/225 227/227 226/226
f 226/226 227/227 228/228
f 227/227 229/229 228/228
f 228/228 229/229 230/230
f 229/229 231/231 230/230
f 230/230 231/231 232/232
f 231/231 233/233 232/232
f 232/232 233/233 234/234
f 233/233 235/235 234/234
f 234/234 235/235 236/236
f 235/235 237/237 236/236
f 236/236 237/237 238/238
f 237/237 239/239 238/238
f 238/238 239/239 240/240
f 239/239 241/241 240/240
f 240/240 241/241 242/242
f 241/241 243/243 242/242
f 242/242 243/243 244/244
f 243/243 245/245 244/244
f 244/244 245/245 246/246
f 245/245 247/247 246/246
f 246/246 247/247 248/248
f 247/247 249/249 248/248
f 248/248 249/249 250/250
f 249/249 151/151 250/250
f 151/151 153/153 250/250
f 250/250 153/153 251/251
f 251/251 153/153 252/252
f 153/153 154/154 252/252
f 252/252 154/154 253/253
f 154/154 156/156 253/253
f 253/253 156/156 254/254
f 156/156 158/158 254/254
f 254/254 158/158 255/255
f 158/158 160/160 255/255
f 255/255 160/160 256/256
f 160/160 162/162 256/256
f 256/256 162/162 257/257
f 162/162 164/164 257/257
f 257/257 164/164 258/258
f 164/164 166/166 258/258
f 258/258 166/166 259/259
f 166/166 168/168 259/259
f 259/259 168/168 260/260
f 168/168 170/170 260/260
f 260/260 170/170 261/261
f 170/170 172/172 261/261
f 261/261 172/172 262/262
f 172/172 174/174 262/262
f 262/262 174/174 263/263
f 174/174 176/176 263/263
f 263/263 176/176 264/264
f 176/176 178/178 264/264
f 264/264 178/178 265/265
f 178/178 180/180 265/265
f 265/265 180/180 266/266
f 180/180 182/182 266/266
f 266/266 182/182 267/267
f 182/182 184/184 267/267
f 267/267 184/184 268/268
f 184/184 186/186 268/268
f 268/268 186/186 269/269
f 186/186 188/188 269/269
f 269/269 188/188 270/270
f 188/188 190/190 270/270
f 270/270 190/190 271/271
f 190/190 192/192 271/271
f 271/271 192/192 272/272
f 192/192 194/194 272/272
f 272/272 194/194 273/273
f 194/194 196/196 273/273
f 273/273 196/196 274/274
f 196/196 198/198 274/274
f 274/274 198/198 275/275
f 198/198 200/200 275/275
f 275/275 200/200 276/276
f 200/200 202/202 276/276
f 276/276 202/202 277/277
f 202/202 204/204 277/277
f 277/277 204/204 278/278
f 204/204 206/206 278/278
f 278/278 206/206 279/279
f 206/206 208/208 279/279
f 279/279 208/208 280/280
f 208/208 210/210 280/280
f 280/280 210/210 281/281
f 210/210 212/212 281/281
f 281/281 212/212 282/282
f 212/212 214/214 282/282
f 282/282 214/214 283/283
f 214/214 216/216 283/283
f 283/283 216/216 284/284
f 216/216 218/218 284/284
f 284/284 218/218 285/285
f 218/218 220/220 285/285
f 285/285 220/220 286/286
f 220/220 222/222 286/286
f 286/286 222/222 287/287
f 222/222 224/224 287/287
f 287/287 224/224 288/288
f 224/224 226/226 288/288
f 288/288 226/226 289/289
f 226/226 228/228 289/289
f 289/289 228/228 290/290
f 228/228 230/230 290/290
f 290/290 230/230 291/291
f 230/230 232/232 291/291
f 291/291 232/232 292/292
f 232/232 234/234 292/292
f 292/292 234/234 293/293
f 234/234 236/236 293/293
f 293/293 236/236 294/294
f 236/236 238/238 294/294
f 294/294 238/238 295/295
f 238/238 240/240 295/295
f 295/295 240/240 296/296
f 240/240 242/242 296/296
f 296/296 242/242 297/297
f 242/242 244/244 297/297
f 297/297 244/244 298/298
f 244/244 246/246 298/298
f 298/298 246/246 299/299
f 246/246 248/248 299/299
f 299/299 248/248 300/300
f 248/248 250/250 300/300
f 250/250 251/251 300/300
f 301/301 302/302 303/303
f 303/303 302/302 304/304
f 302/302 305/305 304/304
f 304/304 305/305 306/306
f 305/305 307/307 306/306
f 306/306 307/307 308/308
f 307/307 309/309 308/308
f 308/308 309/309 310/310
f 309/309 311/311 310/310
f 310/310 311/311 312/312
f 311/311 313/313 312/312
f 312/312 313/313 314/314
f 313/313 315/315 314/314
f 314/314 315/315 316/316
f 315/315 317/317 316/316
f 316/316 317/317 318/318
f 317/317 319/319 318/318
f 318/318 319/319 320/320
f 319/319 321/321 320/320
f 320/320 321/321 322/322
f 321/321 323/323 322/322
f 322/322 323/323 324/324
f 323/323 325/325 324/324
f 324/324 325/325 326/326
f 325/325 327/327 326/326
f 326/326 327/327 328/328
f 327/327 329/329 328/328
f 328/328 329/329 330/330
f 329/329 331/331 330/330
f 330/330 331/331 332/332
f 331/331 333/333 332/332
f 332/332 333/333 334/334
f 333/333 335/335 334/334
f 334/334 335/335 336/336
f 335/335 337/337 336/336
f 336/336 337/337 338/338
f 337/337 339/339 338/338
f 338/338 339/339 340/340
f 339/339 341/341 340/340
f 340/340 341/341 342/342
f 341/341 343/343 342/342
f 342/342 343/343 344/344
f 343/343 345/345 344/344
f 344/344 345/345 346/346
f 345/345 347/347 346/346
f 346/346 347/347 348/348
f 347/347 349/349 348/348
f 348/348 349/349 350/350
f 349/349 351/351 350/350
f 350/350 351/351 352/352
f 351/351 353/353 352/352
f 352/352 353/353 354/354
f 353/353 355/355 354/354
f 354/354 355/355 356/356
f 355/355 357/357 356/356
f 356/356 357/357 358/358
f 357/357 359/359 358/358
f 358/358 359/359 360/360
f 359/359 361/361 360/360
f 360/360 361/361 362/362
f 361/361 363/363 362/362
f 362/362 363/363 364/364
f 363/363 365/365 364/364
f 364/364 365/365 366/366
f 365/365 367/367 366/366
f 366/366 367/367 368/368
f 367/367 369/369 368/368
f 368/368 369/369 370/370
f 369/369 371/371 370/370
f 370/370 371/371 372/372
f 371/371 373/373 372/372
f 372/372 373/373 374/374
f 373/373 375/375 374/374
f 374/374 375/375 376/376
f 375/375 377/377 376/376
f 376/376 377/377 378/378
f 377/377 379/379 378/378
f 378/378 379/379 380/380
f 379/379 381/381 380/380
f 380/380 381/381 382/382
f 381/381 383/383 382/382
f 382/382 383/383 384/384
f 383/383 385/385 384/384
f 384/384 385/385 386/386
f 385/385 387/387 386/386
f 386/386 387/387 388/388
f 387/387 389/389 388/388
f 388/388 389/389 390/390
f 389/389 391/391 390/390
f 390/390 391/391 392/392
f 391/391 393/393 392/392
f 392/392 393/393 394/394
f 393/393 395/395 394/394
f 394/394 395/395 396/396
f 395/395 397/397 396/396
f 396/396 397/397 398/398
f 397/397 399/399 398/398
f 398/398 399/399 400/400
f 399/399 301/301 400/400
f 301/301 303/303 400/400
f 401/401 402/402 403/403
f 403/403 402/402 404/404
f 402/402 405/405 404/404
f 404/404 405/405 406/406
f 405/405 407/407 406/406
f 406/406 407/407 408/408
f 407/407 409/409 408/408
f 408/408 409/409 410/410
f 409/409 411/411 410/410
f 410/410 411/411 412/412
f 411/411 413/413 412/412
f 412/412 413/413 414/414
f 413/413 415/415 414/414
f 414/414 415/415 416/416
f 415/415 417/417 416/416
f 416/416 417/417 418/418
f 417/417 419/419 418/418
f 418/418 419/419 420/420
f 419/419 421/421 420/420
f 420/420 421/421 422/422
f 421/421 423/423 422/422
f 422/422 423/423 424/424
f 423/423 425/425 424/424
f 424/424 425/425 426/426
f 425/425 427/427 426/426
f 426/426 427/427 428/428
f 427/427 429/429 428/428
f 428/428 429/429 430/430
f 429/429 431/431 430/430
f 430/430 431/431 432/432
f 431/431 433/433 432/432
f 432/432 433/433 434/434
f 433/433 435/435 434/434
f 434/434 435/435 436/436
f 435/435 437/437 436/436
f 436/436 437/437 438/438
f 437/437 439/439 438/438
f 438/438 439/439 440/440
f 439/439 441/441 440/440
f 440/440 441/441 442/442
f 441/441 443/443 442/442
f 442/442 443/443 444/444
f 443/443 445/445 444/444
f 444/444 445/445 446/446
f 445/445 447/447 446/446
f 446/446 447/447 448/448
f 447/447 449/449 448/448
f 448/448 449/449 450/450
f 449/449 451/451 450/450
f 450/450 451/451 452/452
f 451/451 453/453 452/452
f 452/452 453/453 454/454
f 453/453 455/455 454/454
f 454/454 455/455 456/456
f 455/455 457/457 456/456
f 456/456 457/457 458/458
f 457/457 459/459 458/458
f 458/458 459/459 460/460
f 459/459 461/461 460/460
f 460/460 461/461 462/462
f 461/461 463/463 462/462
f 462/462 463/463 464/464
f 463/463 465/465 464/464
f 464/464 465/465 466/466
f 465/465 467/467 466/466
f 466/466 467/467 468/468
f 467/467 469/469 468/468
f 468/468 469/469 470/470
f 469/469 471/471 470/470
f 470/470 471/471 472/472
f 471/471 473/473 472/472
f 472/472 473/473 474/474
f 473/473 475/475 474/474
f 474/474 475/475 476/476
f 475/475 477/477 476/476
f 476/476 477/477 478/478
f 477/477 479/479 478/478
f 478/478 479/479 480/480
f 479/479 481/481 480/480
f 480/480 481/481 482/482
f 481/481 483/483 482/482
f 482/482 483/483 484/484
f 483/483 485/485 484/484
f 484/484 485/485 486/486
f 485/485 487/487 486/486
f 486/486 487/487 488/488
f 487/487 489/489 488/488
f 488/488 489/489 490/490
f 489/489 491/491 490/490
f 490/490 491/491 492/492
f 491/491 493/493 492/492
f 492/492 493/493 494/494
f 493/493 495/495 494/494
f 494/494 495/495 496/496
f 495/495 497/497 496/496
f 496/496 497/497 498/498
f 497/497 499/499 498/498
f 498/498 499/499 500/500
f 499/499 401/401 500/500
f 401/401 403/403 500/500
f 501/501 502/502 503/503
f 503/503 502/502 504/504
f 502/502 505/505 504/504
f 504/504 505/505 506/506
f 505/505 507/507 506/506
f 506/506 507/507 508/508
f 507/507 509/509 508/508
f 508/508 509/509 510/510
f 509/509 511/511 510/510
f 510/510 511/511 512/512
f 511/511 513/513 512/512
f 512/512 513/513 514/514
f 513/513 515/515 514/514
f 514/514 515/515 516/516
f 515/515 517/517 516/516
f 516/516 517/517 518/518
f 517/517 519/519 518/518
f 518/518 519/519 520/520
f 519/519 521/521 520/520
f 520/520 521/521 522/522
f 521/521 523/523 522/522
f 522/522 523/523 524/524
f 523/523 525/525 524/524
f 524/524 525/525 526/526
f 525/525 527/527 526/526
f 526/526 527/527 528/528
f 527/527 529/529 528/528
f 528/528 529/529 530/530
f 529/529 531/531 530/530
f 530/530 531/531 532/532
f 531/531 533/533 532/532
f 532/532 533/533 534/534
f 533/533 535/535 534/534
f 534/534 535/535 536/536
f 535/535 537/537 536/536
f 536/536 537/537 538/538
f 537/537 539/539 538/538
f 538/538 539/539 540/540
f 539/539 541/541 540/540
f 540/540 541/541 542/542
f 541/541 543/543 542/542
f 542/542 543/543 544/544
f 543/543 545/545 544/544
f 544/544 545/545 546/546
f 545/545 547/547 546/546
f 546/546 547/547 548/548
f 547/547 549/549 548/548
f 548/548 549/549 550/550
f 549/549 551/551 550/550
f 550/550 551/551 552/552
f 551/551 553/553 552/552
f 552/552 553/553 554/554
f 553/553 555/555 554/554
f 554/554 555/555 556/556
f 555/555 557/557 556/556
f 556/556 557/557 558/558
f 557/557 559/559 558/558
f 558/558 559/559 560/560
f 559/559 561/561 560/560
f 560/560 561/561 562/562
f 561/561 563/563 562/562
f 562/562 563/563 564/564
f 563/563 565/565 564/564
f 564/564 565/565 566/566
f 565/565 567/567 566/566
f 566/566 567/567 568/568
f 567/567 569/569 568/568
f 568/568 569/569 570/570
f 569/569 571/571 570/570
f 570/570 571/571 572/572
f 571/571 573/573 572/572
f 572/572 573/573 574/574
f 573/573 575/575 574/574
f 574/574 575/575 576/576
f 575/575 577/577 576/576
f 576/576 577/577 578/578
f 577/577 579/579 578/578
f 578/578 579/579 580/580
f 579/579 581/581 580/580
f 580/580 581/581 582/582
f 581/581 583/583 582/582
f 582/582 583/583 584/584
f 583/583 585/585 584/584
f 584/584 585/585 586/586
f 585/585 587/587 586/586
f 586/586 587/587 588/588
f 587/587 589/589 588/588
f 588/588 589/589 590/590
f 589/589 591/591 590/590
f 590/590 591/591 592/592
f 591/591 593/593 592/592
f 592/592 593/593 594/594
f 593/593 595/595 594/594
f 594/594 595/595 596/596
f 595/595 597/597 596/596
f 596/596 597/597 598/598
f 597/597 599/599 598/598
f 598/598 599/599 600/600
f 599/599 501/501 600/600
f 501/501 503/503 600/600
f 601/601 602/602 603/603
f 603/603 602/602 604/604
f 602/602 605/605 604/604
f 604/604 605/605 606/606
f 605/605 607/607 606/606
f 606/606 607/607 608/608
f 607/607 609/609 608/608
f 608/608 609/609 610/610
f 609/609 611/611 610/610
f 610/610 611/611 612/612
f 611/611 613/613 612/612
f 612/612 613/613 614/614
f 613/613 615/615 614/614
f 614/614 615/615 616/616
f 615/615 617/617 616/616
f 616/616 617/617 618/618
f 617/617 619/619 618/618
f 618/618 619/619 620/620
f 619/619 621/621 620/620
f 620/620 621/621 622/622
f 621/621 623/623 622/622
f 622/622 623/623 624/624
f 623/623 625/625 624/624
f 624/624 625/625 626/626
f 625/625 627/627 626/626
f 626/626 627/627 628/628
f 627/627 629/629 628/628
f 628/628 629/629 630/630
f 629/629 631/631 630/630
f 630/630 631/631 632/632
f 631/631 633/633 632/632
f 632/632 633/633 634/634
f 633/633 635/635 634/634
f 634/634 635/635 636/636
f 635/635 637/637 636/636
f 636/636 637/637 638/638
f 637/637 639/639 638/638
f 638/638 639/639 640/640
f 639/639 641/641 640/640
f 640/640 641/641 642/642
f 641/641 643/643 642/642
f 642/642 643/643 644/644
f 643/643 645/645 644/644
f 644/644 645/645 646/646
f 645/645 647/647 646/646
f 646/646 647/647 648/648
f 647/647 649/649 648/648
f 648/648 649/649 650/650
f 649/649 651/651 650/650
f 650/650 651/651 652/652
f 651/651 653/653 652/652
f 652/652 653/653 654/654
f 653/653 655/655 654/654
f 654/654 655/655 656/656
f 655/655 657/657 656/656
f 656/656 657/657 658/658
f 657/657 659/659 658/658
f 658/658 659/659 660/660
f 659/659 661/661 660/660
f 660/660 661/661 662/662
f 661/661 663/663 662/662
f 662/662 663/663 664/664
f 663/663 665/665 664/664
f 664/664 665/665 666/666
f 665/665 667/667 666/666
f 666/666 667/667 668/668
f 667/667 669/669 668/668
f 668/668 669/669 670/670
f 669/669 671/671 670/670
f 670/670 671/671 672/672
f 671/671 673/673 672/672
f 672/672 673/673 674/674
f 673/673 675/675 674/674
f 674/674 675/675 676/676
f 675/675 677/677 676/676
f 676/676 677/677 678/678
f 677/677 679/679 678/678
f 678/678 679/679 680/680
f 679/679 681/681 680/680
f 680/680 681/681 682/682
f 681/681 683/683 682/682
f 682/682 683/683 684/684
f 683/683 685/685 684/684
f 684/684 685/685 686/686
f 685/685 687/687 686/686
f 686/686 687/687 688/688
f 687/687 689/689 688/688
f 688/688 689/689 690/690
f 689/689 691/691 690/690
f 690/690 691/691 692/692
f 691/691 693/693 692/692
f 692/692 693/693 694/694
f 693/693 695/695 694/694
f 694/694 695/695 696/696
f 695/695 697/697 696/696
f 696/696 697/697 698/698
f 697/697 699/699 698/698
f 698/698 699/699 700/700
f 699/699 601/601 700/700
f 601/601 603/603 700/700
f 701/701 702/702 703/703
f 703/703 702/702 704/704
f 702/702 705/705 704/704
f 704/704 705/705 706/706
f 705/705 707/707 706/706
f 706/706 707/707 708/708
f 707/707 709/709 708/708
f 708/708 709/709 710/710
f 709/709 711/711 710/710
f 710/710 711/711 712/712
f 711/711 713/713 712/712
f 712/712 713/713 714/714
f 713/713 715/715 714/714
f 714/714 715/715 716/716
f 715/715 717/717 716/716
f 716/716 717/717 718/718
f 717/717 719/719 718/718
f 718/718 719/719 720/720
f 719/719 721/721 720/720
f 720/720 721/721 722/722
f 721/721 723/723 722/722
f 722/722 723/723 724/724
f 723/723 725/725 724/724
f 724/724 725/725 726/726
f 725/725 727/727 726/726
f 726/726 727/727 728/728
f 727/727 729/729 728/728
f 728/728 729/729 730/730
f 729/729 731/731 730/730
f 730/730 731/731 732/732
f 731/731 733/733 732/732
f 732/732 733/733 734/734
f 733/733 735/735 734/734
f 734/734 735/735 736/736
f 735/735 737/737 736/736
f 736/736 737/737 738/738
f 737/737 739/739 738/738
f 738/738 739/739 740/740
f 739/739 741/741 740/740
f 740/740 741/741 742/742
f 741/741 743/743 742/742
f 742/742 743/743 744/744
f 743/743 745/745 744/744
f 744/744 745/745 746/746
f 745/745 747/747 746/746
f 746/746 747/747 748/748
f 747/747 749/749 748/748
f 748/748 749/749 750/750
f 749/749 751/751 750/750
f 750/750 751/751 752/752
f 751/751 753/753 752/752
f 752/752 753/753 754/754
f 753/753 755/755 754/754
f 754/754 755/755 756/756
f 755/755 757/757 756/756
f 756/756 757/757 758/758
f 757/757 759/759 758/758
f 758/758 759/759 760/760
f 759/759 761/761 760/760
f 760/760 761/761 762/762
f 761/761 763/763 762/762
f 762/762 763/763 764/764
f 763/763 765/765 764/764
f 764/764 765/765 766/766
f 765/765 767/767 766/766
f 766/766 767/767 768/768
f 767/767 769/769 768/768
f 768/768 769/769 770/770
f 769/769 771/771 770/770
f 770/770 771/771 772/772
f 771/771 773/773 772/772
f 772/772 773/773 774/774
f 773/773 775/775 774/774
f 774/774 775/775 776/776
f 775/775 777/777 776/776
f 776/776 777/777 778/778
f 777/777 779/779 778/778
f 778/778 779/779 780/780
f 779/779 781/781 780/780
f 780/780 781/781 782/782
f 781/781 783/783 782/782
f 782/782 783/783 784/784
f 783/783 785/785 784/784
f 784/784 785/785 786/786
f 785/785 787/787 786/786
f 786/786 787/787 788/788
f 787/787 789/789 788/788
f 788/788 789/789 790/790
f 789/789 791/791 790/790
f 790/790 791/791 792/792
f 791/791 793/793 792/792
f 792/792 793/793 794/794
f 793/793 795/795 794/794
f 794/794 795/795 796/796
f 795/795 797/797 796/796
f 796/796 797/797 798/798
f 797/797 799/799 798/798
f 798/798 799/799 800/800
f 799/799 701/701 800/800
f 701/701 703/703 800/800
f 800/800 703/703 801/801
f 801/801 703/703 802/802
f 802/802 703/703 803/803
f 703/703 704/704 803/803
f 803/803 704/704 804/804
f 704/704 706/706 804/804
f 804/804 706/706 805/805
f 706/706 708/708 805/805
f 805/805 708/708 806/806
f 708/708 710/710 806/806
f 710/710 712/712 806/806
f 806/806 712/712 807/807
f 807/807 712/712 808/808
f 712/712 714/714 808/808
f 808/808 714/714 809/809
f 714/714 716/716 809/809
f 809/809 716/716 810/810
f 716/716 718/718 810/810
f 718/718 720/720 810/810
f 810/810 720/720 811/811
f 720/720 722/722 811/811
f 811/811 722/722 812/812
f 812/812 722/722 813/813
f 722/722 724/724 813/813
f 813/813 724/724 814/814
f 724/724 726/726 814/814
f 814/814 726/726 815/815
f 726/726 728/728 815/815
f 815/815 728/728 816/816
f 728/728 730/730 816/816
f 730/730 732/732 816/816
f 816/816 732/732 817/817
f 817/817 732/732 818/818
f 732/732 734/734 818/818
f 818/818 734/734 819/819
f 734/734 736/736 819/819
f 819/819 736/736 820/820
f 736/736 738/738 820/820
f 738/738 740/740 820/820
f 820/820 740/740 821/821
f 740/740 742/742 821/821
f 821/821 742/742 822/822
f 822/822 742/742 823/823
f 742/742 744/744 823/823
f 823/823 744/744 824/824
f 744/744 746/746 824/824
f 824/824 746/746 825/825
f 746/746 748/748 825/825
f 825/825 748/748 826/826
f 748/748 750/750 826/826
f 750/750 752/752 826/826
f 826/826 752/752 827/827
f 827/827 752/752 828/828
f 752/752 754/754 828/828
f 828/828 754/754 829/829
f 754/754 756/756 829/829
f 829/829 756/756 830/830
f 756/756 758/758 830/830
f 758/758 760/760 830/830
f 830/830 760/760 831/831
f 760/760 762/762 831/831
f 831/831 762/762 832/832
f 832/832 762/762 833/833
f 762/762 764/764 833/833
f 833/833 764/764 834/834
f 764/764 766/766 834/834
f 834/834 766/766 835/835
f 766/766 768/768 835/835
f 835/835 768/768 836/836
f 768/768 770/770 836/836
f 770/770 772/772 836/836
f 836/836 772/772 837/837
f 837/837 772/772 838/838
f 772/772 774/774 838/838
f 838/838 774/774 839/839
f 774/774 776/776 839/839
f 839/839 776/776 840/840
f 776/776 778/778 840/840
f 778/778 780/780 840/840
f 840/840 780/780 841/841
f 780/780 782/782 841/841
f 841/841 782/782 842/842
f 842/842 782/782 843/843
f 782/782 784/784 843/843
f 843/843 784/784 844/844
f 784/784 786/786 844/844
f 844/844 786/786 845/845
f 786/786 788/788 845/845
f 845/845 788/788 846/846
f 788/788 790/790 846/846
f 790/790 792/792 846/846
f 846/846 792/792 847/847
f 847/847 792/792 848/848
f 792/792 794/794 848/848
f 848/848 794/794 849/849
f 794/794 796/796 849/849
f 849/849 796/796 850/850
f 796/796 798/798 850/850
f 798/798 800/800 850/850
f 800/800 801/801 850/850
f 851/851 852/852 853/853
f 853/853 852/852 854/854
f 852/852 855/855 854/854
f 855/855 856/856 854/854
f 854/854 856/856 857/857
f 856/856 858/858 857/857
f 857/857 858/858 859/859
f 858/858 860/860 859/859
f 859/859 860/860 861/861
f 860/860 862/862 861/861
f 861/861 862/862 863/863
f 863/863 862/862 864/864
f 862/862 865/865 864/864
f 865/865 866/866 864/864
f 864/864 866/866 867/867
f 866/866 868/868 867/867
f 867/867 868/868 869/869
f 868/868 870/870 869/869
f 869/869 870/870 871/871
f 871/871 870/870 872/872
f 870/870 873/873 872/872
f 872/872 873/873 874/874
f 873/873 875/875 874/874
f 875/875 876/876 874/874
f 874/874 876/876 877/877
f 876/876 878/878 877/877
f 877/877 878/878 879/879
f 878/878 880/880 879/879
f 879/879 880/880 881/881
f 880/880 882/882 881/881
f 881/881 882/882 883/883
f 883/883 882/882 884/884
f 882/882 885/885 884/884
f 885/885 886/886 884/884
f 884/884 886/886 887/887
f 886/886 888/888 887/887
f 887/887 888/888 889/889
f 888/888 890/890 889/889
f 889/889 890/890 891/891
f 891/891 890/890 892/892
f 890/890 893/893 892/892
f 892/892 893/893 894/894
f 893/893 895/895 894/894
f 895/895 896/896 894/894
f 894/894 896/896 897/897
f 896/896 898/898 897/897
f 897/897 898/898 899/899
f 898/898 900/900 899/899
f 899/899 900/900 901/901
f 900/900 902/902 901/901
f 901/901 902/902 903/903
f 903/903 902/902 904/904
f 902/902 905/905 904/904
f 905/905 906/906 904/904
f 904/904 906/906 907/907
f 906/906 908/908 907/907
f 907/907 908/908 909/909
f 908/908 910/910 909/909
f 909/909 910/910 911/911
f 911/911 910/910 912/912
f 910/910 913/913 912/912
f 912/912 913/913 914/914
f 913/913 915/915 914/914
f 915/915 916/916 914/914
f 914/914 916/916 917/917
f 916/916 918/918 917/917
f 917/917 918/918 919/919
f 918/918 920/920 919/919
f 919/919 920/920 921/921
f 920/920 922/922 921/921
f 921/921 922/922 923/923
f 923/923 922/922 924/924
f 922/922 925/925 924/924
f 925/925 926/926 924/924
f 924/924 926/926 927/927
f 926/926 928/928 927/927
f 927/927 928/928 929/929
f 928/928 930/930 929/929
f 929/929 930/930 931/931
f 931/931 930/930 932/932
f 930/930 933/933 932/932
f 932/932 933/933 934/934
f 933/933 935/935 934/934
f 935/935 936/936 934/934
f 934/934 936/936 937/937
f 936/936 938/938 937/937
f 937/937 938/938 939/939
f 938/938 940/940 939/939
f 939/939 940/940 941/941
f 940/940 942/942 941/941
f 941/941 942/942 943/943
f 943/943 942/942 944/944
f 942/942 945/945 944/944
f 945/945 946/946 944/944
f 944/944 946/946 947/947
f 946/946 948/948 947/947
f 947/947 948/948 949/949
f 948/948 851/851 949/949
f 949/949 851/851 950/950
f 851/851 853/853 950/950
f 950/950 853/853 951/951
f 951/951 853/853 952/952
f 853/853 854/854 952/952
f 952/952 854/854 953/953
f 854/854 857/857 953/953
f 953/953 857/857 954/954
f 857/857 859/859 954/954
f 954/954 859/859 955/955
f 859/859 861/861 955/955
f 955/955 861/861 956/956
f 861/861 863/863 956/956
f 956/956 863/863 957/957
f 863/863 864/864 957/957
f 957/957 864/864 958/958
f 864/864 867/867 958/958
f 958/958 867/867 959/959
f 867/867 869/869 959/959
f 959/959 869/869 960/960
f 869/869 871/871 960/960
f 960/960 871/871 961/961
f 871/871 872/872 961/961
f 961/961 872/872 962/962
f 872/872 874/874 962/962
f 962/962 874/874 963/963
f 874/874 877/877 963/963
f 963/963 877/877 964/964
f 877/877 879/879 964/964
f 964/964 879/879 965/965
f 879/879 881/881 965/965
f 965/965 881/881 966/966
f 881/881 883/883 966/966
f 966/966 883/883 967/967
f 883/883 884/884 967/967
f 967/967 884/884 968/968
f 884/884 887/887 968/968
f 968/968 887/887 969/969
f 887/887 889/889 969/969
f 969/969 889/889 970/970
f 889/889 891/891 970/970
f 970/970 891/891 971/971
f 891/891 892/892 971/971
f 971/971 892/892 972/972
f 892/892 894/894 972/972
f 972/972 894/894 973/973
f 894/894 897/897 973/973
f 973/973 897/897 974/974
f 897/897 899/899 974/974
f 974/974 899/899 975/975
f 899/899 901/901 975/975
f 975/975 901/901 976/976
f 901/901 903/903 976/976
f 976/976 903/903 977/977
f 903/903 904/904 977/977
f 977/977 904/904 978/978
f 904/904 907/907 978/978
f 978/978 907/907 979/979
f 907/907 909/909 979/979
f 979/979 909/909 980/980
f 909/909 911/911 980/980
f 980/980 911/911 981/981
f 911/911 912/912 981/981
f 981/981 912/912 982/982
f 912/912 914/914 982/982
f 982/982 914/914 983/983
f 914/914 917/917 983/983
f 983/983 917/917 984/984
f 917/917 919/919 984/984
f 984/984 919/919 985/985
f 919/919 921/921 985/985
f 985/985 921/921 986/986
f 921/921 923/923 986/986
f 986/986 923/923 987/987
f 923/923 924/924 987/987
f 987/987 924/924 988/988
f 924/924 927/927 988/988
f 988/988 927/927 989/989
f 927/927 929/929 989/989
f 989/989 929/929 990/990
f 929/929 931/931 990/990
f 990/990 931/931 991/991
f 931/931 932/932 991/991
f 991/991 932/932 992/992
f 932/932 934/934 992/992
f 992/992 934/934 993/993
f 934/934 937/937 993/993
f 993/993 937/937 994/994
f 937/937 939/939 994/994
f 994/994 939/939 995/995
f 939/939 941/941 995/995
f 995/995 941/941 996/996
f 941/941 943/943 996/996
f 996/996 943/943 997/997
f 943/943 944/944 997/997
f 997/997 944/944 998/998
f 944/944 947/947 998/998
f 998/998 947/947 999/999
f 947/947 949/949 999/999
f 999/999 949/949 1000/1000
f 949/949 950/950 1000/1000
f 950/950 951/951 1000/1000

